<?xml version="1.0" encoding="UTF-8" standalone="no"?>
<!-- Created with Inkscape (http://www.inkscape.org/) -->
<svg id="svg6289" xmlns:rdf="http://www.w3.org/1999/02/22-rdf-syntax-ns#" xmlns="http://www.w3.org/2000/svg" height="32" width="32" version="1.1" xmlns:cc="http://creativecommons.org/ns#" xmlns:xlink="http://www.w3.org/1999/xlink" xmlns:dc="http://purl.org/dc/elements/1.1/">
 <defs id="defs6291">
  <linearGradient id="linearGradient6307">
   <stop id="stop6309" stop-color="#d5f6ff" offset="0"/>
   <stop id="stop6315" stop-color="#7ac1d2" offset=".51193"/>
   <stop id="stop6311" stop-color="#08a" offset="1"/>
  </linearGradient>
  <filter id="filter6551" color-interpolation-filters="sRGB">
   <feGaussianBlur id="feGaussianBlur6553" stdDeviation="0.90177518"/>
  </filter>
  <filter id="filter4900" width="2.5653" y="-.0059741" x="-.78264" height="1.0119" color-interpolation-filters="sRGB">
   <feGaussianBlur id="feGaussianBlur4902" stdDeviation="0.029120722"/>
  </filter>
  <filter id="filter4888" color-interpolation-filters="sRGB">
   <feGaussianBlur id="feGaussianBlur4890" stdDeviation="0.027299742"/>
  </filter>
  <filter id="filter4900-8" width="2.5653" y="-.0059741" x="-.78264" height="1.0119" color-interpolation-filters="sRGB">
   <feGaussianBlur id="feGaussianBlur4902-1" stdDeviation="0.029120722"/>
  </filter>
  <filter id="filter4888-2" color-interpolation-filters="sRGB">
   <feGaussianBlur id="feGaussianBlur4890-1" stdDeviation="0.027299742"/>
  </filter>
  <filter id="filter4900-8-3" width="2.5653" y="-.0059741" x="-.78264" height="1.0119" color-interpolation-filters="sRGB">
   <feGaussianBlur id="feGaussianBlur4902-1-8" stdDeviation="0.029120722"/>
  </filter>
  <filter id="filter4888-2-6" color-interpolation-filters="sRGB">
   <feGaussianBlur id="feGaussianBlur4890-1-9" stdDeviation="0.027299742"/>
  </filter>
  <filter id="filter9152" color-interpolation-filters="sRGB">
   <feGaussianBlur id="feGaussianBlur9154" stdDeviation="0.1621875"/>
  </filter>
  <filter id="filter9152-8" color-interpolation-filters="sRGB">
   <feGaussianBlur id="feGaussianBlur9154-2" stdDeviation="0.1621875"/>
  </filter>
  <filter id="filter9196" width="1.0599" y="-.1212" x="-.029926" height="1.2424" color-interpolation-filters="sRGB">
   <feGaussianBlur id="feGaussianBlur9198" stdDeviation="0.0315625"/>
  </filter>
  <radialGradient id="radialGradient20029" xlink:href="#linearGradient6307" gradientUnits="userSpaceOnUse" cy="14.52" cx="7.0513" gradientTransform="matrix(1.1891 1.8655 -1.2258 .78135 -14.393 -48.541)" r="16.454"/>
  <radialGradient id="radialGradient20035" xlink:href="#linearGradient6307" gradientUnits="userSpaceOnUse" cy="14.52" cx="7.0513" gradientTransform="matrix(1.1477 1.7791 -1.1832 .74518 -14.245 -46.039)" r="16.454"/>
 </defs>
 <metadata id="metadata6294">
  <rdf:RDF>
   <cc:Work rdf:about="">
    <dc:format>image/svg+xml</dc:format>
    <dc:type rdf:resource="http://purl.org/dc/dcmitype/StillImage"/>
    <dc:title/>
   </cc:Work>
  </rdf:RDF>
 </metadata>
 <g id="layer1">
  <g id="g19981" transform="translate(-.17861)">
   <g id="g13006" stroke-opacity="0" transform="translate(-.096588 -.44602)">
    <rect id="rect6297" transform="rotate(179.93)" rx="3.8862" ry="3.8862" height="31.09" width="31.09" y="-32.025" x="-31.875" fill="url(#radialGradient20029)"/>
    <rect id="rect6317" transform="rotate(179.93)" rx="3.8862" ry="3.8862" height="31.09" width="31.09" y="-32.025" x="-31.875" fill="url(#radialGradient20029)"/>
    <rect id="rect6325" transform="rotate(179.93)" rx="3.8862" ry="3.8862" height="31.09" width="31.09" y="-32.025" x="-31.875" fill="url(#radialGradient20029)"/>
    <rect id="rect5843" transform="matrix(.90415 .0083759 -.0082899 .91353 30.793 30.721)" rx="3.751" ry="3.7063" height="29.65" filter="url(#filter6551)" width="30.008" y="-30.287" x="-31.12" fill="url(#radialGradient20035)"/>
   </g>
   <g id="g7986" transform="translate(-.35721 -.53582)">
    <g id="g7988" transform="translate(3.2214 -.58012)">
     <g id="g7990" transform="matrix(.99328 0 0 1 .47808 -1.0726)">
      <path id="path7992" fill-rule="evenodd" fill="#1da9cc" d="m10.166 9.8429 0.09 11.511 2.689-0.923-0.272-11.807c-1.316-0.0292-2.369 0.76-2.507 1.2189z"/>
      <path id="path7994" fill-rule="evenodd" fill="#1697b5" d="m12.511 8.6366 7.2827 2.2741 0.1808 13.478-7.189-3.6383z"/>
      <g id="g7996" stroke-width="0" fill="#fff" transform="matrix(.97548 0 0 1.0057 -6.031 .13152)">
       <path id="path7998" d="m19.844 8.8438 0.09375 11.5 6.4375 3.3125-0.09375-12.75-6.4375-2.0625z" fill="#fff" fill-rule="evenodd"/>
      </g>
      <path id="path8000" fill-rule="evenodd" fill="#add9e4" d="m17.712 12.539 0.26791 12.298c0.48027-0.82389 0.72785-0.72402 1.5295-0.75756l-0.09-12.464c-0.86422-0.10186-1.244 0.26612-1.7081 0.92376z"/>
      <path id="path8002" fill-rule="evenodd" fill="#add9e4" d="m10.509 10.123c-0.21196 0.25342 1.065-0.95455 2.0538-0.90568l6.6497 2.245c-1.2563 0.09277-1.2456 0.39086-1.8297 1.4065z"/>
      <path id="path8004" fill-rule="evenodd" fill="#1da9cc" d="m10.144 9.7975 7.8207 2.7971 0.000004 12.598-7.7282-3.7048z"/>
      <path id="path8006" opacity=".4898" d="m-12.368 8.0221 0.0893 11.699" transform="matrix(1 0 0 1.001 22.875 1.9809)" filter="url(#filter4900)" stroke="#fff" stroke-width=".2" fill="#fff"/>
      <path id="path8008" opacity=".4898" d="m12.508 8.8389c-0.39143 0.00137-0.84301 0.17688-1.1446 0.31343-0.32718 0.14815-0.50011 0.26723-0.82553 0.51646" filter="url(#filter4888)" stroke="#fff" stroke-width=".2" fill="#fff"/>
     </g>
     <g id="g8010" transform="matrix(.92970 0 0 .91915 -1.377 1.9463)">
      <path id="path8012" fill-rule="evenodd" fill="#1da9cc" d="m10.166 9.8429 0.09 11.511 2.689-0.923-0.272-11.807c-1.316-0.0292-2.369 0.76-2.507 1.2189z"/>
      <path id="path8014" fill-rule="evenodd" fill="#1697b5" d="m12.511 8.6366 7.2827 2.2741 0.1808 13.478-7.189-3.6383z"/>
      <g id="g8016" stroke-width="0" fill="#fff" transform="matrix(.97548 0 0 1.0057 -6.031 .13152)">
       <path id="path8018" d="m19.844 8.8438 0.09375 11.5 6.4375 3.3125-0.09375-12.75-6.4375-2.0625z" fill="#fff" fill-rule="evenodd"/>
      </g>
      <path id="path8020" fill-rule="evenodd" fill="#add9e4" d="m17.712 12.539 0.26791 12.298c0.48027-0.82389 0.72785-0.72402 1.5295-0.75756l-0.09-12.464c-0.86422-0.10186-1.244 0.26612-1.7081 0.92376z"/>
      <path id="path8022" fill-rule="evenodd" fill="#add9e4" d="m10.509 10.123c-0.21196 0.25342 1.065-0.95455 2.0538-0.90568l6.6497 2.245c-1.2563 0.09277-1.2456 0.39086-1.8297 1.4065z"/>
      <path id="path8024" fill-rule="evenodd" fill="#1da9cc" d="m10.144 9.7975 7.8207 2.7971 0.000004 12.598-7.7282-3.7048z"/>
      <path id="path8026" opacity=".4898" d="m-12.368 8.0221 0.0893 11.699" transform="matrix(1 0 0 1.001 22.875 1.9809)" filter="url(#filter4900-8)" stroke="#fff" stroke-width=".2" fill="#fff"/>
      <path id="path8028" opacity=".4898" d="m12.508 8.8389c-0.39143 0.00137-0.84301 0.17688-1.1446 0.31343-0.32718 0.14815-0.50011 0.26723-0.82553 0.51646" filter="url(#filter4888-2)" stroke="#fff" stroke-width=".2" fill="#fff"/>
     </g>
     <g id="g8030" transform="matrix(.76612 0 0 .83834 -1.3116 5.5911)">
      <path id="path8032" fill-rule="evenodd" fill="#1da9cc" d="m10.166 9.8429 0.09 11.511 2.689-0.923-0.272-11.807c-1.316-0.0292-2.369 0.76-2.507 1.2189z"/>
      <path id="path8034" fill-rule="evenodd" fill="#1697b5" d="m12.511 8.6366 7.2827 2.2741 0.1808 13.478-7.189-3.6383z"/>
      <g id="g8036" stroke-width="0" fill="#fff" transform="matrix(.97548 0 0 1.0057 -6.031 .13152)">
       <path id="path8038" d="m19.844 8.8438 0.09375 11.5 6.4375 3.3125-0.09375-12.75-6.4375-2.0625z" fill="#fff" fill-rule="evenodd"/>
      </g>
      <path id="path8040" fill-rule="evenodd" fill="#add9e4" d="m17.712 12.539 0.26791 12.298c0.48027-0.82389 0.72785-0.72402 1.5295-0.75756l-0.09-12.464c-0.86422-0.10186-1.244 0.26612-1.7081 0.92376z"/>
      <path id="path8042" fill-rule="evenodd" fill="#add9e4" d="m10.509 10.123c-0.21196 0.25342 1.065-0.95455 2.0538-0.90568l6.6497 2.245c-1.2563 0.09277-1.2456 0.39086-1.8297 1.4065z"/>
      <path id="path8044" fill-rule="evenodd" fill="#1da9cc" d="m10.144 9.7975 7.8207 2.7971 0.000004 12.598-7.7282-3.7048z"/>
      <path id="path8046" opacity=".4898" d="m-12.368 8.0221 0.0893 11.699" transform="matrix(1 0 0 1.001 22.875 1.9809)" filter="url(#filter4900-8-3)" stroke="#fff" stroke-width=".2" fill="#fff"/>
      <path id="path8048" opacity=".4898" d="m12.508 8.8389c-0.39143 0.00137-0.84301 0.17688-1.1446 0.31343-0.32718 0.14815-0.50011 0.26723-0.82553 0.51646" filter="url(#filter4888-2-6)" stroke="#fff" stroke-width=".2" fill="#fff"/>
     </g>
    </g>
   </g>
   <g id="g10552" transform="translate(-.53231 -.44861)">
    <path id="path8680" d="m10.441 12.71c-2.8606 0-5.1875 1.6851-5.1875 3.7812s2.3269 3.8125 5.1875 3.8125 5.1875-1.7164 5.1875-3.8125-2.3269-3.7812-5.1875-3.7812zm0 1.0312c1.2291 0 2.324 0.36905 3.0625 0.90625 0.73847 0.5372 1.0938 1.1749 1.0938 1.8438 0 0.66887-0.35404 1.3307-1.0938 1.875-0.73972 0.54426-1.8372 0.90625-3.0625 0.90625-1.2254 0-2.3228-0.36199-3.0625-0.90625-0.73972-0.54426-1.0938-1.2061-1.0938-1.875 0-0.66887 0.35528-1.3065 1.0938-1.8438 0.73847-0.5372 1.8334-0.90625 3.0625-0.90625z" fill="#01748f"/>
    <path id="path8694" fill-opacity=".23207" fill="#b3b3b3" transform="translate(-2.5005 -.98234)" d="m13.031 14.812c-1.2291 0-2.324 0.36905-3.0625 0.90625-0.7382 0.538-1.0935 1.176-1.0935 1.844 0 0.66887 0.35403 1.3307 1.0938 1.875 0.73972 0.54426 1.8372 0.90625 3.0625 0.90625 1.2254 0 2.3228-0.36199 3.0625-0.90625 0.73972-0.54426 1.0938-1.2061 1.0938-1.875 0-0.66887-0.35528-1.3065-1.0938-1.8438-0.73847-0.5372-1.8334-0.90625-3.0625-0.90625z"/>
    <path id="path8680-7" d="m23.13 12.754c-2.8606 0-5.1875 1.6851-5.1875 3.7812s2.3269 3.8125 5.1875 3.8125 5.1875-1.7164 5.1875-3.8125-2.3269-3.7812-5.1875-3.7812zm0 1.0312c1.2291 0 2.324 0.36905 3.0625 0.90625 0.73847 0.5372 1.0938 1.1749 1.0938 1.8438 0 0.66887-0.35404 1.3307-1.0938 1.875-0.73972 0.54426-1.8372 0.90625-3.0625 0.90625-1.2254 0-2.3228-0.36199-3.0625-0.90625-0.73972-0.54426-1.0938-1.2061-1.0938-1.875 0-0.66887 0.35528-1.3065 1.0938-1.8438 0.73847-0.5372 1.8334-0.90625 3.0625-0.90625z" fill="#01748f"/>
    <path id="path8733" d="m18.396 17.176c0 0.59185-0.11718-0.62512-1.4735-0.62512s-1.8307 1.3063-1.8307 0.71443c0-0.59185 0.38509-1.3395 1.7414-1.3395s1.5628 0.6584 1.5628 1.2502z" fill="#01748f"/>
    <path id="path9134" filter="url(#filter9152)" transform="translate(-2.5005 -1.2502)" fill="#f9f9f9" d="m13.031 14.219c-1.3435 0-2.5536 0.41101-3.4062 1.0312-0.85262 0.62024-1.3438 1.4281-1.3438 2.3125s0.49059 1.716 1.3438 2.3438c0.85316 0.62773 2.0644 1.0312 3.4062 1.0312s2.5531-0.40352 3.4062-1.0312c0.85316-0.62773 1.3438-1.4593 1.3438-2.3438 0-0.8844-0.49113-1.6923-1.3438-2.3125-0.85262-0.62024-2.0628-1.0312-3.4062-1.0312zm0 0.15625c1.3176 0 2.4838 0.39714 3.3125 1 0.81855 0.59545 1.2812 1.362 1.2812 2.1875 0 0.82495-0.45792 1.613-1.2812 2.2188-0.83251 0.61254-2 1-3.3125 1s-2.48-0.38746-3.3125-1c-0.8231-0.606-1.281-1.394-1.281-2.219 0-0.82549 0.4627-1.592 1.2812-2.1875 0.82873-0.60286 1.9949-1 3.3125-1z"/>
    <path id="path9134-0" filter="url(#filter9152-8)" transform="translate(10.009 -1.0276)" fill="#f9f9f9" d="m13.031 14.219c-1.3435 0-2.5536 0.41101-3.4062 1.0312-0.85262 0.62024-1.3438 1.4281-1.3438 2.3125s0.49059 1.716 1.3438 2.3438c0.85316 0.62773 2.0644 1.0312 3.4062 1.0312s2.5531-0.40352 3.4062-1.0312c0.85316-0.62773 1.3438-1.4593 1.3438-2.3438 0-0.8844-0.49113-1.6923-1.3438-2.3125-0.85262-0.62024-2.0628-1.0312-3.4062-1.0312zm0 0.15625c1.3176 0 2.4838 0.39714 3.3125 1 0.81855 0.59545 1.2812 1.362 1.2812 2.1875 0 0.82495-0.45792 1.613-1.2812 2.2188-0.83251 0.61254-2 1-3.3125 1s-2.48-0.38746-3.3125-1c-0.8231-0.606-1.281-1.394-1.281-2.219 0-0.82549 0.4627-1.592 1.2812-2.1875 0.82873-0.60286 1.9949-1 3.3125-1z"/>
    <path id="path9182" filter="url(#filter9196)" fill="#f9f9f9" d="m16.844 16.219c-0.63073 0-0.9793 0.14628-1.1875 0.34375-0.08634 0.08189-0.14289 0.18602-0.1875 0.28125 0.31911-0.2499 0.78441-0.5625 1.4688-0.5625 0.37913 0 0.66804 0.09507 0.90625 0.21875-0.16965-0.14425-0.43588-0.28125-1-0.28125zm1 0.28125c0.06925 0.03596 0.09798 0.08482 0.15625 0.125-0.02082-0.03307-0.03529-0.06439-0.0625-0.09375-0.01737-0.01874-0.07248-0.01317-0.09375-0.03125z"/>
    <path id="path8694-2" fill-opacity=".23207" fill="#b3b3b3" transform="translate(9.9197 -1.1169)" d="m13.031 14.812c-1.2291 0-2.324 0.36905-3.0625 0.90625-0.7382 0.538-1.0935 1.176-1.0935 1.844 0 0.66887 0.35403 1.3307 1.0938 1.875 0.73972 0.54426 1.8372 0.90625 3.0625 0.90625 1.2254 0 2.3228-0.36199 3.0625-0.90625 0.73972-0.54426 1.0938-1.2061 1.0938-1.875 0-0.66887-0.35528-1.3065-1.0938-1.8438-0.73847-0.5372-1.8334-0.90625-3.0625-0.90625z"/>
   </g>
  </g>
 </g>
</svg>
