<?xml version="1.0" encoding="UTF-8" standalone="no"?>
<!-- Created with Inkscape (http://www.inkscape.org/) -->
<svg id="svg6289" xmlns:rdf="http://www.w3.org/1999/02/22-rdf-syntax-ns#" xmlns="http://www.w3.org/2000/svg" height="32" width="32" version="1.1" xmlns:cc="http://creativecommons.org/ns#" xmlns:xlink="http://www.w3.org/1999/xlink" xmlns:dc="http://purl.org/dc/elements/1.1/">
 <defs id="defs6291">
  <linearGradient id="linearGradient6307">
   <stop id="stop6309" stop-color="#d5f6ff" offset="0"/>
   <stop id="stop6315" stop-color="#7ac1d2" offset=".51193"/>
   <stop id="stop6311" stop-color="#08a" offset="1"/>
  </linearGradient>
  <filter id="filter6551" color-interpolation-filters="sRGB">
   <feGaussianBlur id="feGaussianBlur6553" stdDeviation="0.90177518"/>
  </filter>
  <filter id="filter3989" width="5.7522" y="-.018137" x="-2.3761" height="1.0363" color-interpolation-filters="sRGB">
   <feGaussianBlur id="feGaussianBlur3991" stdDeviation="0.08841018"/>
  </filter>
  <radialGradient id="radialGradient13215" xlink:href="#linearGradient6307" gradientUnits="userSpaceOnUse" cy="14.52" cx="7.0513" gradientTransform="matrix(1.1891 1.8655 -1.2258 .78135 -14.393 -48.541)" r="16.454"/>
  <radialGradient id="radialGradient13221" xlink:href="#linearGradient6307" gradientUnits="userSpaceOnUse" cy="14.52" cx="7.0513" gradientTransform="matrix(1.1477 1.7791 -1.1832 .74518 -14.245 -46.039)" r="16.454"/>
 </defs>
 <metadata id="metadata6294">
  <rdf:RDF>
   <cc:Work rdf:about="">
    <dc:format>image/svg+xml</dc:format>
    <dc:type rdf:resource="http://purl.org/dc/dcmitype/StillImage"/>
    <dc:title/>
   </cc:Work>
  </rdf:RDF>
 </metadata>
 <g id="layer1">
  <g id="g13308">
   <g id="g13006" stroke-opacity="0" transform="translate(-.27519 -.44602)">
    <rect id="rect6297" transform="rotate(179.93)" rx="3.8862" ry="3.8862" height="31.09" width="31.09" y="-32.025" x="-31.875" fill="url(#radialGradient13215)"/>
    <rect id="rect6317" transform="rotate(179.93)" rx="3.8862" ry="3.8862" height="31.09" width="31.09" y="-32.025" x="-31.875" fill="url(#radialGradient13215)"/>
    <rect id="rect6325" transform="rotate(179.93)" rx="3.8862" ry="3.8862" height="31.09" width="31.09" y="-32.025" x="-31.875" fill="url(#radialGradient13215)"/>
    <rect id="rect5843" transform="matrix(.90415 .0083759 -.0082899 .91353 30.793 30.721)" rx="3.751" ry="3.7063" height="29.65" filter="url(#filter6551)" width="30.008" y="-30.287" x="-31.12" fill="url(#radialGradient13221)"/>
   </g>
   <path id="path5856" stroke="#1592b1" stroke-width=".32406" fill="#fff" d="m16.691 3.744c-5.5375 0-10.187 3.9995-11.428 9.412l2.3257-1.8415c0.20141 1.1298 0.38863 1.8462 0.60147 2.7761 1.1999-4.2681 4.6816-7.0558 8.5008-7.1138 4.7237 0 8.581 3.9765 8.581 9.0847 0 5.1081-3.8704 9.1256-8.581 9.1256-3.3584 0-6.2898-2.0495-7.699-5.0742-0.1177-0.25263 1.8721-0.33777 1.8108-0.371-0.06124-0.03323-4.0688-2.9671-4.0688-2.9671s-3.0089 3.8722-2.9698 4.0005c0.039069 0.12836 1.9434-0.4392 2.0365-0.19003 1.7134 4.5818 5.9231 7.8346 10.89 7.8346 6.4868 0 11.749-5.5446 11.749-12.358 0-6.8138-5.262-12.318-11.749-12.318z"/>
   <g id="g4182" transform="matrix(.94380 0 0 .91577 26.58 2.8324)">
    <path id="path3019-1" fill-rule="evenodd" fill="#1994b2" d="m-15.152 7.806 0.0893 11.673 2.6458-0.93617-0.26791-11.973c-1.2955-0.029263-2.3309 0.77102-2.4672 1.2363z"/>
    <path id="path3027" fill-rule="evenodd" fill="#1994b2" d="m-12.852 6.5826 7.2827 2.2741 0.1808 13.478-7.189-3.6383z"/>
    <g id="g3051" stroke-width="0" fill="#fff" transform="matrix(.97548 0 0 1.0057 -31.393 -1.9225)">
     <path id="path3031" d="m19.844 8.8438 0.09375 11.5 6.4375 3.3125-0.09375-12.75-6.4375-2.0625z" fill="#fff" fill-rule="evenodd"/>
    </g>
    <path id="path3019-1-4" fill-rule="evenodd" fill="#e6e6e6" d="m-7.6503 10.485 0.26791 12.298c0.48027-0.82389 0.72785-0.72402 1.5295-0.75756l-0.0893-12.464c-0.8642-0.1015-1.244 0.2665-1.7081 0.924z"/>
    <path id="path3017" fill-rule="evenodd" fill="#e6e6e6" d="m-14.853 8.0691c-0.21196 0.25342 1.065-0.95456 2.0538-0.90568l6.6497 2.245c-1.2563 0.09277-1.2456 0.39085-1.8297 1.4065z"/>
    <path id="path3021" fill-rule="evenodd" fill="#1994b2" d="m-14.995 7.7436 7.5975 2.7971 0.0000033 12.598-7.5076-3.7048z"/>
    <path id="path3975" opacity=".4898" d="m-12.368 8.0221 0.0893 11.699" transform="matrix(1 0 0 .97607 -2.398 .29444)" filter="url(#filter3989)" stroke="#fff" stroke-width=".2" fill="#fff"/>
   </g>
  </g>
 </g>
</svg>
