<?xml version="1.0" encoding="UTF-8" standalone="no"?>
<!-- Created with Inkscape (http://www.inkscape.org/) -->
<svg id="svg6289" xmlns:rdf="http://www.w3.org/1999/02/22-rdf-syntax-ns#" xmlns="http://www.w3.org/2000/svg" height="32" width="32" version="1.1" xmlns:cc="http://creativecommons.org/ns#" xmlns:xlink="http://www.w3.org/1999/xlink" xmlns:dc="http://purl.org/dc/elements/1.1/">
 <defs id="defs6291">
  <linearGradient id="linearGradient6307">
   <stop id="stop6309" stop-color="#d5f6ff" offset="0"/>
   <stop id="stop6315" stop-color="#7ac1d2" offset=".51193"/>
   <stop id="stop6311" stop-color="#08a" offset="1"/>
  </linearGradient>
  <filter id="filter6551" color-interpolation-filters="sRGB">
   <feGaussianBlur id="feGaussianBlur6553" stdDeviation="0.90177518"/>
  </filter>
  <radialGradient id="radialGradient13012" xlink:href="#linearGradient6307" gradientUnits="userSpaceOnUse" cy="14.52" cx="7.0513" gradientTransform="matrix(1.1891 1.8655 -1.2258 .78135 -14.393 -48.541)" r="16.454"/>
  <radialGradient id="radialGradient13018" xlink:href="#linearGradient6307" gradientUnits="userSpaceOnUse" cy="14.52" cx="7.0513" gradientTransform="matrix(1.1477 1.7791 -1.1832 .74518 -14.245 -46.039)" r="16.454"/>
 </defs>
 <metadata id="metadata6294">
  <rdf:RDF>
   <cc:Work rdf:about="">
    <dc:format>image/svg+xml</dc:format>
    <dc:type rdf:resource="http://purl.org/dc/dcmitype/StillImage"/>
    <dc:title/>
   </cc:Work>
  </rdf:RDF>
 </metadata>
 <g id="layer1">
  <g id="g10535">
   <g id="g13006" stroke-opacity="0" transform="translate(-.17861 -.35721)">
    <rect id="rect6297" transform="rotate(179.93)" rx="3.8862" ry="3.8862" height="31.09" width="31.09" y="-32.025" x="-31.875" fill="url(#radialGradient13012)"/>
    <rect id="rect6317" transform="rotate(179.93)" rx="3.8862" ry="3.8862" height="31.09" width="31.09" y="-32.025" x="-31.875" fill="url(#radialGradient13012)"/>
    <rect id="rect6325" transform="rotate(179.93)" rx="3.8862" ry="3.8862" height="31.09" width="31.09" y="-32.025" x="-31.875" fill="url(#radialGradient13012)"/>
    <rect id="rect5843" transform="matrix(.90415 .0083759 -.0082899 .91353 30.793 30.721)" rx="3.751" ry="3.7063" height="29.65" filter="url(#filter6551)" width="30.008" y="-30.287" x="-31.12" fill="url(#radialGradient13018)"/>
   </g>
   <g id="g10473" transform="translate(-5.4402 -10.449)">
    <rect id="rect7892" height="16.789" width="19.647" stroke="#2b9cb9" y="18.158" x="11.788" stroke-width=".25" fill="#fff"/>
    <path id="path10189" d="m16.102 20.996c0.000749 0.02598 0.58222-0.01408 0.59204-0.0084 0.07873 0.04554 0.06487 0.24412 0.07667 0.13502 0.1716-0.10138 0.1849 0.0093 0.31701 0.06754 0.03614 0.01592 0.15201-0.000553 0.16977-0.002 0.19887-0.02975 0.39679-0.03026 0.59678-0.023 0.06251 0.02211 0.2162-0.02622 0.26974-0.000045 0.14278 0.06981 0.01714 0.13691 0.20813 0.12307 0.07936 0.05088 0.1493 0.09758 0.24577 0.08419 0.02543-0.0035 0.05022-0.02206 0.07526-0.01638 0.03868 0.0088 0.06862 0.03995 0.10437 0.05712 0.02997 0.01439 0.06163 0.02494 0.09245 0.03741 0.1755 0.01186 0.34747-0.02754 0.52498-0.02289 0.17856 0.0098 0.3574 0.0057 0.5361 0.0045 0.22031-0.0025 0.44049 0.0029 0.66073 0.0071 0.19315-0.0029 0.38597-0.0092 0.57914-0.0072 0.18241 0.0016 0.36483 0.000416 0.54724 0.000309 0.17838 0.000108 0.35676 0.000139 0.53514 0.000112 0.21506-0.0016 0.42991 0.0048 0.64496 0.0017 0.20108 0.0041 0.40211-0.0028 0.6032-0.0023 0.17961 0.0012 0.35922 0.000763 0.53883 0.000604l-1.0653 0.77398c-0.18016-0.00016-0.36033-0.000602-0.54049 0.000604-0.19897 0.000515-0.39787-0.0065-0.59683-0.0023-0.21658-0.0033-0.43298 0.0034-0.64957 0.0017-0.17848-0.000026-0.35697 0.000005-0.53545 0.000111-0.18271-0.000108-0.36542-0.0012-0.54812 0.00031-0.18662 0.0018-0.37287-0.0039-0.55947-0.0071-0.22626 0.0041-0.45243 0.0083-0.67875 0.007-0.17884 0.0011-0.35756-0.0013-0.53635-0.0047-0.18499 0.0066-0.37264 0.05069-0.55136-0.0194-0.16492-0.0629-0.34777-0.04397-0.5018-0.14527-0.23691-0.08751-0.06849-0.0041-0.18145-0.09394-0.03992-0.03176-0.23247 0.01208-0.2902-0.0064-0.19588-0.0046-0.39065 0.0083-0.58631 0.01677-0.20065-0.01977-0.12404-0.02308-0.27685-0.08413-0.03464-0.01384-0.15252 0.0026-0.15749 0.0022-0.03663-0.0029-0.07151-0.01699-0.10726-0.02549-0.02467-0.02758-0.0553-0.05082-0.07402-0.08274-0.03572-0.06092 0.07339-0.01251 0.05022-0.0055-0.03273 0.0099-0.0682-0.0054-0.10238-0.0067-0.20979-0.0083-0.23468-0.0045-0.46653-0.0017l1.0375-0.75376z" fill="#1391b0"/>
    <path id="path10191" d="m16.008 24.448c0.40431 0.04796 0.81989 0.11035 1.2277 0.05612 0.03234-0.0043 0.06058-0.02475 0.09216-0.03292 0.08234-0.02132 0.16056-0.0075 0.24573-0.0038 0.28162 0.006 0.56276 0.01171 0.84422-0.000638 0.16775 0.18251 0.29519 0.11159 0.50867 0.08492 0.10184-0.01238 0.20545 0.01969 0.30704 0.007 0.13224-0.01646 0.25716-0.07275 0.38897-0.09237 0.17998-0.02679 0.23246-0.01564 0.41932-0.0088 0.51788 0.03393 1.0379 0.04232 1.5564 0.02085 0.27633-0.0065 0.55268-0.0055 0.82903-0.0096 0.17324-0.0021 0.34649-0.000295 0.51974-0.000206 0.19199-0.000078 0.38394-0.0018 0.57587 0.0032 0.1895 0.0022 0.37897-0.000692 0.56846 0.000848 0.05504 0.000448 0.11072-0.0068 0.1651 0.0017 0.07799 0.01213 0.15277 0.03976 0.22915 0.05964 0.33163 0.10337 0.67291 0.04674 1.0098 0.014 0.16255 0.01218 0.32525 0.01253 0.4882 0.01055 0.27389 0.0032 0.54789 0.0053 0.82179 0.0019l-1.0583 0.76879c-0.27557-0.004-0.55134-0.0035-0.82685 0.0031-0.16213 0.000402-0.32424-0.0051-0.48628-0.002-0.33448 0.01177-0.67353 0.04125-0.9981-0.06414-0.32184-0.04178-0.64469-0.02671-0.96896-0.02714-0.19489 0.0048-0.3898 0.0035-0.58475 0.0032-0.17333-0.000065-0.34665 0.0015-0.51997 0.000448-0.2664-0.0041-0.53266-0.01037-0.79912-0.01029-0.5194-0.01107-1.0396 0.01527-1.5587-0.02103-0.3827 0.01402-0.74997 0.11744-1.1331 0.12652-0.13934 0.01607-0.26464 0.02668-0.39592-0.0346-0.02842-0.01327-0.05276-0.03434-0.08129-0.04737-0.01415-0.0065-0.03031-0.007-0.04547-0.0105-0.27341-0.0068-0.54679-0.02274-0.82044-0.0132-0.08564 0.0089-0.1705 0.02934-0.2566 0.02968-0.1047 0.000417-0.20834-0.02173-0.31285-0.02811-1.2071-0.07369 0.31005 0.02561-0.97943-0.06032l1.0287-0.72531z" fill="#1391b0"/>
    <path id="path10193" d="m15.834 27.694c0.61601 0.02687 1.232 0.0031 1.848-0.00042 0.2078-0.0487 0.37276 0.0606 0.56546 0.10032 0.12071 0.02488 0.23 0.01015 0.3477-0.01575 0.20224-0.02508 0.40956-0.0029 0.61389-0.0032 0.41372 0.01234 0.82756 0.0047 1.2414 0.01251 0.39929-0.0021 0.79874-0.0014 1.1979-0.01238 0.19769-0.00067 0.39549-0.000878 0.59326-0.0023 0.40927 0.0188 0.81883 0.01069 1.2284 0.01059 0.21121-0.0055 0.42251-0.01216 0.63382-0.01099 0.19398 0.002 0.38793-0.000765 0.58186 0.0041 0.38546 0.01803 0.77134 0.0083 1.1569-0.002 0.16522-0.005 0.33053-0.0012 0.49579-0.000905 0.21579-0.0021 0.43139 0.0044 0.64717 0.0013 0.05211 0.02436 0.11855-0.0243 0.17133-0.0025 0.03738 0.01546 0.06061 0.05489 0.09646 0.07362 0.11126 0.05814 0.23518 0.05198 0.35488 0.04071 0.1693-0.0519 0.34331-0.02803 0.51663-0.0224 0.17926 0.000511 0.35849-0.0027 0.53777-0.0022 0.11911 0.000407 0.05953 0.000242 0.17874 0.000494 0 0-1.0653 0.77369-1.0653 0.77369-0.11922-0.000213-0.05965-0.000145-0.1787-0.000204-0.17984 0.000471-0.35972 0.004-0.53952-0.0015-0.17131-0.0049-0.33922 0.0076-0.50961 0.02225-0.11526-0.01011-0.14116-0.0071-0.25854-0.04182-0.12844-0.03799-0.22702-0.08856-0.36474-0.06958-0.21696-0.0033-0.43376 0.0035-0.65073 0.0013-0.16443 0.000277-0.32892 0.0042-0.4933-0.000905-0.38366-0.01107-0.76763-0.0194-1.1513-0.002-0.19774 0.0047-0.39548 0.0023-0.59326 0.0041-0.20123 0.0011-0.40245-0.005-0.60356-0.01099-0.41927-0.000103-0.83852-0.0078-1.2575 0.0106-0.19563-0.0014-0.39129-0.0017-0.58683-0.0024-0.38772-0.01133-0.77576-0.0095-1.1636-0.01268-0.42797 0.0072-0.85602 0.0012-1.2838 0.01565-0.20074-0.0072-0.40184-0.01992-0.60095 0.01634-0.3355 0.0094-0.5661-0.14985-0.89662-0.11636-0.61564-0.0036-1.2312-0.02716-1.8469-0.000421l1.0375-0.75375z" fill="#1391b0"/>
    <path id="path10195" d="m15.648 31.122c0.99006-0.08062 1.9842-0.01597 2.9756 0.001 0.76325-0.0084 1.5288 0.000654 2.2912-0.04446 0.06876-0.02843 0.1827 0.03108 0.24876-0.002 0.12924-0.06473-0.01501-0.08752 0.15145-0.11231 0.06157-0.0092 0.12449 0.0012 0.18673 0.0018 0.29512-0.0089 0.5953 0.06306 0.89014 0.04042 0.15901-0.01221 0.30964-0.07881 0.46739-0.10218 0.07831-0.0116 0.15778-0.01321 0.23667-0.01982 0.32265 0.05036 0.6407-0.15293 0.95998-0.07728 0.16666 0.01679 0.33568 0.002 0.50319 0.000607 0.12976-0.001 0.25931 0.0072 0.38906 0.0082 0.05253 0.000387 0.10621-0.01231 0.1576-0.0014 0.04101 0.0087 0.17052 0.08581 0.21633 0.11209 0.11955 0.15 0.16302 0.10698 0.33335 0.08279 0.04582-0.0065 0.09199-0.02627 0.1376-0.01845 0.03777 0.0065 0.06578 0.03932 0.09867 0.05898 0.01947 0.01909 0.03334 0.04657 0.05842 0.05728 0.05802 0.02478 0.12622-0.0012 0.18919-0.005 0.15147-0.009 0.30129-0.02273 0.45302-0.02666 0.24905 0.0034 0.49786 0.0077 0.74685 0.000976 0.21126 0.00076 0.42224 0.0046 0.63355 0.000759 0.14761-0.0024 0.13031-0.03492 0.22872 0.08968l-1.1346 0.68336c-0.05052 0.000937-0.10805 0.0029-0.15904 0.000494-0.21206-0.0046-0.42382-0.0022-0.63585 0.0022-0.24277-0.0034-0.48556-0.01887-0.72834-0.009-0.24246 0.01356-0.54108 0.08449-0.75244-0.06638-0.09832-0.01812-0.0025-0.0047-0.18479 0.007-0.16455 0.01055-0.27298-0.01904-0.38769-0.14015-0.2213-0.12299-0.4803-0.05069-0.72328-0.0622-0.17457 0.0024-0.35105 0.01633-0.52406-0.01326-0.30321-0.01687-0.59806 0.09804-0.90225 0.07832-0.23111 0.0304-0.46517 0.09025-0.69877 0.09566-0.30112 0.007-0.60397-0.04378-0.905-0.0044-0.05875 0.01554-0.11749 0.03107-0.17624 0.04661-0.0295 0.01556-0.05698 0.03577-0.08849 0.04669-0.11147 0.03865-0.23182 0.01376-0.34642 0.0162-0.72594-0.06292-1.4594-0.0066-2.1865-0.0319-0.51863-0.000568-0.6775 0.0014-1.1815-0.007-0.62069-0.0103-1.2469-0.0379-1.8597 0.08612l1.0215-0.7734z" fill="#1391b0"/>
   </g>
  </g>
 </g>
</svg>
