<?xml version="1.0" encoding="UTF-8" standalone="no"?>
<!-- Created with Inkscape (http://www.inkscape.org/) -->
<svg id="svg6289" xmlns:rdf="http://www.w3.org/1999/02/22-rdf-syntax-ns#" xmlns="http://www.w3.org/2000/svg" height="32" width="32" version="1.1" xmlns:cc="http://creativecommons.org/ns#" xmlns:xlink="http://www.w3.org/1999/xlink" xmlns:dc="http://purl.org/dc/elements/1.1/">
 <defs id="defs6291">
  <linearGradient id="linearGradient6307">
   <stop id="stop6309" stop-color="#d5f6ff" offset="0"/>
   <stop id="stop6315" stop-color="#7ac1d2" offset=".51193"/>
   <stop id="stop6311" stop-color="#08a" offset="1"/>
  </linearGradient>
  <filter id="filter6551" color-interpolation-filters="sRGB">
   <feGaussianBlur id="feGaussianBlur6553" stdDeviation="0.90177518"/>
  </filter>
  <radialGradient id="radialGradient13012" xlink:href="#linearGradient6307" gradientUnits="userSpaceOnUse" cy="14.52" cx="7.0513" gradientTransform="matrix(1.1891 1.8655 -1.2258 .78135 -14.393 -48.541)" r="16.454"/>
  <radialGradient id="radialGradient13018" xlink:href="#linearGradient6307" gradientUnits="userSpaceOnUse" cy="14.52" cx="7.0513" gradientTransform="matrix(1.1477 1.7791 -1.1832 .74518 -14.245 -46.039)" r="16.454"/>
 </defs>
 <metadata id="metadata6294">
  <rdf:RDF>
   <cc:Work rdf:about="">
    <dc:format>image/svg+xml</dc:format>
    <dc:type rdf:resource="http://purl.org/dc/dcmitype/StillImage"/>
    <dc:title/>
   </cc:Work>
  </rdf:RDF>
 </metadata>
 <g id="layer1">
  <g id="g3301">
   <g id="g13006" stroke-opacity="0" transform="translate(-.17861 -.35721)">
    <rect id="rect6297" transform="rotate(179.93)" rx="3.8862" ry="3.8862" height="31.09" width="31.09" y="-32.025" x="-31.875" fill="url(#radialGradient13012)"/>
    <rect id="rect6317" transform="rotate(179.93)" rx="3.8862" ry="3.8862" height="31.09" width="31.09" y="-32.025" x="-31.875" fill="url(#radialGradient13012)"/>
    <rect id="rect6325" transform="rotate(179.93)" rx="3.8862" ry="3.8862" height="31.09" width="31.09" y="-32.025" x="-31.875" fill="url(#radialGradient13012)"/>
    <rect id="rect5843" transform="matrix(.90415 .0083759 -.0082899 .91353 30.793 30.721)" rx="3.751" ry="3.7063" height="29.65" filter="url(#filter6551)" width="30.008" y="-30.287" x="-31.12" fill="url(#radialGradient13018)"/>
   </g>
   <g id="g4706" stroke-linejoin="round">
    <path id="rect3961" stroke="#1290b0" stroke-width=".17842" fill="#fff" d="m19.615 4.2568 7.8593-0.53835v5.72l-7.9575-1.4805z"/>
    <path id="path3964" stroke="#1290b0" stroke-width=".17842" fill="#fff" d="m19.03 9.318 7.413 1.8676-3.648 5.1453-6.2138-3.713z"/>
    <path id="path3966" stroke="#1290b0" stroke-width=".17842" fill="#fff" d="m15.21 13.913 5.7818 3.686-5.1884 2.971-4.7147-4.2626z"/>
    <path id="rect4020" stroke="#1d859f" stroke-width=".17842" fill="#1d859f" d="m3.4242 21.333 0.99265-0.09282 5.6388 6.9899-1.06 0.08101z"/>
    <path id="path4026" stroke="#1290b0" stroke-width=".15535" fill="#fff" d="m9.8713 17.247 4.5318 4.1778-1.5358 2.9176-3.7766-0.46886-1.4864-3.3197z"/>
   </g>
  </g>
 </g>
</svg>
