<?xml version="1.0" encoding="UTF-8" standalone="no"?>
<!-- Created with Inkscape (http://www.inkscape.org/) -->
<svg id="svg6289" xmlns:rdf="http://www.w3.org/1999/02/22-rdf-syntax-ns#" xmlns="http://www.w3.org/2000/svg" height="32" width="32" version="1.1" xmlns:cc="http://creativecommons.org/ns#" xmlns:xlink="http://www.w3.org/1999/xlink" xmlns:dc="http://purl.org/dc/elements/1.1/">
 <defs id="defs6291">
  <linearGradient id="linearGradient6307">
   <stop id="stop6309" stop-color="#d5f6ff" offset="0"/>
   <stop id="stop6315" stop-color="#7ac1d2" offset=".51193"/>
   <stop id="stop6311" stop-color="#08a" offset="1"/>
  </linearGradient>
  <filter id="filter6551" color-interpolation-filters="sRGB">
   <feGaussianBlur id="feGaussianBlur6553" stdDeviation="0.90177518"/>
  </filter>
  <radialGradient id="radialGradient13012" xlink:href="#linearGradient6307" gradientUnits="userSpaceOnUse" cy="14.52" cx="7.0513" gradientTransform="matrix(1.1891 1.8655 -1.2258 .78135 -14.393 -48.541)" r="16.454"/>
  <radialGradient id="radialGradient13018" xlink:href="#linearGradient6307" gradientUnits="userSpaceOnUse" cy="14.52" cx="7.0513" gradientTransform="matrix(1.1477 1.7791 -1.1832 .74518 -14.245 -46.039)" r="16.454"/>
  <filter id="filter4105" color-interpolation-filters="sRGB">
   <feGaussianBlur id="feGaussianBlur4107" stdDeviation="0.05171875"/>
  </filter>
  <filter id="filter4318" width="4.312" y="-.12938" x="-1.656" height="1.2588" color-interpolation-filters="sRGB">
   <feGaussianBlur id="feGaussianBlur4320" stdDeviation="0.3234375"/>
  </filter>
  <radialGradient id="radialGradient3463" gradientUnits="userSpaceOnUse" cy="6.0571" cx="-37.994" gradientTransform="matrix(1 0 0 .97411 0 .20429)" r="4.8281">
   <stop id="stop4070" stop-color="#fff" offset="0"/>
   <stop id="stop4072" stop-color="#ccc" stop-opacity="0" offset="1"/>
  </radialGradient>
 </defs>
 <metadata id="metadata6294">
  <rdf:RDF>
   <cc:Work rdf:about="">
    <dc:format>image/svg+xml</dc:format>
    <dc:type rdf:resource="http://purl.org/dc/dcmitype/StillImage"/>
    <dc:title/>
   </cc:Work>
  </rdf:RDF>
 </metadata>
 <g id="layer1">
  <g id="g18258">
   <g id="g13006" stroke-opacity="0" transform="translate(-.17861 -.35721)">
    <rect id="rect6297" transform="rotate(179.93)" rx="3.8862" ry="3.8862" height="31.09" width="31.09" y="-32.025" x="-31.875" fill="url(#radialGradient13012)"/>
    <rect id="rect6317" transform="rotate(179.93)" rx="3.8862" ry="3.8862" height="31.09" width="31.09" y="-32.025" x="-31.875" fill="url(#radialGradient13012)"/>
    <rect id="rect6325" transform="rotate(179.93)" rx="3.8862" ry="3.8862" height="31.09" width="31.09" y="-32.025" x="-31.875" fill="url(#radialGradient13012)"/>
    <rect id="rect5843" transform="matrix(.90415 .0083759 -.0082899 .91353 30.793 30.721)" rx="3.751" ry="3.7063" height="29.65" filter="url(#filter6551)" width="30.008" y="-30.287" x="-31.12" fill="url(#radialGradient13018)"/>
   </g>
   <g id="g4756" transform="matrix(1.3534 0 0 1.3213 -1.5408 -2.2355)">
    <path id="path3294" d="m11.465 5.8355c-3.0332 0-5.4687 2.3845-5.4687 5.3438 0 2.9592 2.4355 5.375 5.4687 5.375s5.5-2.4158 5.5-5.375-2.4668-5.3438-5.5-5.3438zm0 0.6875c2.6655 0 4.8125 2.087 4.8125 4.6563s-2.1518 4.6875-4.8125 4.6875-4.7812-2.1133-4.7812-4.6875 2.1158-4.6563 4.7812-4.6563z" fill="#1d97b5"/>
    <path id="path4076" transform="translate(47.688 3.3125)" fill="url(#radialGradient3463)" d="m-36.312 3.1875c-2.683 0-4.8125 2.0949-4.8125 4.6875s2.134 4.7188 4.8125 4.7188 4.8438-2.1308 4.8438-4.7188c0-2.5879-2.1607-4.6875-4.8438-4.6875z"/>
    <path id="path4095" filter="url(#filter4105)" transform="translate(-.17861 -.089303)" fill="#fff" d="m11.469 6.0938c-2.9072 0-5.219 2.2667-5.219 5.0942 0 2.827 2.3135 5.125 5.2188 5.125s5.25-2.2997 5.25-5.125-2.3431-5.0938-5.25-5.0938zm0 0.1875c2.7913 0 5.0625 2.2027 5.0625 4.9062 0 2.7038-2.2739 4.9375-5.0625 4.9375-2.7883 0-5.0312-2.2309-5.0312-4.9375 0-2.7063 2.2403-4.9062 5.0312-4.9062z"/>
    <g id="g4322" transform="matrix(.81804 -.77992 .76392 .83517 8.9371 -17.473)">
     <rect id="rect4220" height="6.6977" width="1.1609" y="24.499" x="-16.164" fill="#1e96b4"/>
     <path id="path4224" filter="url(#filter4318)" fill="#fff" d="m-15.812 24.844v6h0.46875v-6h-0.46875z"/>
    </g>
   </g>
   <text id="text3465" style="word-spacing:0px;letter-spacing:0px" font-family="Arial" xml:space="preserve" font-size="10px" line-height="125%" y="15.836114" x="11.341512" font-weight="bold" fill="#2298b6"><tspan id="tspan3467" y="15.836114" x="11.341512">$</tspan></text>
  </g>
 </g>
</svg>
