<?xml version="1.0" encoding="UTF-8" standalone="no"?>
<!-- Created with Inkscape (http://www.inkscape.org/) -->
<svg id="svg6289" xmlns:rdf="http://www.w3.org/1999/02/22-rdf-syntax-ns#" xmlns="http://www.w3.org/2000/svg" height="32" width="32" version="1.1" xmlns:cc="http://creativecommons.org/ns#" xmlns:xlink="http://www.w3.org/1999/xlink" xmlns:dc="http://purl.org/dc/elements/1.1/">
 <defs id="defs6291">
  <linearGradient id="linearGradient6307">
   <stop id="stop6309" stop-color="#d5f6ff" offset="0"/>
   <stop id="stop6315" stop-color="#7ac1d2" offset=".51193"/>
   <stop id="stop6311" stop-color="#08a" offset="1"/>
  </linearGradient>
  <filter id="filter6551" color-interpolation-filters="sRGB">
   <feGaussianBlur id="feGaussianBlur6553" stdDeviation="0.90177518"/>
  </filter>
  <radialGradient id="radialGradient10410" xlink:href="#linearGradient6307" gradientUnits="userSpaceOnUse" cy="14.52" cx="7.0513" gradientTransform="matrix(1.1891 1.8655 -1.2258 .78135 -14.393 -48.541)" r="16.454"/>
  <radialGradient id="radialGradient10416" xlink:href="#linearGradient6307" gradientUnits="userSpaceOnUse" cy="14.52" cx="7.0513" gradientTransform="matrix(1.1477 1.7791 -1.1832 .74518 -14.245 -46.039)" r="16.454"/>
 </defs>
 <metadata id="metadata6294">
  <rdf:RDF>
   <cc:Work rdf:about="">
    <dc:format>image/svg+xml</dc:format>
    <dc:type rdf:resource="http://purl.org/dc/dcmitype/StillImage"/>
    <dc:title/>
   </cc:Work>
  </rdf:RDF>
 </metadata>
 <g id="layer1">
  <g id="g10395" transform="translate(.98234 .089303)">
   <g id="g13006" stroke-opacity="0" transform="translate(-1.1682 -.53532)">
    <rect id="rect6297" transform="rotate(179.93)" rx="3.8862" ry="3.8862" height="31.09" width="31.09" y="-32.025" x="-31.875" fill="url(#radialGradient10410)"/>
    <rect id="rect6317" transform="rotate(179.93)" rx="3.8862" ry="3.8862" height="31.09" width="31.09" y="-32.025" x="-31.875" fill="url(#radialGradient10410)"/>
    <rect id="rect6325" transform="rotate(179.93)" rx="3.8862" ry="3.8862" height="31.09" width="31.09" y="-32.025" x="-31.875" fill="url(#radialGradient10410)"/>
    <rect id="rect5843" transform="matrix(.90415 .0083759 -.0082899 .91353 30.793 30.721)" rx="3.751" ry="3.7063" height="29.65" filter="url(#filter6551)" width="30.008" y="-30.287" x="-31.12" fill="url(#radialGradient10416)"/>
   </g>
   <g id="g9907" transform="translate(-.89303 -.17861)">
    <g id="g3387" transform="translate(51.552 -1.569)">
     <path id="path8803-1-6" stroke="#fff" stroke-width="1px" fill="#fff" d="m-40.853 25.3-1.7861-6.5191 14.289 0.1786-1.6075 6.2512"/>
     <path id="path8813-1-1" transform="matrix(1.0992 0 0 2.5936 -52.976 -33.954)" fill="#fff" stroke-opacity="0" d="m15.938 21.969c-1.9558 0-3.7217 0.26054-4.875 0.625-0.26606 0.08408-0.34101 0.16322-0.53125 0.25 0.19024 0.08678 0.26518 0.16592 0.53125 0.25 1.1533 0.36446 2.9192 0.625 4.875 0.625s3.7437-0.2597 4.9062-0.625c0.2682-0.08427 0.33892-0.16285 0.53125-0.25-0.19233-0.08715-0.26304-0.16573-0.53125-0.25-1.1626-0.3653-2.9504-0.625-4.9062-0.625z"/>
     <path id="path8293-2-3" transform="matrix(1.0317 0 0 1.0615 -51.923 -5.9144)" fill="#fff" stroke-opacity="0" d="m23.487 22.846a7.5461 2.3665 0 1 1 -15.092 0 7.5461 2.3665 0 1 1 15.092 0z"/>
     <path id="path8825-5-4" transform="matrix(1.023 0 0 1.0615 -51.774 -5.8402)" fill="#87cdde" stroke-opacity="0" d="m15.938 20.875c-2.0482 0-3.8837 0.27548-5.1875 0.6875-0.65189 0.20601-1.1778 0.44709-1.5 0.6875-0.32216 0.24041-0.4375 0.44595-0.4375 0.59375s0.11534 0.35334 0.4375 0.59375 0.84811 0.48149 1.5 0.6875c1.3038 0.41202 3.1393 0.6875 5.1875 0.6875s3.9067-0.27525 5.2188-0.6875c0.656-0.20613 1.1749-0.44671 1.5-0.6875 0.32515-0.24079 0.4375-0.44762 0.4375-0.59375s-0.11235-0.35296-0.4375-0.59375-0.844-0.48137-1.5-0.6875c-1.313-0.412-3.171-0.687-5.219-0.687z"/>
    </g>
    <text id="text8259" style="word-spacing:0px;letter-spacing:0px" transform="scale(1.0317 .96926)" xml:space="preserve" font-size="16.748px" y="17.812933" x="9.2967882" font-family="Sans" line-height="125%" fill="#1993b2"><tspan id="tspan8261" y="17.812933" x="9.2967882">C</tspan></text>
   </g>
  </g>
 </g>
</svg>
