<?xml version="1.0" standalone="no"?>
<!DOCTYPE svg PUBLIC "-//W3C//DTD SVG 1.1//EN" "http://www.w3.org/Graphics/SVG/1.1/DTD/svg11.dtd" >
<svg>
<metadata>
Created by FontForge 20090914 at Fri Jul  1 20:31:46 2011
 By www-data
Copyright (c) 2011 by Pablo Impallari. www.impallari.com Igino Marini. www.ikern.com. All rights reserved.
</metadata>
<defs>
<font id="Cabin-SemiBold" horiz-adv-x="234" >
  <font-face 
    font-family="Cabin"
    font-weight="600"
    font-stretch="normal"
    units-per-em="1000"
    panose-1="2 11 8 3 5 2 2 2 0 4"
    ascent="800"
    descent="-200"
    x-height="497"
    cap-height="700"
    bbox="-34.001 -250.001 1170 957.999"
    underline-thickness="50"
    underline-position="-50"
    unicode-range="U+0020-U+2122"
  />
<missing-glyph horiz-adv-x="250" 
d="M174 243h-114v124h114v-124z" />
    <glyph glyph-name=".notdef" horiz-adv-x="250" 
d="M174 243h-114v124h114v-124z" />
    <glyph glyph-name="space" unicode=" " horiz-adv-x="225" 
 />
    <glyph glyph-name="exclam" unicode="!" horiz-adv-x="248" 
d="M186 750l-23 -550h-78l-23 550h124zM180 0h-112v112h112v-112z" />
    <glyph glyph-name="quotedbl" unicode="&#x22;" horiz-adv-x="399" 
d="M361 750l-20 -300h-74l-20 300h114zM153 750l-20 -300h-75l-20 300h115z" />
    <glyph glyph-name="numbersign" unicode="#" horiz-adv-x="704" 
d="M674 510l-32 -94h-115l-39 -103h126l-46 -100h-119l-84 -224h-92l85 224h-118l-86 -224h-90l85 224h-119l44 100h113l39 103h-122l31 94h127l74 190h90l-73 -190h120l73 190h89l-72 -190h111zM437 416h-119l-41 -103h120z" />
    <glyph glyph-name="dollar" unicode="$" horiz-adv-x="520" 
d="M293 81l16.001 -113h-101l16 112c-78.667 4 -137 17 -175 39l15 121c46 -40.667 108.333 -61 187 -61c70 0 105 18.667 105 56c0 19.333 -10.833 35.833 -32.5 49.5s-48 25 -79 34s-62 18.833 -93 29.5s-57.333 26.667 -79 48s-32.5 47.333 -32.5 78
c0 38.667 14.667 73.167 44 103.5s76 48.5 140 54.5l-16 116h101l-16 -116c69.333 -4 122.666 -16.667 159.999 -38l-10 -108c-68 34 -125 51 -171 51c-76.667 0 -115 -17 -115 -51c0 -15.333 8.16699 -28.5 24.5 -39.5s36.5 -19.5 60.5 -25.5s50.333 -13.667 79 -23
s55 -19.5 79 -30.5s44.167 -27.833 60.5 -50.5s24.5 -49.667 24.5 -81c0 -16 -2.5 -31.5 -7.5 -46.5s-13.833 -30.5 -26.5 -46.5s-32.5 -29.5 -59.5 -40.5s-59.833 -18.167 -98.5 -21.5z" />
    <glyph glyph-name="percent" unicode="%" horiz-adv-x="840" 
d="M653 -10c-44.667 0 -80.833 16.501 -108.5 49.501s-41.5 77.167 -41.5 132.5c0 57.333 14.833 103.166 44.5 137.499s66.5 51.5 110.5 51.5s79.833 -16.333 107.5 -49s41.5 -76.667 41.5 -132c0 -58 -14 -104.167 -42 -138.5s-65.333 -51.5 -112 -51.5zM667.001 700.001
l-421 -712h-95l421 712h95zM182.001 334.001c-44.667 0 -80.667 16.501 -108 49.501s-41 77.167 -41 132.5c0 56.667 14.667 102.167 44 136.5s66 51.5 110 51.5c43.333 0 79 -16.333 107 -49s42 -76.334 42 -131.001c0 -58 -14.167 -104.167 -42.5 -138.5
s-65.5 -51.5 -111.5 -51.5zM656.001 296.002c-23.333 0 -42.833 -10.667 -58.5 -32s-23.5 -52 -23.5 -92c0 -38.667 7.16699 -67.667 21.5 -87s33.5 -29 57.5 -29c25.333 0 45.333 10.333 60 31s22 51.667 22 93c0 37.333 -7.5 66 -22.5 86s-33.833 30 -56.5 30z
M186.001 639.002c-22 0 -40.834 -10.833 -56.501 -32.5s-23.5 -51.834 -23.5 -90.501c0 -37.333 7.16699 -65.666 21.5 -84.999s32.833 -29 55.5 -29c24 0 43.5 10.333 58.5 31s22.5 51 22.5 91c0 36.667 -7.66699 65 -23 85s-33.666 30 -54.999 30z" />
    <glyph glyph-name="ampersand" unicode="&#x26;" horiz-adv-x="621" 
d="M614 0l-127.999 0.00195312l-35 38c-49.333 -41.333 -111 -62 -185 -62c-77.333 0 -135.5 18 -174.5 54s-58.5 81.333 -58.5 136c0 73.333 41 140.333 123 201c-50 62 -75 118.667 -75 170c0 50.667 19.667 91 59 121s86.666 45 141.999 45
c49.333 0 87.333 -12.5 114 -37.5s40 -58.5 40 -100.5c0 -40.667 -13 -75.834 -39 -105.501s-62.667 -60.834 -110 -93.501l155 -171c11.333 32 18 84.333 20 157h107c-2 -96.667 -20 -176 -54 -238zM274.001 613.002c-24.667 0 -44.833 -6.83398 -60.5 -20.501
s-23.5 -33.5 -23.5 -59.5c0 -31.333 16.333 -67.666 49 -108.999c34 25.333 58.833 46.833 74.5 64.5s23.5 38.167 23.5 61.5c0 42 -21 63 -63 63zM394.002 105.001l-184 199c-40.667 -37.333 -61 -80 -61 -128c0 -32.667 10 -59.667 30 -81s53 -32 99 -32
c49.333 0 88 14 116 42z" />
    <glyph glyph-name="quotesingle" unicode="'" horiz-adv-x="194" 
d="M155 750l-19 -300h-78l-19 300h116z" />
    <glyph glyph-name="parenleft" unicode="(" horiz-adv-x="272" 
d="M249 -136l-102 0.00195312c-35.333 58.667 -61.833 122.167 -79.5 190.5s-26.5 152.5 -26.5 252.5s8.83301 184.167 26.5 252.5s44.167 131.833 79.5 190.5h102c-77.333 -132.667 -116 -280.334 -116 -443.001s38.667 -310.334 116 -443.001z" />
    <glyph glyph-name="parenright" unicode=")" horiz-adv-x="272" 
d="M125 -136l-102 -0.00195312c77.333 132.667 116 280.334 116 443.001s-38.667 310.334 -116 443.001h102c35.333 -58.667 61.833 -122.167 79.5 -190.5s26.5 -152.5 26.5 -252.5s-8.83301 -184.167 -26.5 -252.5s-44.167 -131.833 -79.5 -190.5z" />
    <glyph glyph-name="asterisk" unicode="*" horiz-adv-x="441" 
d="M312 417l-90 135l-90 -138l-56 54l117 99l-160 57l39 69l138 -101l-28 157h79l-30 -157l139 101l39 -70l-158 -54l117 -98z" />
    <glyph glyph-name="plus" unicode="+" horiz-adv-x="462" 
d="M416 232h-140v-130h-90v130h-140v92h140v128h90v-128h140v-92z" />
    <glyph glyph-name="comma" unicode="," horiz-adv-x="227" 
d="M172 0l-92 -110l-25 14l33 86l-33 10v116h117v-116z" />
    <glyph glyph-name="hyphen" unicode="-" horiz-adv-x="420" 
d="M365 232h-310v92h310v-92z" />
    <glyph glyph-name="period" unicode="." horiz-adv-x="224" 
d="M169 0h-114v116h114v-116z" />
    <glyph glyph-name="slash" unicode="/" horiz-adv-x="544" 
d="M511 700l-369 -785h-124l369 785h124z" />
    <glyph glyph-name="zero" unicode="0" horiz-adv-x="708" 
d="M348 -14c-86 0 -155.498 32.333 -208.498 97s-79.5 150 -79.5 256c0 110 28.667 200 86 270s128.666 105 213.999 105c83.333 0 152.166 -33.333 206.499 -100s81.5 -152.667 81.5 -258c0 -111.333 -27.5 -200.833 -82.5 -268.5s-127.5 -101.5 -217.5 -101.5z
M358.002 609c-49.333 0 -91.334 -23.333 -126.001 -70s-52 -113.334 -52 -200.001c0 -82 15.5 -143.667 46.5 -185s72.167 -62 123.5 -62c54.667 0 98.334 21.833 131.001 65.5s49 109.834 49 198.501c0 80.667 -16.5 143 -49.5 187s-73.833 66 -122.5 66z" />
    <glyph glyph-name="one" unicode="1" horiz-adv-x="365" 
d="M267 0h-119.999v533c-30 -22 -61 -36.667 -93 -44l-12 102c24 6 49.667 19.833 77 41.5s46.666 44.167 57.999 67.5h90v-700z" />
    <glyph glyph-name="two" unicode="2" horiz-adv-x="529" 
d="M472 0l-423.999 0.000976562c118 169.333 195 288.5 231 357.5s54 119.5 54 151.5c0 32.667 -9.33301 58.167 -28 76.5s-44.334 27.5 -77.001 27.5c-60.667 0 -114.334 -34.333 -161.001 -103l-15 106c12 22 35.833 43.833 71.5 65.5s79.167 32.5 130.5 32.5
c66.667 0 115.334 -18.833 146.001 -56.5s46 -81.834 46 -132.501c0 -46 -14.833 -100.667 -44.5 -164s-79.167 -146.333 -148.5 -249h219v-112z" />
    <glyph glyph-name="three" unicode="3" horiz-adv-x="543" 
d="M227 -14c-40.667 0 -80.167 6.33203 -118.5 18.999s-61.833 24.334 -70.5 35.001l29 108c44.667 -34 96.667 -51 156 -51c40 0 73.333 8.83301 100 26.5s40 47.167 40 88.5c0 37.333 -10 67.166 -30 89.499s-56.667 33.5 -110 33.5h-85l11 92h43c96 0 144 33 144 99
c0 58 -36 87 -108 87c-56 0 -98.333 -12 -127 -36l-19 91c11.333 11.333 31.5 21.833 60.5 31.5s61.833 14.5 98.5 14.5c42 0 78.167 -5.83301 108.5 -17.5s52.833 -27.334 67.5 -47.001s25 -39.167 31 -58.5s9 -39.666 9 -60.999c0 -59.333 -24.667 -106.666 -74 -141.999
c66 -32.667 99 -90 99 -172c0 -73.333 -25 -130 -75 -170s-110 -60 -180 -60z" />
    <glyph glyph-name="four" unicode="4" horiz-adv-x="576" 
d="M518 190h-85v-190h-120v190h-301l322 510h99v-412h85v-98zM313 288v224l-135 -224h135z" />
    <glyph glyph-name="five" unicode="5" horiz-adv-x="540" 
d="M229 -13c-38 0 -76.166 5.99902 -114.499 17.999s-59.833 22.667 -64.5 32l28 108c43.333 -32.667 92.666 -49 147.999 -49c40.667 0 75 11.333 103 34s42 55.334 42 98.001c0 36 -13.5 63.5 -40.5 82.5s-74.833 28.5 -143.5 28.5h-100l43 361h320l-11 -112h-219
l-18 -149c100.667 -0.666992 173.5 -17.5 218.5 -50.5s67.5 -84.833 67.5 -155.5c0 -76 -25.5 -136 -76.5 -180s-111.833 -66 -182.5 -66z" />
    <glyph glyph-name="six" unicode="6" horiz-adv-x="565" 
d="M278 -14c-65.333 0 -118.001 21.167 -158.001 63.5s-60 108.833 -60 199.5c0 62 10.833 122 32.5 180s48.334 106 80.001 144s64.334 68.667 98.001 92s63.5 35 89.5 35l78 -46c-42.667 -8 -92.334 -40 -149.001 -96s-90.667 -117.333 -102 -184
c24 31.333 65.333 47 124 47c61.333 0 111.833 -17.333 151.5 -52s59.5 -84.667 59.5 -150s-22.5 -120.5 -67.5 -165.5s-103.833 -67.5 -176.5 -67.5zM301.999 324c-36 0 -65.834 -10.665 -89.501 -31.998s-35.5 -51.333 -35.5 -90c0 -35.333 11.5 -62.833 34.5 -82.5
s49.5 -29.5 79.5 -29.5c36.667 0 65.834 12.667 87.501 38s32.5 55.666 32.5 90.999c0 27.333 -9 51.666 -27 72.999s-45.333 32 -82 32z" />
    <glyph glyph-name="seven" unicode="7" horiz-adv-x="509" 
d="M500 700l-296 -700h-123l248 588h-287v112h458z" />
    <glyph glyph-name="eight" unicode="8" horiz-adv-x="604" 
d="M293 -14c-78 0 -136.834 19.499 -176.501 58.499s-59.5 86.167 -59.5 141.5c0 76.667 38.667 140.334 116 191.001c-50.667 40 -76 93.667 -76 161c0 50.667 16.333 92.667 49 126s86 50 160 50c70.667 0 122.167 -15.333 154.5 -46s48.5 -69 48.5 -115
c0 -34 -7.66699 -63.833 -23 -89.5s-39.666 -51.5 -72.999 -77.5c89.333 -36.667 134 -98 134 -184c0 -56 -21.833 -106 -65.5 -150s-106.5 -66 -188.5 -66zM300.999 617.999c-33.333 0 -58.333 -8.16699 -75 -24.5s-25 -38.166 -25 -65.499
c0 -50.667 31.667 -85.334 95 -104.001c68 19.333 102 56.333 102 111c0 24.667 -8 44.667 -24 60s-40.333 23 -73 23zM304.999 333.999c-37.333 -6.66699 -68.667 -21.999 -94 -45.999s-38 -55.667 -38 -95c0 -35.333 11 -62.5 33 -81.5s52.333 -28.5 91 -28.5
c40 0 72 10.667 96 32s36 49.666 36 84.999c0 34.667 -11.667 63.5 -35 86.5s-53 38.833 -89 47.5z" />
    <glyph glyph-name="nine" unicode="9" horiz-adv-x="566" 
d="M287 714c65.333 0 118.166 -21 158.499 -63s60.5 -108.333 60.5 -199c0 -64 -10 -125.167 -30 -183.5s-45 -106.5 -75 -144.5s-62.167 -68.167 -96.5 -90.5s-66.5 -33.5 -96.5 -33.5l-79 46c20 4 43.167 13.333 69.5 28s52.833 33.667 79.5 57s49.834 52 69.501 86
s31.167 69.333 34.5 106c-12 -14 -31.667 -24.833 -59 -32.5s-50.333 -11.5 -69 -11.5c-64.667 0 -116 17 -154 51s-57 83.667 -57 149c0 66.667 22.333 122.5 67 167.5s103.667 67.5 177 67.5zM265 376c36 0 66 10.665 90 31.998s36 51.333 36 90
c0 38 -11.167 66.167 -33.5 84.5s-48.833 27.5 -79.5 27.5c-36.667 0 -65.667 -12.667 -87 -38s-32 -54.666 -32 -87.999c0 -29.333 8.5 -54.666 25.5 -75.999s43.833 -32 80.5 -32z" />
    <glyph glyph-name="colon" unicode=":" horiz-adv-x="224" 
d="M169 324h-114v116h114v-116zM169 0h-114v116h114v-116z" />
    <glyph glyph-name="semicolon" unicode=";" horiz-adv-x="238" 
d="M183 324h-126v116h126v-116zM174 0l-92 -110l-25 14l33 86l-33 10v116h117v-116z" />
    <glyph glyph-name="less" unicode="&#x3c;" horiz-adv-x="431" 
d="M373 78h-131l-213 206l213 206h131l-213 -206z" />
    <glyph glyph-name="equal" unicode="=" horiz-adv-x="498" 
d="M434 312h-370v89h370v-89zM434 153h-370v89h370v-89z" />
    <glyph glyph-name="greater" unicode="&#x3e;" horiz-adv-x="432" 
d="M403 284l-213 -206h-131l213 206l-213 206h131z" />
    <glyph glyph-name="question" unicode="?" horiz-adv-x="442" 
d="M239 200l-76.002 0.00195312c-2 26 -3 43 -3 51c0 27.333 7 55.333 21 84s29.167 53.167 45.5 73.5s31.5 44.333 45.5 72s21 54.167 21 79.5c0 33.333 -10.5 58.666 -31.5 75.999s-47.167 26 -78.5 26c-28 0 -53 -6.5 -75 -19.5s-39 -28.5 -51 -46.5l-27 84
c14.667 22.667 36.334 40 65.001 52s60.334 18 95.001 18c64.667 0 115.667 -20 153 -60s56 -83 56 -129c0 -27.333 -8.33301 -56.333 -25 -87s-35 -57.834 -55 -81.501s-38.333 -51.5 -55 -83.5s-25 -62.667 -25 -92v-17zM257.998 0.00195312h-113v112h113v-112z" />
    <glyph glyph-name="at" unicode="@" horiz-adv-x="717" 
d="M542 379c-34 35.333 -74.667 53.001 -122 53.001c-62 0 -119.833 -29.5 -173.5 -88.5s-80.5 -123.167 -80.5 -192.5c0 -32 7.5 -58.5 22.5 -79.5s39.167 -31.5 72.5 -31.5c28.667 0 60.334 10.667 95.001 32s61.667 49.333 81 84c0 -1.33301 -0.5 -6.33301 -1.5 -15
s-1.5 -14 -1.5 -16c0 -21.333 4.33301 -40.5 13 -57.5s22.667 -25.5 42 -25.5s42.166 6.5 68.499 19.5s47.833 27.833 64.5 44.5c-32 -58 -77.5 -104.667 -136.5 -140s-122.833 -53 -191.5 -53c-76.667 0 -137.167 22.667 -181.5 68s-66.5 108.333 -66.5 189
c0 107.333 37.167 198 111.5 272s162.833 111 265.5 111c78 0 139 -22.833 183 -68.5s66 -107.5 66 -185.5c0 -48.667 -8.33301 -95.334 -25 -140.001c-12.667 -20 -31.5 -35.833 -56.5 -47.5s-47.167 -17.5 -66.5 -17.5c-24.667 0 -37 17.667 -37 53
c0 16 2.5 34.5 7.5 55.5s12.5 49 22.5 84s18.333 65.833 25 92.5zM421 371.001c30.667 0 48.665 -7.33301 53.998 -22c-9.33301 -54.667 -34.166 -108.834 -74.499 -162.501s-77.166 -80.5 -110.499 -80.5c-14.667 0 -25.667 6 -33 18s-11 27.333 -11 46
c0 52.667 20 99.334 60 140.001s78.333 61 115 61z" />
    <glyph glyph-name="A" unicode="A" horiz-adv-x="624" 
d="M619 0h-123l-62 175h-244l-62 -175h-123l249 700h115zM394 287l-83 233l-82 -233h165z" />
    <glyph glyph-name="B" unicode="B" horiz-adv-x="617" 
d="M338 0l-260 -0.00195312v700h179c44.667 0 81.667 -2.16699 111 -6.5s56.666 -12.666 81.999 -24.999s44 -30.5 56 -54.5s18 -54.667 18 -92c0 -32.667 -4.33301 -60.667 -13 -84s-24 -44.666 -46 -63.999c42.667 -16.667 73.5 -38.167 92.5 -64.5
s28.5 -60.5 28.5 -102.5c0 -40 -7.16699 -74.167 -21.5 -102.5s-34.166 -49.833 -59.499 -64.5s-51.5 -25 -78.5 -31s-56.5 -9 -88.5 -9zM301 597.998h-106v-182h123c62 0 93 30.333 93 91c0 36 -9.16699 60.167 -27.5 72.5s-45.833 18.5 -82.5 18.5zM333 319.998h-138v-218
h118c50 0 87.667 7.66699 113 23s38 43.333 38 84c0 74 -43.667 111 -131 111z" />
    <glyph glyph-name="C" unicode="C" horiz-adv-x="613" 
d="M384 -14c-101.333 0 -184.501 33.333 -249.501 100s-97.5 154.667 -97.5 264s32.5 197.333 97.5 264s148.167 100 249.5 100c74.667 0 140.334 -13.667 197.001 -41l-13 -111c-74 27.333 -135.333 41 -184 41c-70 0 -123.833 -23.333 -161.5 -70
s-56.5 -107.667 -56.5 -183s18.833 -136.333 56.5 -183s91.5 -70 161.5 -70c52 0 113.333 13.667 184 41l13 -111c-56 -27.333 -121.667 -41 -197 -41z" />
    <glyph glyph-name="D" unicode="D" horiz-adv-x="723" 
d="M339 0h-261v700h261c102.667 0 186 -31.333 250 -94s96 -148 96 -256s-32 -193.333 -96 -256s-147.333 -94 -250 -94zM339 589h-143v-478h143c70.667 0 124.5 21.333 161.5 64s55.5 101 55.5 175s-18.5 132.333 -55.5 175s-90.833 64 -161.5 64z" />
    <glyph glyph-name="E" unicode="E" horiz-adv-x="564" 
d="M529 0h-451v700h441v-112h-321v-167h251v-112h-251v-197h331v-112z" />
    <glyph glyph-name="F" unicode="F" horiz-adv-x="525" 
d="M508 588h-312v-167h241v-112h-241v-309h-118v700h430v-112z" />
    <glyph glyph-name="G" unicode="G" horiz-adv-x="668" 
d="M379 -14c-99.333 0 -181.168 33.502 -245.501 100.502s-96.5 155.167 -96.5 264.5s32.5 197.166 97.5 263.499s149.167 99.5 252.5 99.5c34.667 0 71.834 -3.83301 111.501 -11.5s72.167 -17.5 97.5 -29.5l-12 -110c-68 26.667 -132.667 40 -194 40
c-74 0 -129.833 -23.167 -167.5 -69.5s-56.5 -106.833 -56.5 -181.5c0 -76.667 19.833 -138.334 59.5 -185.001s97.5 -70 173.5 -70c35.333 0 69.333 4.66699 102 14v140h-87v100h205v-312c-26 -14.667 -62.5 -27.167 -109.5 -37.5s-90.5 -15.5 -130.5 -15.5z" />
    <glyph glyph-name="H" unicode="H" horiz-adv-x="742" 
d="M664 0h-118v309h-350v-309h-118v700h118v-278h350v278h118v-700z" />
    <glyph glyph-name="I" unicode="I" horiz-adv-x="274" 
d="M196 0h-118v700h118v-700z" />
    <glyph glyph-name="J" unicode="J" horiz-adv-x="273" 
d="M32 -172h-30.001l-10 84h20c24.667 0 41.834 7 51.501 21s14.5 37 14.5 69v698h117v-726c0 -48 -14 -84.333 -42 -109s-68.333 -37 -121 -37z" />
    <glyph glyph-name="K" unicode="K" horiz-adv-x="608" 
d="M604 0h-130l-249 370l249 330h130l-248 -330zM196 0h-118v700h118v-700z" />
    <glyph glyph-name="L" unicode="L" horiz-adv-x="502" 
d="M494 0h-416v700h118v-588h298v-112z" />
    <glyph glyph-name="M" unicode="M" horiz-adv-x="826" 
d="M781 0h-123l-62 488l-182 -335l-184 334l-62 -487h-123l96 700h98l175 -328l173 328h98z" />
    <glyph glyph-name="N" unicode="N" horiz-adv-x="706" 
d="M628 0h-97l-335 503v-503h-118v700h119l313 -474v474h118v-700z" />
    <glyph glyph-name="O" unicode="O" horiz-adv-x="764" 
d="M382 -14c-101.333 0 -184.166 33.333 -248.499 100s-96.5 154.667 -96.5 264s32.167 197.333 96.5 264s147.166 100 248.499 100s184.166 -33.333 248.499 -100s96.5 -154.667 96.5 -264s-32.167 -197.333 -96.5 -264s-147.166 -100 -248.499 -100zM382 603
c-69.333 0 -122.666 -23.333 -159.999 -70s-56 -107.667 -56 -183s18.667 -136.333 56 -183s90.666 -70 159.999 -70s122.666 23.333 159.999 70s56 107.667 56 183s-18.667 136.333 -56 183s-90.666 70 -159.999 70z" />
    <glyph glyph-name="P" unicode="P" horiz-adv-x="589" 
d="M331 235h-133.998v-235h-119v700h206c38 0 70.333 -1.5 97 -4.5s52.5 -9.16699 77.5 -18.5s44.833 -22 59.5 -38s26.5 -37.333 35.5 -64s13.5 -58.667 13.5 -96c0 -46 -7.5 -85.833 -22.5 -119.5s-34.833 -59 -59.5 -76s-49.834 -29.333 -75.501 -37
s-51.834 -11.5 -78.501 -11.5zM303.002 600l-106 -0.000976562v-256h116c47.333 0 81.333 10.333 102 31s31 54.667 31 102c0 44.667 -10.167 76.334 -30.5 95.001s-57.833 28 -112.5 28z" />
    <glyph glyph-name="Q" unicode="Q" horiz-adv-x="764" 
d="M723 74l-66.998 -80.001l-68 56c-58.667 -42.667 -127.334 -64 -206.001 -64c-101.333 0 -184.166 33.333 -248.499 100s-96.5 154.667 -96.5 264s32.167 197.333 96.5 264s147.166 100 248.499 100s184.166 -33.333 248.499 -100s96.5 -154.667 96.5 -264
c0 -85.333 -22 -160.666 -66 -225.999zM382.002 602.999c-69.333 0 -122.667 -23.333 -160 -70s-56 -107.667 -56 -183s18.667 -136.333 56 -183s90.666 -70 159.999 -70c46.667 0 85.334 9.66699 116.001 29l-90 75l66 80l94 -80c22 40 33 89.667 33 149
c0 75.333 -19 136.333 -57 183s-92 70 -162 70z" />
    <glyph glyph-name="R" unicode="R" horiz-adv-x="619" 
d="M604 0h-123l-148 264h-136v-264h-119v700h247c160.667 0 241 -67.667 241 -203c0 -88.667 -40.333 -156 -121 -202zM305 602l-108 -0.000976562v-227h112c89.333 0 134 38.667 134 116c0 36.667 -10.5 64.334 -31.5 83.001s-56.5 28 -106.5 28z" />
    <glyph glyph-name="S" unicode="S" horiz-adv-x="583" 
d="M280 -14c-49.333 0 -94.501 4.66699 -135.501 14s-72.833 21 -95.5 35l15 135c22.667 -20.667 53 -38 91 -52s80.667 -21 128 -21c92 0 138 28.667 138 86c0 14 -3.33301 27 -10 39s-14.167 21.833 -22.5 29.5s-21.166 15.667 -38.499 24s-31.833 14.666 -43.5 18.999
s-29.5 10.5 -53.5 18.5c-28.667 9.33301 -50 16.666 -64 21.999s-32.5 13.833 -55.5 25.5s-40 23.334 -51 35.001s-21 27.167 -30 46.5s-13.5 40.666 -13.5 63.999c0 24.667 4.5 48.667 13.5 72s22.833 45.5 41.5 66.5s45 37.833 79 50.5s73.667 19 119 19
c43.333 0 85.833 -5.33301 127.5 -16s73.167 -22.667 94.5 -36l-12 -122c-78.667 42 -146.667 63 -204 63c-36 0 -67.833 -6.5 -95.5 -19.5s-41.5 -34.167 -41.5 -63.5c0 -18.667 7.33301 -35 22 -49s30.667 -24.5 48 -31.5s42 -15.5 74 -25.5
c26 -8 45.5 -14.167 58.5 -18.5s31.167 -11.333 54.5 -21s41.333 -19.5 54 -29.5s26 -22.5 40 -37.5s24.167 -32.667 30.5 -53s9.5 -42.833 9.5 -67.5c0 -18 -1.66699 -35 -5 -51s-10.833 -33.667 -22.5 -53s-26.834 -35.666 -45.501 -48.999s-45.167 -24.666 -79.5 -33.999
s-74.166 -14 -119.499 -14z" />
    <glyph glyph-name="T" unicode="T" horiz-adv-x="554" 
d="M536 588h-200v-588h-118v588h-200v112h518v-112z" />
    <glyph glyph-name="U" unicode="U" horiz-adv-x="720" 
d="M360 -14c-96 0 -168.339 27.667 -217.006 83s-73 132 -73 230v401h118v-357c0 -36.667 2.33301 -68.334 7 -95.001s12.834 -52.167 24.501 -76.5s29.334 -42.833 53.001 -55.5s52.834 -19 87.501 -19s63.834 6.33301 87.501 19s41.334 31.167 53.001 55.5
s19.834 49.833 24.501 76.5s7 58.334 7 95.001v357h118v-401c0 -98 -24.333 -174.667 -73 -230s-121 -83 -217 -83z" />
    <glyph glyph-name="V" unicode="V" horiz-adv-x="655" 
d="M651 700l-253 -700h-139l-257 700h123l203 -550l200 550h123z" />
    <glyph glyph-name="W" unicode="W" horiz-adv-x="967" 
d="M959 700l-205 -700h-111l-158 500l-160 -500h-116l-197 700h123l144 -527l162 523h88l167 -513l140 517h123z" />
    <glyph glyph-name="X" unicode="X" horiz-adv-x="620" 
d="M619 0h-133l-180 266l-171 -266h-132l243 349l-236 351h136l168 -254l162 254h133l-236 -338z" />
    <glyph glyph-name="Y" unicode="Y" horiz-adv-x="589" 
d="M594 700l-240 -386v-314h-119v314l-241 386h125l175 -281l175 281h125z" />
    <glyph glyph-name="Z" unicode="Z" horiz-adv-x="550" 
d="M542 700l-339 -588h294v-112h-488l339 588h-294v112h488z" />
    <glyph glyph-name="bracketleft" unicode="[" horiz-adv-x="334" 
d="M325 -136h-257v886h257v-96h-153v-693h153v-97z" />
    <glyph glyph-name="backslash" unicode="\" horiz-adv-x="542" 
d="M524 -85h-122l-369 785h122z" />
    <glyph glyph-name="bracketright" unicode="]" horiz-adv-x="340" 
d="M272 -136h-257v112h153v662h-153v112h257v-886z" />
    <glyph glyph-name="asciicircum" unicode="^" horiz-adv-x="511" 
d="M461 412l-206 213l-206 -213v134l206 213l206 -213v-134z" />
    <glyph glyph-name="underscore" unicode="_" horiz-adv-x="562" 
d="M561 -128h-560v92h560v-92z" />
    <glyph glyph-name="grave" unicode="`" horiz-adv-x="303" 
d="M245 588l-187 62v94l187 -92v-64z" />
    <glyph glyph-name="a" unicode="a" horiz-adv-x="493" 
d="M482 83l-10.998 -93.001h-34c-56.667 0 -95.334 20.667 -116.001 62c-36 -41.333 -86.667 -62 -152 -62c-42.667 0 -77.834 13.5 -105.501 40.5s-41.5 62.833 -41.5 107.5c0 32.667 9.66699 61.167 29 85.5s44.5 42.666 75.5 54.999s61.333 21.333 91 27
s59.5 8.83398 89.5 9.50098c-0.666992 33.333 -8.5 57 -23.5 71s-39.167 21 -72.5 21c-40.667 0 -85.334 -13.333 -134.001 -40l-12 92c56.667 31.333 115.667 47 177 47c60 0 104.833 -16.5 134.5 -49.5s44.5 -87.167 44.5 -162.5v-124
c0 -37.333 2.83301 -61.166 8.5 -71.499s18.834 -15.5 39.501 -15.5h13zM307.002 122.999v115c-49.333 -2 -89.5 -10.833 -120.5 -26.5s-46.5 -38.5 -46.5 -68.5c0 -43.333 23.333 -65 70 -65c16 0 33 4 51 12s33.333 19 46 33z" />
    <glyph glyph-name="b" unicode="b" horiz-adv-x="569" 
d="M301 -10c-51.333 0 -95.333 16.335 -132 49.002l-4 -39h-105v750h113v-287c33.333 28.667 76 43 128 43c73.333 0 131.333 -24.833 174 -74.5s64 -110.834 64 -183.501s-21.667 -133.834 -65 -183.501s-101 -74.5 -173 -74.5zM292 410.002
c-38.667 0 -69 -14.332 -91 -42.999s-33 -68.334 -33 -119.001c0 -51.333 11 -91.333 33 -120s52.333 -43 91 -43c40 0 71.833 15.167 95.5 45.5s35.5 69.5 35.5 117.5s-11.667 87 -35 117s-55.333 45 -96 45z" />
    <glyph glyph-name="c" unicode="c" horiz-adv-x="450" 
d="M273 -10c-77.333 0 -137.166 24.668 -179.499 74.001s-63.5 110.666 -63.5 183.999c0 74 21.167 135.5 63.5 184.5s102.166 73.5 179.499 73.5c62 0 112 -11.667 150 -35l-12 -98c-41.333 24.667 -84 37 -128 37s-77.833 -14.5 -101.5 -43.5s-35.5 -68.5 -35.5 -118.5
c0 -49.333 12 -88.833 36 -118.5s57.667 -44.5 101 -44.5c44 0 87 12.333 129 37l11 -95c-38 -24.667 -88 -37 -150 -37z" />
    <glyph glyph-name="d" unicode="d" horiz-adv-x="569" 
d="M509 0l-105.999 -0.00195312l-4 39c-36.667 -32.667 -80.334 -49 -131.001 -49c-72 0 -129.667 24.833 -173 74.5s-65 110.834 -65 183.501s21.333 133.834 64 183.501s100.667 74.5 174 74.5c52 0 94.333 -14.333 127 -43v287h114v-750zM276.001 409.998
c-40 0 -71.667 -14.833 -95 -44.5s-35 -68.834 -35 -117.501c0 -48 11.667 -87.167 35 -117.5s55 -45.5 95 -45.5c38.667 0 69.5 14.333 92.5 43s34.5 68.334 34.5 119.001c0 50 -11.5 89.667 -34.5 119s-53.833 44 -92.5 44z" />
    <glyph glyph-name="e" unicode="e" horiz-adv-x="514" 
d="M479 230h-333.002c6.66699 -50 24.834 -86.667 54.501 -110s64.834 -35 105.501 -35c50.667 0 100.667 12.333 150 37l8 -94c-50.667 -25.333 -106 -38 -166 -38c-85.333 0 -151.5 24.667 -198.5 74s-70.5 111 -70.5 185c0 72 21.5 132.833 64.5 182.5
s101.5 74.5 175.5 74.5c63.333 0 115.333 -19.5 156 -58.5s61 -90.833 61 -155.5c0 -16 -2.33301 -36.667 -7 -62zM270.998 410c-65.333 0 -105.334 -34.333 -120.001 -103h219c0 28.667 -8.16699 53 -24.5 73s-41.166 30 -74.499 30z" />
    <glyph glyph-name="f" unicode="f" horiz-adv-x="339" 
d="M320 405h-116.999v-405h-113v405h-76l12 92h64v120c0 37.333 10.333 68.833 31 94.5s49.667 38.5 87 38.5c32.667 0 69 -2.66699 109 -8l-11 -95c-14.667 4 -33.334 6 -56.001 6c-20 0 -32.833 -5.83301 -38.5 -17.5s-8.5 -36.167 -8.5 -73.5v-65h117v-92z" />
    <glyph glyph-name="g" unicode="g" horiz-adv-x="500" 
d="M259 -250c-77.333 0 -135.664 14.667 -174.997 44s-59 64 -59 104c0 49.333 28 86.333 84 111c-31.333 17.333 -47 40.333 -47 69c0 30 17.333 53.333 52 70c-52.667 37.333 -79 91 -79 161c0 56 17.833 102.833 53.5 140.5s85.167 56.5 148.5 56.5
c44.667 0 83.667 -10.667 117 -32c32 16 69 24 111 24h25l-9 -73h-38c-11.333 0 -24 -1 -38 -3c23.333 -32 35 -69.333 35 -112c0 -54.667 -17.833 -101 -53.5 -139s-84.834 -57 -147.501 -57c-20.667 0 -40 2 -58 6c-10 -5.33301 -15 -12 -15 -20
c0 -11.333 9.33301 -19.833 28 -25.5s53.667 -12.167 105 -19.5c18.667 -2.66699 35.167 -5.33398 49.5 -8.00098s31.666 -7.66699 51.999 -15s37.166 -15.833 50.499 -25.5s24.833 -23 34.5 -40s14.5 -36.167 14.5 -57.5c0 -47.333 -21.167 -85.666 -63.5 -114.999
s-101.5 -44 -177.5 -44zM237.002 420c-32 0 -56.5 -10 -73.5 -30s-25.5 -47 -25.5 -81s8.83301 -61 26.5 -81s42.167 -30 73.5 -30c32 0 56.5 10.167 73.5 30.5s25.5 47.5 25.5 81.5s-8.83301 60.833 -26.5 80.5s-42.167 29.5 -73.5 29.5zM264.002 -29l-69 10.0029
c-21.333 -6.66699 -38.666 -16.334 -51.999 -29.001s-20 -27.667 -20 -45c0 -22.667 11.667 -40.834 35 -54.501s56 -20.5 98 -20.5s75.833 6.66699 101.5 20s38.5 30.666 38.5 51.999c0 19.333 -11.333 33.833 -34 43.5s-55.334 17.5 -98.001 23.5z" />
    <glyph glyph-name="h" unicode="h" horiz-adv-x="550" 
d="M496 0h-113.001v267c0 50 -8.16699 86.333 -24.5 109s-43.166 34 -80.499 34c-44.667 0 -79.667 -16.333 -105 -49v-361h-113v750h113v-288c34 29.333 72.667 44 116 44c138 0 207 -79.667 207 -239v-267z" />
    <glyph glyph-name="i" unicode="i" 
d="M174 583h-114v117h114v-117zM174 0h-114v497h114v-497z" />
    <glyph glyph-name="j" unicode="j" 
d="M47 -240l-40 -2.00098l-11 92c28.667 1.33301 46.5 6.33301 53.5 15s10.5 32.334 10.5 71.001v561h114v-607c0 -39.333 -11.5 -70.5 -34.5 -93.5s-53.833 -35.167 -92.5 -36.5zM174 582.999h-114v117h114v-117z" />
    <glyph glyph-name="k" unicode="k" horiz-adv-x="477" 
d="M174 0h-114v750h114v-463l165 210h131l-189 -236l190 -261h-130l-167 230v-230z" />
    <glyph glyph-name="l" unicode="l" horiz-adv-x="258" 
d="M238 83l-11 -93h-40c-42.667 0 -74.667 12 -96 36s-32 54.333 -32 91v633h114v-582c0 -39.333 3.66699 -63.333 11 -72s25.333 -13 54 -13z" />
    <glyph glyph-name="m" unicode="m" horiz-adv-x="871" 
d="M817 0l-113.999 -0.000976562v275c0 46.667 -7.66699 80.834 -23 102.501s-41 32.5 -77 32.5c-72 0 -108 -36.333 -108 -109v-301h-113v269c0 54 -8.33301 91 -25 111s-43.334 30 -80.001 30c-46 0 -80.667 -16 -104 -48v-362h-113v497h92l8 -43
c40 34.667 84.667 52 134 52c70 0 122.333 -27.667 157 -83c12 22.667 32.833 42.167 62.5 58.5s65.5 24.5 107.5 24.5c64 0 112.667 -20.5 146 -61.5s50 -97.5 50 -169.5v-275z" />
    <glyph glyph-name="n" unicode="n" horiz-adv-x="555" 
d="M501 0l-112.999 -0.000976562v269c0 48.667 -8.5 84.334 -25.5 107.001s-44.5 34 -82.5 34c-46.667 0 -82.334 -16.333 -107.001 -49v-361h-113v497h102l4 -37c38.667 30.667 80.667 46 126 46c139.333 0 209 -79 209 -237v-269z" />
    <glyph glyph-name="o" unicode="o" horiz-adv-x="558" 
d="M279 -10c-76.667 0 -137.5 24.667 -182.5 74s-67.5 110.666 -67.5 183.999c0 72.667 22.5 133.834 67.5 183.501s105.833 74.5 182.5 74.5s137.5 -24.833 182.5 -74.5s67.5 -110.834 67.5 -183.501c0 -73.333 -22.5 -134.666 -67.5 -183.999s-105.833 -74 -182.5 -74z
M279 410c-42 0 -74.833 -14.667 -98.5 -44s-35.5 -68.666 -35.5 -117.999c0 -50 11.833 -89.667 35.5 -119s56.5 -44 98.5 -44s74.833 14.667 98.5 44s35.5 69 35.5 119c0 49.333 -11.833 88.666 -35.5 117.999s-56.5 44 -98.5 44z" />
    <glyph glyph-name="p" unicode="p" horiz-adv-x="569" 
d="M302 -10c-50 0 -92.9971 15.334 -128.997 46.001v-278h-113v739h96l10 -42c39.333 34 84.666 51 135.999 51c73.333 0 131.166 -24.833 173.499 -74.5s63.5 -110.834 63.5 -183.501c0 -74 -20.833 -135.5 -62.5 -184.5s-99.834 -73.5 -174.501 -73.5zM293.003 410.001
c-38.667 0 -69.167 -14.333 -91.5 -43s-33.5 -68.334 -33.5 -119.001c0 -51.333 11.167 -91.333 33.5 -120s52.833 -43 91.5 -43c40 0 71.667 15.167 95 45.5s35 69.5 35 117.5c0 48.667 -11.667 87.834 -35 117.501s-55 44.5 -95 44.5z" />
    <glyph glyph-name="q" unicode="q" horiz-adv-x="569" 
d="M267 -10c-74.667 0 -132.83 24.499 -174.497 73.499s-62.5 110.5 -62.5 184.5c0 72.667 21.167 133.834 63.5 183.501s100.166 74.5 173.499 74.5c51.333 0 96.666 -17 135.999 -51l10 42h96v-739h-114v278c-34.667 -30.667 -77.334 -46 -128.001 -46zM276.004 409.999
c-40 0 -71.667 -14.833 -95 -44.5s-35 -68.834 -35 -117.501c0 -48 11.667 -87.167 35 -117.5s55 -45.5 95 -45.5c38.667 0 69.167 14.333 91.5 43s33.5 68.667 33.5 120c0 50.667 -11.167 90.334 -33.5 119.001s-52.833 43 -91.5 43z" />
    <glyph glyph-name="r" unicode="r" horiz-adv-x="338" 
d="M337 508l-22 -110.999h-42c-20 0 -39.167 -5.33301 -57.5 -16s-31.5 -23.334 -39.5 -38.001v-343h-116v497h103l6 -62c44 48.667 91.667 73 143 73h25z" />
    <glyph glyph-name="s" unicode="s" horiz-adv-x="421" 
d="M201 -10c-74 0 -130.334 13.002 -169.001 39.002l11 100c16 -12.667 38.5 -24.167 67.5 -34.5s57.833 -15.5 86.5 -15.5s49.667 5.33301 63 16s20 24.334 20 41.001c0 14 -5.33301 26.167 -16 36.5s-21.167 17.666 -31.5 21.999s-25.833 9.5 -46.5 15.5
c-23.333 6.66699 -41.166 12.5 -53.499 17.5s-27 12.667 -44 23s-29.5 23.666 -37.5 39.999s-12 36.166 -12 59.499c0 42 14.667 78.5 44 109.5s75.666 46.5 138.999 46.5c60.667 0 110.667 -12 150 -36l-11 -98c-37.333 33.333 -81.333 50 -132 50
c-25.333 0 -46.166 -4.66699 -62.499 -14s-24.5 -24 -24.5 -44c0 -15.333 5.66699 -28 17 -38s23 -17 35 -21s32.667 -9.66699 62 -17c92 -24 138 -74.333 138 -151c0 -18 -2.5 -34.667 -7.5 -50s-14 -30.833 -27 -46.5s-33 -28 -60 -37s-59.833 -13.5 -98.5 -13.5z" />
    <glyph glyph-name="t" unicode="t" horiz-adv-x="342" 
d="M319 83l-9.99902 -93h-86c-44 0 -77 12.333 -99 37s-33 54.667 -33 90v288h-75l10 92h65v113l113 12v-125h116v-92h-116v-236c0 -40.667 4.16699 -65.167 12.5 -73.5s32.166 -12.5 71.499 -12.5h31z" />
    <glyph glyph-name="u" unicode="u" horiz-adv-x="544" 
d="M484 0l-103.999 -0.000976562l-5 37c-32.667 -31.333 -72.334 -47 -119.001 -47c-134.667 0 -202 77.667 -202 233v274h113v-266c0 -49.333 8.33301 -85.666 25 -108.999s43 -35 79 -35c44 0 77.333 15.333 100 46v364h113v-497z" />
    <glyph glyph-name="v" unicode="v" horiz-adv-x="497" 
d="M491 497l-190 -497h-105l-190 497h115l127 -360l127 360h116z" />
    <glyph glyph-name="w" unicode="w" horiz-adv-x="725" 
d="M715 497l-147 -497h-103l-102 337l-103 -337h-103l-147 497h117l88 -362l97 350h101l96 -350l90 362h116z" />
    <glyph glyph-name="x" unicode="x" horiz-adv-x="487" 
d="M476 0h-134l-101 157l-97 -157h-134l165 248l-163 249h133l101 -158l93 158h135l-162 -246z" />
    <glyph glyph-name="y" unicode="y" horiz-adv-x="530" 
d="M525 497l-309 -739h-117l112 272l-207 467h126l136 -335l133 335h126z" />
    <glyph glyph-name="z" unicode="z" horiz-adv-x="475" 
d="M452 497l-234 -399h225v-98h-420l233 399h-223v98h419z" />
    <glyph glyph-name="braceleft" unicode="{" horiz-adv-x="316" 
d="M88 24c0 12.667 1.33301 35.165 4 67.498s4 56.5 4 72.5c0 36 -5.66699 64.667 -17 86s-32 40.333 -62 57c29.333 16.667 49.833 35.5 61.5 56.5s17.5 50.167 17.5 87.5c0 15.333 -1.33301 39.166 -4 71.499s-4 54.833 -4 67.5c0 52.667 16.5 92.334 49.5 119.001
s88.833 40.334 167.5 41.001v-97c-21.333 0 -38.833 -0.666992 -52.5 -2s-25.5 -4.66602 -35.5 -9.99902s-17.333 -10.5 -22 -15.5s-8.5 -14.5 -11.5 -28.5s-4.66699 -27 -5 -39s-0.5 -30.333 -0.5 -55c0 -8.66699 0.5 -22.334 1.5 -41.001s1.5 -32.667 1.5 -42
c0 -24.667 -4 -46 -12 -64s-24.333 -34.333 -49 -49c24.667 -14.667 41 -29.834 49 -45.501s12 -35.5 12 -59.5c0 -8.66699 -0.5 -23 -1.5 -43s-1.5 -35.667 -1.5 -47v-55.5c0 -12.333 1.66699 -25.333 5 -39s7.33301 -23.167 12 -28.5s12 -10.666 22 -15.999
s21.833 -8.66602 35.5 -9.99902s31.167 -2 52.5 -2v-97c-78 0.666992 -133.667 14 -167 40s-50 66 -50 120z" />
    <glyph glyph-name="bar" unicode="|" horiz-adv-x="232" 
d="M164 -210h-96v960h96v-960z" />
    <glyph glyph-name="braceright" unicode="}" horiz-adv-x="316" 
d="M226 24c0 -54 -16.501 -93.998 -49.501 -119.998s-88.167 -39.333 -165.5 -40v97c21.333 0 38.833 0.666992 52.5 2s25.5 4.66602 35.5 9.99902s17.333 10.666 22 15.999s8.33398 15 11.001 29s4.16699 26.833 4.5 38.5s0.5 30.167 0.5 55.5c0 11.333 -0.5 27 -1.5 47
s-1.5 34.333 -1.5 43c0 24 4 43.833 12 59.5s24.333 30.834 49 45.501c-24.667 14.667 -41 31 -49 49s-12 39.333 -12 64c0 9.33301 0.5 23.333 1.5 42s1.5 32.334 1.5 41.001c0 25.333 -0.166992 43.833 -0.5 55.5s-1.83301 24.5 -4.5 38.5s-6.33398 23.5 -11.001 28.5
s-12 10.167 -22 15.5s-21.833 8.66602 -35.5 9.99902s-31.167 2 -52.5 2v97c78.667 -0.666992 134.334 -14.334 167.001 -41.001s48.667 -66.334 48 -119.001c0 -12.667 -1 -35.167 -3 -67.5s-3 -56.166 -3 -71.499c0 -37.333 5.83301 -66.5 17.5 -87.5
s32.167 -39.833 61.5 -56.5c-30 -16.667 -50.667 -35.667 -62 -57s-17 -50 -17 -86c0 -16 1 -40.167 3 -72.5s3 -54.833 3 -67.5z" />
    <glyph glyph-name="asciitilde" unicode="~" horiz-adv-x="463" 
d="M300 177c-17.333 0 -40.334 7.5 -69.001 22.5s-48.334 22.5 -59.001 22.5c-27.333 0 -46 -16 -56 -48l-68 17c4.66699 30.667 18.667 54.667 42 72s48.666 26 75.999 26c19.333 0 42.333 -7.33301 69 -22s45.334 -22 56.001 -22c14.667 0 27.334 4.66699 38.001 14
s18.334 20.666 23.001 33.999l63 -17c-6 -27.333 -19.333 -50.666 -40 -69.999s-45.667 -29 -75 -29z" />
    <glyph glyph-name="uni00A0" unicode="&#xa0;" horiz-adv-x="225" 
 />
    <glyph glyph-name="exclamdown" unicode="&#xa1;" horiz-adv-x="242" 
d="M59 -250l23 550h78l23 -550h-124zM65 500h112v-112h-112v112z" />
    <glyph glyph-name="cent" unicode="&#xa2;" horiz-adv-x="475" 
d="M299 88l16 -119.998h-88l17 122c-67.333 8.66699 -119.333 37 -156 85s-55 105.667 -55 173s18.5 125 55.5 173s89.5 76.333 157.5 85l-19 142h88l-18 -141c51.333 -3.33301 94.333 -15 129 -35l-10 -97c-41.333 25.333 -84.333 38 -129 38
c-41.333 0 -74 -15.333 -98 -46s-36 -70.334 -36 -119.001s12 -88.334 36 -119.001s56.667 -46 98 -46c44.667 0 87.667 12.667 129 38l10 -97c-34.667 -20.667 -77 -32.667 -127 -36z" />
    <glyph glyph-name="sterling" unicode="&#xa3;" horiz-adv-x="519" 
d="M464 608l-41.999 -53.002c-6 17.333 -11.5 30.5 -16.5 39.5s-13 17.333 -24 25s-24.833 11.5 -41.5 11.5c-23.333 0 -41.333 -7.16699 -54 -21.5s-20.5 -31.166 -23.5 -50.499s-4.5 -45 -4.5 -77v-89h188l-18 -77h-174c-4.66699 -80.667 -22.334 -154.667 -53.001 -222
h255v-94h-423c63.333 78.667 101.666 184 114.999 316h-91l17 77h78v110c0 22 1 41.667 3 59s6.33301 35.333 13 54s15.834 34.334 27.501 47.001s28 23 49 31s45.5 12 73.5 12c80 0 128.667 -32.667 146 -98z" />
    <glyph glyph-name="currency" unicode="&#xa4;" horiz-adv-x="630" 
d="M572 64l-49.999 -42.001l-76 100c-40.667 -20.667 -84.334 -31 -131.001 -31s-90.334 10.333 -131.001 31l-75 -100l-50 42l73 99c-46.667 49.333 -70 111 -70 185s23.667 135.667 71 185l-74 99l50 42l75 -100c42.667 20.667 86.334 31 131.001 31
c46 0 89.667 -10.667 131 -32l76 101l50 -42l-74 -100c46.667 -49.333 70 -110.666 70 -183.999c0 -72.667 -23.667 -134.667 -71 -186zM315.001 515.999c-42.667 0 -76.167 -15.5 -100.5 -46.5s-36.5 -71.5 -36.5 -121.5s12.167 -90.5 36.5 -121.5
s57.833 -46.5 100.5 -46.5s76.167 15.5 100.5 46.5s36.5 71.5 36.5 121.5s-12.167 90.5 -36.5 121.5s-57.833 46.5 -100.5 46.5z" />
    <glyph glyph-name="yen" unicode="&#xa5;" horiz-adv-x="695" 
d="M668 700l-248 -370h153l-25 -63h-141v-62h166l-25 -65h-141v-140h-118v140h-169l23 65h146v62h-169l23 63h133l-248 370h120l200 -286l200 286h120z" />
    <glyph glyph-name="brokenbar" unicode="&#xa6;" horiz-adv-x="226" 
d="M157 291h-88v459h88v-459zM157 -210h-88v392h88v-392z" />
    <glyph glyph-name="section" unicode="&#xa7;" horiz-adv-x="460" 
d="M329 187c18 -14.667 30.501 -30.3291 37.501 -46.9961s10.5 -37.334 10.5 -62.001c0 -44 -13.333 -82.167 -40 -114.5s-70 -48.5 -130 -48.5c-27.333 0 -54.833 4.16699 -82.5 12.5s-47.834 17.833 -60.501 28.5l11 92c45.333 -32 88.333 -48 129 -48
c62.667 0 94 22 94 66c0 22 -8.83301 39.833 -26.5 53.5s-39.334 25 -65.001 34s-51.167 19.167 -76.5 30.5s-46.833 29.166 -64.5 53.499s-26.5 55.5 -26.5 93.5c0 75.333 30.667 124.666 92 147.999c-32.667 24.667 -49 59.667 -49 105c0 46 13.333 85.167 40 117.5
s70 48.5 130 48.5c27.333 0 55 -4.16699 83 -12.5s48.333 -17.833 61 -28.5l-10 -92c-45.333 32 -88.666 48 -129.999 48c-26.667 0 -48.667 -5.66699 -66 -17s-26 -28 -26 -50c0 -20.667 8.83301 -37.834 26.5 -51.501s39 -25 64 -34s50.167 -19.5 75.5 -31.5
s46.833 -30.5 64.5 -55.5s26.5 -56.167 26.5 -93.5c0 -72 -30.667 -120.333 -92 -145zM200.001 417.005c-15.333 0 -31.499 -6.16699 -48.499 -18.5s-25.5 -28.5 -25.5 -48.5c0 -50.667 46.667 -88 140 -112c16 2 31.333 11 46 27s22 32.667 22 50
c0 16 -4.16699 30.167 -12.5 42.5s-20.833 22.5 -37.5 30.5s-30.334 13.667 -41.001 17s-25 7.33301 -43 12z" />
    <glyph glyph-name="dieresis" unicode="&#xa8;" horiz-adv-x="422" 
d="M335 596h-89v104h89v-104zM176 596h-89v104h89v-104z" />
    <glyph glyph-name="copyright" unicode="&#xa9;" horiz-adv-x="701" 
d="M351 37c-90.667 0 -165.167 30.333 -223.5 91s-87.5 139.667 -87.5 237c0 98 29.167 177.167 87.5 237.5s132.833 90.5 223.5 90.5s165 -30.167 223 -90.5s87 -139.5 87 -237.5s-29 -177.167 -87 -237.5s-132.333 -90.5 -223 -90.5zM351 631
c-78 0 -137.833 -24.5 -179.5 -73.5s-62.5 -113.167 -62.5 -192.5s20.833 -143.666 62.5 -192.999s101.5 -74 179.5 -74s137.667 24.667 179 74s62 113.666 62 192.999s-20.667 143.5 -62 192.5s-101 73.5 -179 73.5zM359 192c-47.333 0 -86.166 15.668 -116.499 47.001
s-45.5 72.666 -45.5 123.999s15.167 92.833 45.5 124.5s69.166 47.5 116.499 47.5c32.667 0 65.667 -7.33301 99 -22l-9 -77c-36.667 14.667 -66.667 22 -90 22c-24.667 0 -43.834 -8.5 -57.501 -25.5s-20.5 -40.167 -20.5 -69.5c0 -28.667 6.83301 -51.667 20.5 -69
s32.834 -26 57.501 -26c26 0 56 8 90 24l9 -76c-28.667 -16 -61.667 -24 -99 -24z" />
    <glyph glyph-name="ordfeminine" unicode="&#xaa;" horiz-adv-x="359" 
d="M322 512l-5.00195 -77.998h-49c-8 0 -18.5 2.5 -31.5 7.5s-22.167 10.167 -27.5 15.5c-16 -15.333 -47 -23 -93 -23c-23.333 0 -43.166 7.66699 -59.499 23s-24.5 37.666 -24.5 66.999c0 18.667 6.33301 35.167 19 49.5s28.667 24.833 48 31.5s36.833 11.667 52.5 15
s29.834 5.33301 42.501 6c-5.33301 17.333 -20 26 -44 26c-12.667 0 -41.667 -5.66699 -87 -17l-6 75c40 13.333 79.667 20 119 20c32 0 58.833 -7.83301 80.5 -23.5s32.5 -37.834 32.5 -66.501v-99c0 -12.667 1.5 -20.667 4.5 -24s7.83301 -5 14.5 -5h14zM194.998 507.002
v58c-42 -9.33301 -63 -22.333 -63 -39c0 -16 11.667 -24 35 -24c10 0 19.333 1.66699 28 5z" />
    <glyph glyph-name="guillemotleft" unicode="&#xab;" horiz-adv-x="594" 
d="M556 78h-133l-150 206l150 206h133l-151 -206zM295 78h-132l-150 206l150 206h132l-150 -206z" />
    <glyph glyph-name="logicalnot" unicode="&#xac;" horiz-adv-x="592" 
d="M522 151h-82v172h-378v83h460v-255z" />
    <glyph glyph-name="uni00AD" unicode="&#xad;" horiz-adv-x="420" 
d="M365 230h-310v94h310v-94z" />
    <glyph glyph-name="registered" unicode="&#xae;" horiz-adv-x="701" 
d="M351 37c-90.667 0 -165.167 30.333 -223.5 91s-87.5 139.667 -87.5 237c0 98 29.167 177.167 87.5 237.5s132.833 90.5 223.5 90.5s165 -30.167 223 -90.5s87 -139.5 87 -237.5s-29 -177.167 -87 -237.5s-132.333 -90.5 -223 -90.5zM351 630
c-78 0 -137.666 -24.333 -178.999 -73s-62 -112.667 -62 -192c0 -78.667 20.667 -142.667 62 -192s101 -74 179 -74c77.333 0 136.666 24.667 177.999 74s62 113.333 62 192c0 79.333 -20.5 143.333 -61.5 192s-100.5 73 -178.5 73zM492.001 205h-82.999l-63 114h-38v-114
h-80v331h124c37.333 0 66.166 -8 86.499 -24s30.5 -43.667 30.5 -83c0 -37.333 -16.667 -66.333 -50 -87zM339.002 469l-31 -0.000976562v-77h29c18.667 0 31.5 3.33301 38.5 10s10.5 16.334 10.5 29.001s-3.16699 22.167 -9.5 28.5s-18.833 9.5 -37.5 9.5z" />
    <glyph glyph-name="degree" unicode="&#xb0;" horiz-adv-x="329" 
d="M164 482c-40 0 -72 13 -96 39s-36 58.333 -36 97s12 71.167 36 97.5s56 39.5 96 39.5c40.667 0 73 -13.167 97 -39.5s36 -58.833 36 -97.5s-12 -71 -36 -97s-56.333 -39 -97 -39zM164 712c-22 0 -39.333 -8.83301 -52 -26.5s-19 -40.167 -19 -67.5
s6.33301 -49.666 19 -66.999s30 -26 52 -26c23.333 0 41 8.66699 53 26s18 39.666 18 66.999s-6.16699 49.833 -18.5 67.5s-29.833 26.5 -52.5 26.5z" />
    <glyph glyph-name="plusminus" unicode="&#xb1;" horiz-adv-x="492" 
d="M431 315h-143v-133h-84v133h-143v86h143v131h84v-131h143v-86zM431 34h-370v85h370v-85z" />
    <glyph glyph-name="uni00B2" unicode="&#xb2;" horiz-adv-x="309" 
d="M276 320l-256.001 -0.000976562c46 62.667 81.5 114 106.5 154s40 66.833 45 80.5s7.5 25.834 7.5 36.501c0 30.667 -14.333 46 -43 46c-36 0 -66.667 -22.333 -92 -67l-11 81c8.66699 15.333 23.334 28.333 44.001 39s45.667 16 75 16c38.667 0 66.667 -10.167 84 -30.5
s26 -43.5 26 -69.5c0 -44 -29.333 -109.333 -88 -196h102v-90z" />
    <glyph glyph-name="uni00B3" unicode="&#xb3;" horiz-adv-x="307" 
d="M126 312c-22.667 0 -45.3311 3.49707 -67.998 10.4971s-36 13.5 -40 19.5l22 83c0.666992 -6 10.167 -11.5 28.5 -16.5s35.5 -7.5 51.5 -7.5c46.667 0 70 10.667 70 32c0 39.333 -17.667 59 -53 59h-62l7 67h32c20.667 0 35.667 3.83301 45 11.5s14 15.834 14 24.501
c0 10.667 -4 20.167 -12 28.5s-21.333 12.5 -40 12.5c-30.667 0 -52.334 -5.33301 -65.001 -16l-12 61c18 16.667 47.667 25 89 25c47.333 0 80.5 -10.667 99.5 -32s28.5 -45.333 28.5 -72c0 -18 -2.83301 -33.667 -8.5 -47s-11.5 -21.666 -17.5 -24.999
c1.33301 -1.33301 5 -5.66602 11 -12.999s10 -12.5 12 -15.5s4.83301 -8 8.5 -15s6.16699 -14.333 7.5 -22s2 -16.167 2 -25.5c0 -40 -14.833 -71.167 -44.5 -93.5s-64.834 -33.5 -105.501 -33.5z" />
    <glyph glyph-name="acute" unicode="&#xb4;" horiz-adv-x="303" 
d="M245 650l-187 -62v64l187 92v-94z" />
    <glyph glyph-name="uni00B5" unicode="&#xb5;" horiz-adv-x="610" 
d="M568 83l-12.001 -93h-39c-51.333 0 -87.333 19.667 -108 59c-36 -38.667 -78.333 -58 -127 -58c-36.667 0 -68.667 7.33301 -96 22v-255h-113v739h113v-266c0 -49.333 8.16699 -85.833 24.5 -109.5s43.5 -35.5 81.5 -35.5c40 0 73.667 15.667 101 47v364h113v-326
c0 -36 2.83301 -59.667 8.5 -71s17.834 -17 36.501 -17h17z" />
    <glyph glyph-name="paragraph" unicode="&#xb6;" horiz-adv-x="624" 
d="M580 605h-71v-605h-75v605h-75v-605h-60v233c-84.667 5.33301 -150.167 30.833 -196.5 76.5s-69.5 98.5 -69.5 158.5c0 62.667 25 117 75 163s120.667 69 212 69h260v-95z" />
    <glyph glyph-name="periodcentered" unicode="&#xb7;" 
d="M179 213h-124v130h124v-130z" />
    <glyph glyph-name="cedilla" unicode="&#xb8;" horiz-adv-x="303" 
d="M295 -53l-96 -133l-65 -7l69 132z" />
    <glyph glyph-name="uni00B9" unicode="&#xb9;" horiz-adv-x="220" 
d="M161 320h-89.002v253c-9.33301 -2 -23.666 -3.33301 -42.999 -4l-3 70c9.33301 0 21.833 6.66699 37.5 20s24.834 26.333 27.501 39h70v-378z" />
    <glyph glyph-name="ordmasculine" unicode="&#xba;" horiz-adv-x="375" 
d="M188 434c-48 0 -86.333 14.5 -115 43.5s-43 63.833 -43 104.5s14.333 75.5 43 104.5s67 43.5 115 43.5s86.167 -14.5 114.5 -43.5s42.5 -63.833 42.5 -104.5s-14.167 -75.5 -42.5 -104.5s-66.5 -43.5 -114.5 -43.5zM188 658c-18.667 0 -33.667 -7.33301 -45 -22
s-17 -32.667 -17 -54s5.66699 -39.333 17 -54s26.333 -22 45 -22s33.5 7.33301 44.5 22s16.5 32.667 16.5 54s-5.5 39.333 -16.5 54s-25.833 22 -44.5 22z" />
    <glyph glyph-name="guillemotright" unicode="&#xbb;" horiz-adv-x="594" 
d="M582 284l-151 -206h-132l150 206l-150 206h132zM322 284l-150 -206h-133l151 206l-151 206h133z" />
    <glyph glyph-name="onequarter" unicode="&#xbc;" horiz-adv-x="731" 
d="M176 320h-89.002v253c-9.33301 -2 -23.666 -3.33301 -42.999 -4l-3 70c9.33301 0 21.833 6.66699 37.5 20s24.834 26.333 27.501 39h70v-378zM552.998 700l-369 -785h-124l369 785h124zM697.998 103h-49v-103h-90v103h-175l187 275h78v-208h49v-67zM558.998 170v86
l-60 -86h60z" />
    <glyph glyph-name="onehalf" unicode="&#xbd;" horiz-adv-x="733" 
d="M550 700l-369 -785h-124l369 785h124zM698 0l-256.001 -0.000976562c46 62.667 81.5 114 106.5 154s40 66.833 45 80.5s7.5 25.834 7.5 36.501c0 30.667 -14.333 46 -43 46c-36 0 -66.667 -22.333 -92 -67l-11 81c8.66699 15.333 23.334 28.333 44.001 39
s45.667 16 75 16c38.667 0 66.667 -10.167 84 -30.5s26 -43.5 26 -69.5c0 -44 -29.333 -109.333 -88 -196h102v-90zM172.999 319.999h-89.002v253c-9.33301 -2 -23.666 -3.33301 -42.999 -4l-3 70c9.33301 0 21.833 6.66699 37.5 20s24.834 26.333 27.501 39h70v-378z" />
    <glyph glyph-name="threequarters" unicode="&#xbe;" horiz-adv-x="898" 
d="M718 700l-369 -785h-124l369 785h124zM139 312c-22.667 0 -45.3311 3.49707 -67.998 10.4971s-36 13.5 -40 19.5l22 83c0.666992 -6 10.167 -11.5 28.5 -16.5s35.5 -7.5 51.5 -7.5c46.667 0 70 10.667 70 32c0 39.333 -17.667 59 -53 59h-62l7 67h32
c20.667 0 35.667 3.83301 45 11.5s14 15.834 14 24.501c0 10.667 -4 20.167 -12 28.5s-21.333 12.5 -40 12.5c-30.667 0 -52.334 -5.33301 -65.001 -16l-12 61c18 16.667 47.667 25 89 25c47.333 0 80.5 -10.667 99.5 -32s28.5 -45.333 28.5 -72
c0 -18 -2.83301 -33.667 -8.5 -47s-11.5 -21.666 -17.5 -24.999c1.33301 -1.33301 5 -5.66602 11 -12.999s10 -12.5 12 -15.5s4.83301 -8 8.5 -15s6.16699 -14.333 7.5 -22s2 -16.167 2 -25.5c0 -40 -14.833 -71.167 -44.5 -93.5s-64.834 -33.5 -105.501 -33.5z
M864.003 102.997h-49v-103h-90v103h-175l187 275h78v-208h49v-67zM725.003 169.997v86l-60 -86h60z" />
    <glyph glyph-name="questiondown" unicode="&#xbf;" horiz-adv-x="442" 
d="M210 300l76.002 -0.00195312c2 -26 3 -43 3 -51c0 -27.333 -7 -55.333 -21 -84s-29.167 -53.167 -45.5 -73.5s-31.5 -44.333 -45.5 -72s-21 -54.167 -21 -79.5c0 -33.333 10.5 -58.666 31.5 -75.999s47.167 -26 78.5 -26c28 0 53 6.5 75 19.5s39 28.5 51 46.5l27 -84
c-14.667 -22.667 -36.334 -40 -65.001 -52s-60.334 -18 -95.001 -18c-44 0 -82.5 10.333 -115.5 31s-56.833 45 -71.5 73s-22 56.333 -22 85c0 27.333 8.33301 56.333 25 87s35 57.834 55 81.501s38.333 51.5 55 83.5s25 62.667 25 92v17zM191.002 499.998h113v-112h-113
v112z" />
    <glyph glyph-name="Agrave" unicode="&#xc0;" horiz-adv-x="624" 
d="M619 0h-123l-62 175h-244l-62 -175h-123l249 700h115zM394 287l-83 233l-82 -233h165zM405 791l-187 62v94l187 -92v-64z" />
    <glyph glyph-name="Aacute" unicode="&#xc1;" horiz-adv-x="624" 
d="M619 0h-123l-62 175h-244l-62 -175h-123l249 700h115zM394 287l-83 233l-82 -233h165zM405 853l-187 -62v64l187 92v-94z" />
    <glyph glyph-name="Acircumflex" unicode="&#xc2;" horiz-adv-x="624" 
d="M619 0h-123l-62 175h-244l-62 -175h-123l249 700h115zM394 287l-83 233l-82 -233h165zM459 794l-147 74l-147 -74v62l147 95l147 -95v-62z" />
    <glyph glyph-name="Atilde" unicode="&#xc3;" horiz-adv-x="624" 
d="M619 0h-123l-62 175h-244l-62 -175h-123l249 700h115zM394 287l-83 233l-82 -233h165zM380 802c-17.333 0 -40.334 7.50098 -69.001 22.501s-48.334 22.5 -59.001 22.5c-27.333 0 -46 -16 -56 -48l-68 17c4.66699 30.667 18.667 54.667 42 72s48.666 26 75.999 26
c19.333 0 42.333 -7.33301 69 -22s45.334 -22 56.001 -22c14.667 0 27.334 4.66699 38.001 14s18.334 20.666 23.001 33.999l63 -16c-6 -28 -19.333 -51.667 -40 -71s-45.667 -29 -75 -29z" />
    <glyph glyph-name="Adieresis" unicode="&#xc4;" horiz-adv-x="624" 
d="M619 0h-123l-62 175h-244l-62 -175h-123l249 700h115zM394 287l-83 233l-82 -233h165zM436 799h-89v104h89v-104zM277 799h-89v104h89v-104z" />
    <glyph glyph-name="Aring" unicode="&#xc5;" horiz-adv-x="624" 
d="M619 0h-123l-62 175h-244l-62 -175h-123l249 700h115zM394 287l-83 233l-82 -233h165zM312 779c-32 0 -57.333 8.5 -76 25.5s-28 38.167 -28 63.5s9.5 46.666 28.5 63.999s44.167 26 75.5 26c32 0 57.333 -8.66699 76 -26s28 -38.666 28 -63.999
s-9.33301 -46.5 -28 -63.5s-44 -25.5 -76 -25.5zM312 915c-13.333 0 -24.833 -4.5 -34.5 -13.5s-14.5 -20.167 -14.5 -33.5c0 -14 4.66699 -25.333 14 -34s21 -13 35 -13s25.667 4.33301 35 13s14 20 14 34c0 13.333 -4.83301 24.5 -14.5 33.5s-21.167 13.5 -34.5 13.5z" />
    <glyph glyph-name="AE" unicode="&#xc6;" horiz-adv-x="868" 
d="M832 0h-436v172h-200l-85 -172h-120l341 700h491v-112h-301v-167h232v-112h-232v-197h310v-112zM396 286v299l-146 -299h146z" />
    <glyph glyph-name="Ccedilla" unicode="&#xc7;" horiz-adv-x="613" 
d="M384 -14c-101.333 0 -184.501 33.333 -249.501 100s-97.5 154.667 -97.5 264s32.5 197.333 97.5 264s148.167 100 249.5 100c74.667 0 140.334 -13.667 197.001 -41l-13 -111c-74 27.333 -135.333 41 -184 41c-70 0 -123.833 -23.333 -161.5 -70
s-56.5 -107.667 -56.5 -183s18.833 -136.333 56.5 -183s91.5 -70 161.5 -70c52 0 113.333 13.667 184 41l13 -111c-56 -27.333 -121.667 -41 -197 -41zM386.999 -53l-96 -133l-65 -7l69 132z" />
    <glyph glyph-name="Egrave" unicode="&#xc8;" horiz-adv-x="564" 
d="M529 0h-451v700h441v-112h-321v-167h251v-112h-251v-197h331v-112zM368 791l-187 62v94l187 -92v-64z" />
    <glyph glyph-name="Eacute" unicode="&#xc9;" horiz-adv-x="564" 
d="M529 0h-451v700h441v-112h-321v-167h251v-112h-251v-197h331v-112zM368 853l-187 -62v64l187 92v-94z" />
    <glyph glyph-name="Ecircumflex" unicode="&#xca;" horiz-adv-x="564" 
d="M529 0h-451v700h441v-112h-321v-167h251v-112h-251v-197h331v-112zM421 794l-147 74l-147 -74v62l147 95l147 -95v-62z" />
    <glyph glyph-name="Edieresis" unicode="&#xcb;" horiz-adv-x="564" 
d="M529 0h-451v700h441v-112h-321v-167h251v-112h-251v-197h331v-112zM398 799h-89v104h89v-104zM239 799h-89v104h89v-104z" />
    <glyph glyph-name="Igrave" unicode="&#xcc;" horiz-adv-x="274" 
d="M196 0h-118v700h118v-700zM231 791l-187 62v94l187 -92v-64z" />
    <glyph glyph-name="Iacute" unicode="&#xcd;" horiz-adv-x="274" 
d="M196 0h-118v700h118v-700zM231 853l-187 -62v64l187 92v-94z" />
    <glyph glyph-name="Icircumflex" unicode="&#xce;" horiz-adv-x="274" 
d="M196 0h-118v700h118v-700zM284 794l-147 74l-147 -74v62l147 95l147 -95v-62z" />
    <glyph glyph-name="Idieresis" unicode="&#xcf;" horiz-adv-x="274" 
d="M196 0h-118v700h118v-700zM261 799h-89v104h89v-104zM102 799h-89v104h89v-104z" />
    <glyph glyph-name="Eth" unicode="&#xd0;" horiz-adv-x="732" 
d="M349 0h-260v303h-94v85h94v312h260c102 0 185 -31.333 249 -94s96 -148 96 -256s-32 -193.333 -96 -256s-147 -94 -249 -94zM349 589h-144v-201h125v-85h-125v-191h144c70.667 0 124.5 21 161.5 63s55.5 100.333 55.5 175s-18.5 133.167 -55.5 175.5
s-90.833 63.5 -161.5 63.5z" />
    <glyph glyph-name="Ntilde" unicode="&#xd1;" horiz-adv-x="706" 
d="M628 0h-97l-335 503v-503h-118v700h119l313 -474v474h118v-700zM421 802c-17.333 0 -40.334 7.50098 -69.001 22.501s-48.334 22.5 -59.001 22.5c-27.333 0 -46 -16 -56 -48l-68 17c4.66699 30.667 18.667 54.667 42 72s48.666 26 75.999 26
c19.333 0 42.333 -7.33301 69 -22s45.334 -22 56.001 -22c14.667 0 27.334 4.66699 38.001 14s18.334 20.666 23.001 33.999l63 -16c-6 -28 -19.333 -51.667 -40 -71s-45.667 -29 -75 -29z" />
    <glyph glyph-name="Ograve" unicode="&#xd2;" horiz-adv-x="764" 
d="M382 -14c-101.333 0 -184.166 33.333 -248.499 100s-96.5 154.667 -96.5 264s32.167 197.333 96.5 264s147.166 100 248.499 100s184.166 -33.333 248.499 -100s96.5 -154.667 96.5 -264s-32.167 -197.333 -96.5 -264s-147.166 -100 -248.499 -100zM382 603
c-69.333 0 -122.666 -23.333 -159.999 -70s-56 -107.667 -56 -183s18.667 -136.333 56 -183s90.666 -70 159.999 -70s122.666 23.333 159.999 70s56 107.667 56 183s-18.667 136.333 -56 183s-90.666 70 -159.999 70zM475 791l-187 62v94l187 -92v-64z" />
    <glyph glyph-name="Oacute" unicode="&#xd3;" horiz-adv-x="764" 
d="M382 -14c-101.333 0 -184.166 33.333 -248.499 100s-96.5 154.667 -96.5 264s32.167 197.333 96.5 264s147.166 100 248.499 100s184.166 -33.333 248.499 -100s96.5 -154.667 96.5 -264s-32.167 -197.333 -96.5 -264s-147.166 -100 -248.499 -100zM382 603
c-69.333 0 -122.666 -23.333 -159.999 -70s-56 -107.667 -56 -183s18.667 -136.333 56 -183s90.666 -70 159.999 -70s122.666 23.333 159.999 70s56 107.667 56 183s-18.667 136.333 -56 183s-90.666 70 -159.999 70zM475 853l-187 -62v64l187 92v-94z" />
    <glyph glyph-name="Ocircumflex" unicode="&#xd4;" horiz-adv-x="764" 
d="M382 -14c-101.333 0 -184.166 33.333 -248.499 100s-96.5 154.667 -96.5 264s32.167 197.333 96.5 264s147.166 100 248.499 100s184.166 -33.333 248.499 -100s96.5 -154.667 96.5 -264s-32.167 -197.333 -96.5 -264s-147.166 -100 -248.499 -100zM382 603
c-69.333 0 -122.666 -23.333 -159.999 -70s-56 -107.667 -56 -183s18.667 -136.333 56 -183s90.666 -70 159.999 -70s122.666 23.333 159.999 70s56 107.667 56 183s-18.667 136.333 -56 183s-90.666 70 -159.999 70zM529 794l-147 74l-147 -74v62l147 95l147 -95v-62z" />
    <glyph glyph-name="Otilde" unicode="&#xd5;" horiz-adv-x="764" 
d="M382 -14c-101.333 0 -184.166 33.333 -248.499 100s-96.5 154.667 -96.5 264s32.167 197.333 96.5 264s147.166 100 248.499 100s184.166 -33.333 248.499 -100s96.5 -154.667 96.5 -264s-32.167 -197.333 -96.5 -264s-147.166 -100 -248.499 -100zM382 603
c-69.333 0 -122.666 -23.333 -159.999 -70s-56 -107.667 -56 -183s18.667 -136.333 56 -183s90.666 -70 159.999 -70s122.666 23.333 159.999 70s56 107.667 56 183s-18.667 136.333 -56 183s-90.666 70 -159.999 70zM451 802c-17.333 0 -40.334 7.50098 -69.001 22.501
s-48.334 22.5 -59.001 22.5c-27.333 0 -46 -16 -56 -48l-68 17c4.66699 30.667 18.667 54.667 42 72s48.666 26 75.999 26c19.333 0 42.333 -7.33301 69 -22s45.334 -22 56.001 -22c14.667 0 27.334 4.66699 38.001 14s18.334 20.666 23.001 33.999l63 -16
c-6 -28 -19.333 -51.667 -40 -71s-45.667 -29 -75 -29z" />
    <glyph glyph-name="Odieresis" unicode="&#xd6;" horiz-adv-x="764" 
d="M382 -14c-101.333 0 -184.166 33.333 -248.499 100s-96.5 154.667 -96.5 264s32.167 197.333 96.5 264s147.166 100 248.499 100s184.166 -33.333 248.499 -100s96.5 -154.667 96.5 -264s-32.167 -197.333 -96.5 -264s-147.166 -100 -248.499 -100zM382 603
c-69.333 0 -122.666 -23.333 -159.999 -70s-56 -107.667 -56 -183s18.667 -136.333 56 -183s90.666 -70 159.999 -70s122.666 23.333 159.999 70s56 107.667 56 183s-18.667 136.333 -56 183s-90.666 70 -159.999 70zM506 799h-89v104h89v-104zM347 799h-89v104h89v-104z
" />
    <glyph glyph-name="multiply" unicode="&#xd7;" horiz-adv-x="446" 
d="M388 165l-53 -53l-112 112l-112 -112l-53 53l112 112l-112 112l53 53l112 -112l112 112l53 -53l-112 -112z" />
    <glyph glyph-name="Oslash" unicode="&#xd8;" horiz-adv-x="764" 
d="M382 -13c-60 0 -115.333 12.6689 -166 38.002l-38 -56h-121l78 114c-65.333 70.667 -98 159.667 -98 267c0 109.333 32.167 197.333 96.5 264s147.166 100 248.499 100c56 0 109.667 -12 161 -36l27 38h121l-67 -97c68.667 -68.667 103 -158.334 103 -269.001
c0 -108.667 -32.167 -196.334 -96.5 -263.001s-147.166 -100 -248.499 -100zM553 516.002l-270.999 -396.999c31.333 -13.333 64.666 -20 99.999 -20c69.333 0 122.5 23.167 159.5 69.5s55.5 107.166 55.5 182.499c0 68.667 -14.667 123.667 -44 165zM382.001 602.003
c-69.333 0 -122.499 -23.168 -159.499 -69.501s-55.5 -107.166 -55.5 -182.499c0 -61.333 13.667 -115.333 41 -162l269 394c-32.667 13.333 -64.334 20 -95.001 20z" />
    <glyph glyph-name="Ugrave" unicode="&#xd9;" horiz-adv-x="720" 
d="M360 -14c-96 0 -168.339 27.667 -217.006 83s-73 132 -73 230v401h118v-357c0 -36.667 2.33301 -68.334 7 -95.001s12.834 -52.167 24.501 -76.5s29.334 -42.833 53.001 -55.5s52.834 -19 87.501 -19s63.834 6.33301 87.501 19s41.334 31.167 53.001 55.5
s19.834 49.833 24.501 76.5s7 58.334 7 95.001v357h118v-401c0 -98 -24.333 -174.667 -73 -230s-121 -83 -217 -83zM452.994 791l-187 62v94l187 -92v-64z" />
    <glyph glyph-name="Uacute" unicode="&#xda;" horiz-adv-x="720" 
d="M360 -14c-96 0 -168.339 27.667 -217.006 83s-73 132 -73 230v401h118v-357c0 -36.667 2.33301 -68.334 7 -95.001s12.834 -52.167 24.501 -76.5s29.334 -42.833 53.001 -55.5s52.834 -19 87.501 -19s63.834 6.33301 87.501 19s41.334 31.167 53.001 55.5
s19.834 49.833 24.501 76.5s7 58.334 7 95.001v357h118v-401c0 -98 -24.333 -174.667 -73 -230s-121 -83 -217 -83zM452.994 853l-187 -62v64l187 92v-94z" />
    <glyph glyph-name="Ucircumflex" unicode="&#xdb;" horiz-adv-x="720" 
d="M360 -14c-96 0 -168.339 27.667 -217.006 83s-73 132 -73 230v401h118v-357c0 -36.667 2.33301 -68.334 7 -95.001s12.834 -52.167 24.501 -76.5s29.334 -42.833 53.001 -55.5s52.834 -19 87.501 -19s63.834 6.33301 87.501 19s41.334 31.167 53.001 55.5
s19.834 49.833 24.501 76.5s7 58.334 7 95.001v357h118v-401c0 -98 -24.333 -174.667 -73 -230s-121 -83 -217 -83zM506.994 794l-147 74l-147 -74v62l147 95l147 -95v-62z" />
    <glyph glyph-name="Udieresis" unicode="&#xdc;" horiz-adv-x="720" 
d="M360 -14c-96 0 -168.339 27.667 -217.006 83s-73 132 -73 230v401h118v-357c0 -36.667 2.33301 -68.334 7 -95.001s12.834 -52.167 24.501 -76.5s29.334 -42.833 53.001 -55.5s52.834 -19 87.501 -19s63.834 6.33301 87.501 19s41.334 31.167 53.001 55.5
s19.834 49.833 24.501 76.5s7 58.334 7 95.001v357h118v-401c0 -98 -24.333 -174.667 -73 -230s-121 -83 -217 -83zM483.994 799h-89v104h89v-104zM324.994 799h-89v104h89v-104z" />
    <glyph glyph-name="Yacute" unicode="&#xdd;" horiz-adv-x="589" 
d="M594 700l-240 -386v-314h-119v314l-241 386h125l175 -281l175 281h125zM391 853l-187 -62v64l187 92v-94z" />
    <glyph glyph-name="Thorn" unicode="&#xde;" horiz-adv-x="567" 
d="M250 197l-53 -0.000976562v-197h-119v700h119v-134h53c42 0 77.5 -1.16699 106.5 -3.5s56.333 -7.16602 82 -14.499s46 -17.5 61 -30.5s26.833 -30 35.5 -51s13 -46.5 13 -76.5c0 -71.333 -23.667 -121.333 -71 -150s-123 -43 -227 -43zM284 480.999h-87v-201h87
c52 0 89.167 8.66699 111.5 26s33.5 43.333 33.5 78s-10.833 59.5 -32.5 74.5s-59.167 22.5 -112.5 22.5z" />
    <glyph glyph-name="germandbls" unicode="&#xdf;" horiz-adv-x="564" 
d="M321 -15c-19.333 0 -38.334 1.33398 -57.001 4.00098v83c30 0 53.833 0.833008 71.5 2.5s34.334 5 50.001 10s26.834 12.667 33.501 23s10 23.833 10 40.5c0 20 -5 39.167 -15 57.5s-22.333 34 -37 47s-29.334 25.333 -44.001 37s-27 23.667 -37 36
s-15 24.166 -15 35.499s5 24.166 15 38.499s21.167 28 33.5 41s23.5 30.333 33.5 52s15 44.167 15 67.5c0 33.333 -9 57.833 -27 73.5s-39.333 23.5 -64 23.5c-27.333 0 -48.666 -8.66699 -63.999 -26s-23 -39.666 -23 -66.999v-700h-111v547h-72l10 89h62v59
c0 55.333 20.5 101 61.5 137s86.5 54 136.5 54c29.333 0 58.166 -5.83301 86.499 -17.5s53.5 -32 75.5 -61s33 -63.833 33 -104.5c0 -32.667 -7.33301 -63.5 -22 -92.5s-29.167 -52.333 -43.5 -70s-21.5 -29.834 -21.5 -36.501c0 -8 7.66699 -18.667 23 -32
s32.333 -27.166 51 -41.499s35.667 -34.833 51 -61.5s23 -55.667 23 -87c0 -54.667 -21 -95.167 -63 -121.5s-95 -39.5 -159 -39.5z" />
    <glyph glyph-name="agrave" unicode="&#xe0;" horiz-adv-x="493" 
d="M482 83l-10.998 -93.001h-34c-56.667 0 -95.334 20.667 -116.001 62c-36 -41.333 -86.667 -62 -152 -62c-42.667 0 -77.834 13.5 -105.501 40.5s-41.5 62.833 -41.5 107.5c0 32.667 9.66699 61.167 29 85.5s44.5 42.666 75.5 54.999s61.333 21.333 91 27
s59.5 8.83398 89.5 9.50098c-0.666992 33.333 -8.5 57 -23.5 71s-39.167 21 -72.5 21c-40.667 0 -85.334 -13.333 -134.001 -40l-12 92c56.667 31.333 115.667 47 177 47c60 0 104.833 -16.5 134.5 -49.5s44.5 -87.167 44.5 -162.5v-124
c0 -37.333 2.83301 -61.166 8.5 -71.499s18.834 -15.5 39.501 -15.5h13zM307.002 122.999v115c-49.333 -2 -89.5 -10.833 -120.5 -26.5s-46.5 -38.5 -46.5 -68.5c0 -43.333 23.333 -65 70 -65c16 0 33 4 51 12s33.333 19 46 33zM340.002 587.999l-187 62v94l187 -92v-64z
" />
    <glyph glyph-name="aacute" unicode="&#xe1;" horiz-adv-x="493" 
d="M482 83l-10.998 -93.001h-34c-56.667 0 -95.334 20.667 -116.001 62c-36 -41.333 -86.667 -62 -152 -62c-42.667 0 -77.834 13.5 -105.501 40.5s-41.5 62.833 -41.5 107.5c0 32.667 9.66699 61.167 29 85.5s44.5 42.666 75.5 54.999s61.333 21.333 91 27
s59.5 8.83398 89.5 9.50098c-0.666992 33.333 -8.5 57 -23.5 71s-39.167 21 -72.5 21c-40.667 0 -85.334 -13.333 -134.001 -40l-12 92c56.667 31.333 115.667 47 177 47c60 0 104.833 -16.5 134.5 -49.5s44.5 -87.167 44.5 -162.5v-124
c0 -37.333 2.83301 -61.166 8.5 -71.499s18.834 -15.5 39.501 -15.5h13zM307.002 122.999v115c-49.333 -2 -89.5 -10.833 -120.5 -26.5s-46.5 -38.5 -46.5 -68.5c0 -43.333 23.333 -65 70 -65c16 0 33 4 51 12s33.333 19 46 33zM340.002 649.999l-187 -62v64l187 92v-94z
" />
    <glyph glyph-name="acircumflex" unicode="&#xe2;" horiz-adv-x="493" 
d="M482 83l-10.998 -93.001h-34c-56.667 0 -95.334 20.667 -116.001 62c-36 -41.333 -86.667 -62 -152 -62c-42.667 0 -77.834 13.5 -105.501 40.5s-41.5 62.833 -41.5 107.5c0 32.667 9.66699 61.167 29 85.5s44.5 42.666 75.5 54.999s61.333 21.333 91 27
s59.5 8.83398 89.5 9.50098c-0.666992 33.333 -8.5 57 -23.5 71s-39.167 21 -72.5 21c-40.667 0 -85.334 -13.333 -134.001 -40l-12 92c56.667 31.333 115.667 47 177 47c60 0 104.833 -16.5 134.5 -49.5s44.5 -87.167 44.5 -162.5v-124
c0 -37.333 2.83301 -61.166 8.5 -71.499s18.834 -15.5 39.501 -15.5h13zM307.002 122.999v115c-49.333 -2 -89.5 -10.833 -120.5 -26.5s-46.5 -38.5 -46.5 -68.5c0 -43.333 23.333 -65 70 -65c16 0 33 4 51 12s33.333 19 46 33zM394.002 590.999l-147 74l-147 -74v62l147 95
l147 -95v-62z" />
    <glyph glyph-name="atilde" unicode="&#xe3;" horiz-adv-x="493" 
d="M482 83l-10.998 -93.001h-34c-56.667 0 -95.334 20.667 -116.001 62c-36 -41.333 -86.667 -62 -152 -62c-42.667 0 -77.834 13.5 -105.501 40.5s-41.5 62.833 -41.5 107.5c0 32.667 9.66699 61.167 29 85.5s44.5 42.666 75.5 54.999s61.333 21.333 91 27
s59.5 8.83398 89.5 9.50098c-0.666992 33.333 -8.5 57 -23.5 71s-39.167 21 -72.5 21c-40.667 0 -85.334 -13.333 -134.001 -40l-12 92c56.667 31.333 115.667 47 177 47c60 0 104.833 -16.5 134.5 -49.5s44.5 -87.167 44.5 -162.5v-124
c0 -37.333 2.83301 -61.166 8.5 -71.499s18.834 -15.5 39.501 -15.5h13zM307.002 122.999v115c-49.333 -2 -89.5 -10.833 -120.5 -26.5s-46.5 -38.5 -46.5 -68.5c0 -43.333 23.333 -65 70 -65c16 0 33 4 51 12s33.333 19 46 33zM312.002 598.999
c-17.333 0 -40.334 7.50098 -69.001 22.501s-48.334 22.5 -59.001 22.5c-27.333 0 -46 -16 -56 -48l-68 17c4.66699 30.667 18.667 54.667 42 72s48.666 26 75.999 26c19.333 0 42.333 -7.33301 69 -22s45.334 -22 56.001 -22c14.667 0 27.334 4.66699 38.001 14
s18.334 20.666 23.001 33.999l63 -16c-6 -28 -19.333 -51.667 -40 -71s-45.667 -29 -75 -29z" />
    <glyph glyph-name="adieresis" unicode="&#xe4;" horiz-adv-x="493" 
d="M482 83l-10.998 -93.001h-34c-56.667 0 -95.334 20.667 -116.001 62c-36 -41.333 -86.667 -62 -152 -62c-42.667 0 -77.834 13.5 -105.501 40.5s-41.5 62.833 -41.5 107.5c0 32.667 9.66699 61.167 29 85.5s44.5 42.666 75.5 54.999s61.333 21.333 91 27
s59.5 8.83398 89.5 9.50098c-0.666992 33.333 -8.5 57 -23.5 71s-39.167 21 -72.5 21c-40.667 0 -85.334 -13.333 -134.001 -40l-12 92c56.667 31.333 115.667 47 177 47c60 0 104.833 -16.5 134.5 -49.5s44.5 -87.167 44.5 -162.5v-124
c0 -37.333 2.83301 -61.166 8.5 -71.499s18.834 -15.5 39.501 -15.5h13zM307.002 122.999v115c-49.333 -2 -89.5 -10.833 -120.5 -26.5s-46.5 -38.5 -46.5 -68.5c0 -43.333 23.333 -65 70 -65c16 0 33 4 51 12s33.333 19 46 33zM371.002 595.999h-89v104h89v-104z
M212.002 595.999h-89v104h89v-104z" />
    <glyph glyph-name="aring" unicode="&#xe5;" horiz-adv-x="493" 
d="M482 83l-10.998 -93.001h-34c-56.667 0 -95.334 20.667 -116.001 62c-36 -41.333 -86.667 -62 -152 -62c-42.667 0 -77.834 13.5 -105.501 40.5s-41.5 62.833 -41.5 107.5c0 32.667 9.66699 61.167 29 85.5s44.5 42.666 75.5 54.999s61.333 21.333 91 27
s59.5 8.83398 89.5 9.50098c-0.666992 33.333 -8.5 57 -23.5 71s-39.167 21 -72.5 21c-40.667 0 -85.334 -13.333 -134.001 -40l-12 92c56.667 31.333 115.667 47 177 47c60 0 104.833 -16.5 134.5 -49.5s44.5 -87.167 44.5 -162.5v-124
c0 -37.333 2.83301 -61.166 8.5 -71.499s18.834 -15.5 39.501 -15.5h13zM307.002 122.999v115c-49.333 -2 -89.5 -10.833 -120.5 -26.5s-46.5 -38.5 -46.5 -68.5c0 -43.333 23.333 -65 70 -65c16 0 33 4 51 12s33.333 19 46 33zM247.002 575.999
c-32 0 -57.333 8.49805 -76 25.498s-28 38.167 -28 63.5c0 24.667 9.5 45.834 28.5 63.501s44.167 26.5 75.5 26.5c32 0 57.333 -8.66699 76 -26s28 -38.666 28 -63.999s-9.33301 -46.5 -28 -63.5s-44 -25.5 -76 -25.5zM247.002 711.997c-13.333 0 -24.833 -4.5 -34.5 -13.5
s-14.5 -20.167 -14.5 -33.5c0 -14 4.66699 -25.333 14 -34s21 -13 35 -13s25.667 4.33301 35 13s14 20 14 34c0 13.333 -4.83301 24.5 -14.5 33.5s-21.167 13.5 -34.5 13.5z" />
    <glyph glyph-name="ae" unicode="&#xe6;" horiz-adv-x="797" 
d="M761 230l-323.003 0.000976562c4.66699 -48.667 20.834 -85.334 48.501 -110.001s61.5 -37 101.5 -37c45.333 0 94.666 13 147.999 39l9 -93c-50.667 -26 -105.667 -39 -165 -39c-98.667 0 -165.334 33.333 -200.001 100c-45.333 -70 -111.333 -105 -198 -105
c-51.333 0 -90.833 12.333 -118.5 37s-41.5 58.667 -41.5 102c0 29.333 6.83301 55.333 20.5 78s30.334 40.5 50.001 53.5s43.334 23.833 71.001 32.5s52.834 14.5 75.501 17.5s46.334 5.16699 71.001 6.5c-3.33301 34 -12.333 58.333 -27 73s-38.667 22 -72 22
c-40 0 -84.333 -11.667 -133 -35l-10 91c60.667 28.667 118.334 43 173.001 43c84 0 135.333 -33 154 -99c10 28.667 31.667 52.334 65 71.001s70.666 28 111.999 28c58.667 0 106 -19 142 -57s54 -89.333 54 -154c0 -18.667 -2.33301 -40.334 -7 -65.001zM567.997 410.001
c-31.333 0 -58.168 -9 -80.501 -27s-37.166 -43.333 -44.499 -76h222c0 30 -8 54.667 -24 74s-40.333 29 -73 29zM317.995 235.001c-28 -0.666992 -54.666 -3.99902 -79.999 -9.99902s-48 -17 -68 -33s-30 -35.333 -30 -58c0 -18.667 6.16699 -33.167 18.5 -43.5
s28.166 -15.5 47.499 -15.5c28.667 0 54.667 11 78 33s35 53 35 93c0 13.333 -0.333008 24.666 -1 33.999z" />
    <glyph glyph-name="ccedilla" unicode="&#xe7;" horiz-adv-x="450" 
d="M273 -10c-77.333 0 -137.166 24.668 -179.499 74.001s-63.5 110.666 -63.5 183.999c0 74 21.167 135.5 63.5 184.5s102.166 73.5 179.499 73.5c62 0 112 -11.667 150 -35l-12 -98c-41.333 24.667 -84 37 -128 37s-77.833 -14.5 -101.5 -43.5s-35.5 -68.5 -35.5 -118.5
c0 -49.333 12 -88.833 36 -118.5s57.667 -44.5 101 -44.5c44 0 87 12.333 129 37l11 -95c-38 -24.667 -88 -37 -150 -37zM336 -52.999l-96 -133l-65 -7l69 132z" />
    <glyph glyph-name="egrave" unicode="&#xe8;" horiz-adv-x="514" 
d="M479 230h-333.002c6.66699 -50 24.834 -86.667 54.501 -110s64.834 -35 105.501 -35c50.667 0 100.667 12.333 150 37l8 -94c-50.667 -25.333 -106 -38 -166 -38c-85.333 0 -151.5 24.667 -198.5 74s-70.5 111 -70.5 185c0 72 21.5 132.833 64.5 182.5
s101.5 74.5 175.5 74.5c63.333 0 115.333 -19.5 156 -58.5s61 -90.833 61 -155.5c0 -16 -2.33301 -36.667 -7 -62zM270.998 410c-65.333 0 -105.334 -34.333 -120.001 -103h219c0 28.667 -8.16699 53 -24.5 73s-41.166 30 -74.499 30zM349.997 588l-187 62v94l187 -92v-64z
" />
    <glyph glyph-name="eacute" unicode="&#xe9;" horiz-adv-x="514" 
d="M479 230h-333.002c6.66699 -50 24.834 -86.667 54.501 -110s64.834 -35 105.501 -35c50.667 0 100.667 12.333 150 37l8 -94c-50.667 -25.333 -106 -38 -166 -38c-85.333 0 -151.5 24.667 -198.5 74s-70.5 111 -70.5 185c0 72 21.5 132.833 64.5 182.5
s101.5 74.5 175.5 74.5c63.333 0 115.333 -19.5 156 -58.5s61 -90.833 61 -155.5c0 -16 -2.33301 -36.667 -7 -62zM270.998 410c-65.333 0 -105.334 -34.333 -120.001 -103h219c0 28.667 -8.16699 53 -24.5 73s-41.166 30 -74.499 30zM349.997 650l-187 -62v64l187 92v-94z
" />
    <glyph glyph-name="ecircumflex" unicode="&#xea;" horiz-adv-x="514" 
d="M479 230h-333.002c6.66699 -50 24.834 -86.667 54.501 -110s64.834 -35 105.501 -35c50.667 0 100.667 12.333 150 37l8 -94c-50.667 -25.333 -106 -38 -166 -38c-85.333 0 -151.5 24.667 -198.5 74s-70.5 111 -70.5 185c0 72 21.5 132.833 64.5 182.5
s101.5 74.5 175.5 74.5c63.333 0 115.333 -19.5 156 -58.5s61 -90.833 61 -155.5c0 -16 -2.33301 -36.667 -7 -62zM270.998 410c-65.333 0 -105.334 -34.333 -120.001 -103h219c0 28.667 -8.16699 53 -24.5 73s-41.166 30 -74.499 30zM402.997 591l-147 74l-147 -74v62
l147 95l147 -95v-62z" />
    <glyph glyph-name="edieresis" unicode="&#xeb;" horiz-adv-x="514" 
d="M479 230h-333.002c6.66699 -50 24.834 -86.667 54.501 -110s64.834 -35 105.501 -35c50.667 0 100.667 12.333 150 37l8 -94c-50.667 -25.333 -106 -38 -166 -38c-85.333 0 -151.5 24.667 -198.5 74s-70.5 111 -70.5 185c0 72 21.5 132.833 64.5 182.5
s101.5 74.5 175.5 74.5c63.333 0 115.333 -19.5 156 -58.5s61 -90.833 61 -155.5c0 -16 -2.33301 -36.667 -7 -62zM270.998 410c-65.333 0 -105.334 -34.333 -120.001 -103h219c0 28.667 -8.16699 53 -24.5 73s-41.166 30 -74.499 30zM379.997 596h-89v104h89v-104z
M220.997 596h-89v104h89v-104z" />
    <glyph glyph-name="igrave" unicode="&#xec;" 
d="M174 0h-114v497h114v-497zM211 588l-187 62v94l187 -92v-64z" />
    <glyph glyph-name="iacute" unicode="&#xed;" 
d="M174 0h-114v497h114v-497zM211 650l-187 -62v64l187 92v-94z" />
    <glyph glyph-name="icircumflex" unicode="&#xee;" 
d="M174 0h-114v497h114v-497zM264 591l-147 74l-147 -74v62l147 95l147 -95v-62z" />
    <glyph glyph-name="idieresis" unicode="&#xef;" 
d="M174 0h-114v497h114v-497zM241 596h-89v104h89v-104zM82 596h-89v104h89v-104z" />
    <glyph glyph-name="eth" unicode="&#xf0;" horiz-adv-x="517" 
d="M245 -13c-64 0 -117.332 20.498 -159.999 61.498s-64 92.833 -64 155.5c0 58.667 18.5 110.334 55.5 155.001s88.833 67 155.5 67c48.667 0 89.667 -14.667 123 -44c-2.66699 25.333 -11.334 55.666 -26.001 90.999s-30.667 59.333 -48 72
c-44.667 -33.333 -90.667 -53 -138 -59l-36 68c35.333 1.33301 76 16.666 122 45.999c-39.333 34 -79 51 -119 51l39 50c49.333 -1.33301 98 -19 146 -53c23.333 21.333 42.333 42.333 57 63l60 -15c-23.333 -35.333 -46.333 -65.666 -69 -90.999
c40.667 -41.333 73.167 -92.666 97.5 -153.999s36.5 -125.666 36.5 -192.999c0 -50.667 -7.16699 -94.667 -21.5 -132s-33.333 -65.5 -57 -84.5s-48.167 -32.833 -73.5 -41.5s-52 -13 -80 -13zM246.001 332.998c-35.333 0 -62.999 -11.666 -82.999 -34.999
s-30 -50.333 -30 -81c0 -38 10.167 -69.833 30.5 -95.5s48.5 -38.5 84.5 -38.5c31.333 0 57.666 10.833 78.999 32.5s32 52.167 32 91.5s-9.83301 70.166 -29.5 92.499s-47.5 33.5 -83.5 33.5z" />
    <glyph glyph-name="ntilde" unicode="&#xf1;" horiz-adv-x="555" 
d="M501 0l-112.999 -0.000976562v269c0 48.667 -8.5 84.334 -25.5 107.001s-44.5 34 -82.5 34c-46.667 0 -82.334 -16.333 -107.001 -49v-361h-113v497h102l4 -37c38.667 30.667 80.667 46 126 46c139.333 0 209 -79 209 -237v-269zM347.001 598.999
c-17.333 0 -40.334 7.50098 -69.001 22.501s-48.334 22.5 -59.001 22.5c-27.333 0 -46 -16 -56 -48l-68 17c4.66699 30.667 18.667 54.667 42 72s48.666 26 75.999 26c19.333 0 42.333 -7.33301 69 -22s45.334 -22 56.001 -22c14.667 0 27.334 4.66699 38.001 14
s18.334 20.666 23.001 33.999l63 -16c-6 -28 -19.333 -51.667 -40 -71s-45.667 -29 -75 -29z" />
    <glyph glyph-name="ograve" unicode="&#xf2;" horiz-adv-x="558" 
d="M279 -10c-76.667 0 -137.5 24.667 -182.5 74s-67.5 110.666 -67.5 183.999c0 72.667 22.5 133.834 67.5 183.501s105.833 74.5 182.5 74.5s137.5 -24.833 182.5 -74.5s67.5 -110.834 67.5 -183.501c0 -73.333 -22.5 -134.666 -67.5 -183.999s-105.833 -74 -182.5 -74z
M279 410c-42 0 -74.833 -14.667 -98.5 -44s-35.5 -68.666 -35.5 -117.999c0 -50 11.833 -89.667 35.5 -119s56.5 -44 98.5 -44s74.833 14.667 98.5 44s35.5 69 35.5 119c0 49.333 -11.833 88.666 -35.5 117.999s-56.5 44 -98.5 44zM372 588l-187 62v94l187 -92v-64z" />
    <glyph glyph-name="oacute" unicode="&#xf3;" horiz-adv-x="558" 
d="M279 -10c-76.667 0 -137.5 24.667 -182.5 74s-67.5 110.666 -67.5 183.999c0 72.667 22.5 133.834 67.5 183.501s105.833 74.5 182.5 74.5s137.5 -24.833 182.5 -74.5s67.5 -110.834 67.5 -183.501c0 -73.333 -22.5 -134.666 -67.5 -183.999s-105.833 -74 -182.5 -74z
M279 410c-42 0 -74.833 -14.667 -98.5 -44s-35.5 -68.666 -35.5 -117.999c0 -50 11.833 -89.667 35.5 -119s56.5 -44 98.5 -44s74.833 14.667 98.5 44s35.5 69 35.5 119c0 49.333 -11.833 88.666 -35.5 117.999s-56.5 44 -98.5 44zM372 650l-187 -62v64l187 92v-94z" />
    <glyph glyph-name="ocircumflex" unicode="&#xf4;" horiz-adv-x="558" 
d="M279 -10c-76.667 0 -137.5 24.667 -182.5 74s-67.5 110.666 -67.5 183.999c0 72.667 22.5 133.834 67.5 183.501s105.833 74.5 182.5 74.5s137.5 -24.833 182.5 -74.5s67.5 -110.834 67.5 -183.501c0 -73.333 -22.5 -134.666 -67.5 -183.999s-105.833 -74 -182.5 -74z
M279 410c-42 0 -74.833 -14.667 -98.5 -44s-35.5 -68.666 -35.5 -117.999c0 -50 11.833 -89.667 35.5 -119s56.5 -44 98.5 -44s74.833 14.667 98.5 44s35.5 69 35.5 119c0 49.333 -11.833 88.666 -35.5 117.999s-56.5 44 -98.5 44zM426 591l-147 74l-147 -74v62l147 95
l147 -95v-62z" />
    <glyph glyph-name="otilde" unicode="&#xf5;" horiz-adv-x="558" 
d="M279 -10c-76.667 0 -137.5 24.667 -182.5 74s-67.5 110.666 -67.5 183.999c0 72.667 22.5 133.834 67.5 183.501s105.833 74.5 182.5 74.5s137.5 -24.833 182.5 -74.5s67.5 -110.834 67.5 -183.501c0 -73.333 -22.5 -134.666 -67.5 -183.999s-105.833 -74 -182.5 -74z
M279 410c-42 0 -74.833 -14.667 -98.5 -44s-35.5 -68.666 -35.5 -117.999c0 -50 11.833 -89.667 35.5 -119s56.5 -44 98.5 -44s74.833 14.667 98.5 44s35.5 69 35.5 119c0 49.333 -11.833 88.666 -35.5 117.999s-56.5 44 -98.5 44zM348 599
c-17.333 0 -40.334 7.50098 -69.001 22.501s-48.334 22.5 -59.001 22.5c-27.333 0 -46 -16 -56 -48l-68 17c4.66699 30.667 18.667 54.667 42 72s48.666 26 75.999 26c19.333 0 42.333 -7.33301 69 -22s45.334 -22 56.001 -22c14.667 0 27.334 4.66699 38.001 14
s18.334 20.666 23.001 33.999l63 -16c-6 -28 -19.333 -51.667 -40 -71s-45.667 -29 -75 -29z" />
    <glyph glyph-name="odieresis" unicode="&#xf6;" horiz-adv-x="558" 
d="M279 -10c-76.667 0 -137.5 24.667 -182.5 74s-67.5 110.666 -67.5 183.999c0 72.667 22.5 133.834 67.5 183.501s105.833 74.5 182.5 74.5s137.5 -24.833 182.5 -74.5s67.5 -110.834 67.5 -183.501c0 -73.333 -22.5 -134.666 -67.5 -183.999s-105.833 -74 -182.5 -74z
M279 410c-42 0 -74.833 -14.667 -98.5 -44s-35.5 -68.666 -35.5 -117.999c0 -50 11.833 -89.667 35.5 -119s56.5 -44 98.5 -44s74.833 14.667 98.5 44s35.5 69 35.5 119c0 49.333 -11.833 88.666 -35.5 117.999s-56.5 44 -98.5 44zM403 596h-89v104h89v-104zM244 596h-89
v104h89v-104z" />
    <glyph glyph-name="divide" unicode="&#xf7;" horiz-adv-x="574" 
d="M339 415h-113v119h113v-119zM517 235h-460v87h460v-87zM339 20h-113v119h113v-119z" />
    <glyph glyph-name="oslash" unicode="&#xf8;" horiz-adv-x="563" 
d="M282 -9c-22.667 0 -47.667 3 -75 9l-17 -36h-95l35 73c-67.333 49.333 -101 120 -101 212c0 72.667 22.833 133.834 68.5 183.501s107.167 74.5 184.5 74.5c22 0 46 -3 72 -9l17 36h98l-36 -72c68 -52 102 -123 102 -213c0 -72.667 -22.833 -133.834 -68.5 -183.501
s-107.167 -74.5 -184.5 -74.5zM386 364l-137.001 -278c16 -2 27 -3 33 -3c42.667 0 75.834 15.333 99.501 46s35.5 70.667 35.5 120c0 52 -10.333 90.333 -31 115zM280.999 415c-42 0 -74.833 -15.168 -98.5 -45.501s-35.5 -70.5 -35.5 -120.5
c0 -41.333 10 -79.666 30 -114.999l135 278c-10 2 -20.333 3 -31 3z" />
    <glyph glyph-name="ugrave" unicode="&#xf9;" horiz-adv-x="544" 
d="M484 0l-103.999 -0.000976562l-5 37c-32.667 -31.333 -72.334 -47 -119.001 -47c-134.667 0 -202 77.667 -202 233v274h113v-266c0 -49.333 8.33301 -85.666 25 -108.999s43 -35 79 -35c44 0 77.333 15.333 100 46v364h113v-497zM370.001 587.999l-187 62v94l187 -92v-64
z" />
    <glyph glyph-name="uacute" unicode="&#xfa;" horiz-adv-x="544" 
d="M484 0l-103.999 -0.000976562l-5 37c-32.667 -31.333 -72.334 -47 -119.001 -47c-134.667 0 -202 77.667 -202 233v274h113v-266c0 -49.333 8.33301 -85.666 25 -108.999s43 -35 79 -35c44 0 77.333 15.333 100 46v364h113v-497zM370.001 649.999l-187 -62v64l187 92v-94
z" />
    <glyph glyph-name="ucircumflex" unicode="&#xfb;" horiz-adv-x="544" 
d="M484 0l-103.999 -0.000976562l-5 37c-32.667 -31.333 -72.334 -47 -119.001 -47c-134.667 0 -202 77.667 -202 233v274h113v-266c0 -49.333 8.33301 -85.666 25 -108.999s43 -35 79 -35c44 0 77.333 15.333 100 46v364h113v-497zM424.001 590.999l-147 74l-147 -74v62
l147 95l147 -95v-62z" />
    <glyph glyph-name="udieresis" unicode="&#xfc;" horiz-adv-x="544" 
d="M484 0l-103.999 -0.000976562l-5 37c-32.667 -31.333 -72.334 -47 -119.001 -47c-134.667 0 -202 77.667 -202 233v274h113v-266c0 -49.333 8.33301 -85.666 25 -108.999s43 -35 79 -35c44 0 77.333 15.333 100 46v364h113v-497zM401.001 595.999h-89v104h89v-104z
M242.001 595.999h-89v104h89v-104z" />
    <glyph glyph-name="yacute" unicode="&#xfd;" horiz-adv-x="530" 
d="M525 497l-309 -739h-117l112 272l-207 467h126l136 -335l133 335h126zM358 650l-187 -62v64l187 92v-94z" />
    <glyph glyph-name="thorn" unicode="&#xfe;" horiz-adv-x="577" 
d="M301 -10c-52 0 -94.666 14.667 -127.999 44v-276h-113v992h113v-287c36.667 28.667 80 43 130 43c75.333 0 134.833 -24.833 178.5 -74.5s65.5 -110.834 65.5 -183.501c0 -73.333 -21.833 -134.666 -65.5 -183.999s-103.834 -74 -180.501 -74zM293.001 410
c-42.667 0 -74.334 -14.4971 -95.001 -43.4971s-31 -68.5 -31 -118.5c0 -50.667 10.333 -90.834 31 -120.501s52.334 -44.5 95.001 -44.5c43.333 0 77.166 15.167 101.499 45.5s36.5 70.166 36.5 119.499s-12.167 88.666 -36.5 117.999s-58.166 44 -101.499 44z" />
    <glyph glyph-name="ydieresis" unicode="&#xff;" horiz-adv-x="530" 
d="M525 497l-309 -739h-117l112 272l-207 467h126l136 -335l133 335h126zM388 596h-89v104h89v-104zM229 596h-89v104h89v-104z" />
    <glyph glyph-name="dotlessi" unicode="&#x131;" 
d="M174 0h-114v497h114v-497z" />
    <glyph glyph-name="OE" unicode="&#x152;" horiz-adv-x="1067" 
d="M1031 0h-428v64c-68 -52 -142.333 -78 -223 -78c-100.667 0 -183 33.333 -247 100s-96 154.667 -96 264s32 197.333 96 264s146.333 100 247 100c80.667 0 155 -26 223 -78v64h419v-112h-300v-167h231v-112h-231v-197h309v-112zM380 603
c-69.333 0 -122.5 -23.333 -159.5 -70s-55.5 -107.667 -55.5 -183s18.5 -136.333 55.5 -183s90.167 -70 159.5 -70s122.5 23.333 159.5 70s55.5 107.667 55.5 183s-18.5 136.333 -55.5 183s-90.167 70 -159.5 70z" />
    <glyph glyph-name="oe" unicode="&#x153;" horiz-adv-x="897" 
d="M862 230h-328.999c4.66699 -51.333 21.834 -88.666 51.501 -111.999s63.167 -35 100.5 -35c52 0 103.333 13 154 39l7 -96c-46.667 -24 -100.667 -36 -162 -36c-98 0 -168.333 29.667 -211 89c-19.333 -28 -46 -49.833 -80 -65.5s-71.667 -23.5 -113 -23.5
c-76.667 0 -137.667 24.833 -183 74.5s-68 111.167 -68 184.5s22.667 134.5 68 183.5s106.666 73.5 183.999 73.5c40 0 76.667 -7.66699 110 -23s59.666 -36.666 78.999 -63.999c20 27.333 45.833 48.666 77.5 63.999s66.167 23 103.5 23c64 0 116.333 -19.333 157 -58
s61 -90.334 61 -155.001c0 -21.333 -2.33301 -42.333 -7 -63zM654.001 410c-64.667 0 -104 -34.333 -118 -103h218c-1.33301 29.333 -10.333 53.833 -27 73.5s-41 29.5 -73 29.5zM281.001 410c-42.667 0 -76 -14.5 -100 -43.5s-36 -68.5 -36 -118.5
s11.833 -89.667 35.5 -119s57.167 -44 100.5 -44c42.667 0 75.667 15.167 99 45.5s35 69.833 35 118.5s-11.833 87.667 -35.5 117s-56.5 44 -98.5 44z" />
    <glyph glyph-name="Scaron" unicode="&#x160;" horiz-adv-x="583" 
d="M280 -14c-49.333 0 -94.501 4.66699 -135.501 14s-72.833 21 -95.5 35l15 135c22.667 -20.667 53 -38 91 -52s80.667 -21 128 -21c92 0 138 28.667 138 86c0 14 -3.33301 27 -10 39s-14.167 21.833 -22.5 29.5s-21.166 15.667 -38.499 24s-31.833 14.666 -43.5 18.999
s-29.5 10.5 -53.5 18.5c-28.667 9.33301 -50 16.666 -64 21.999s-32.5 13.833 -55.5 25.5s-40 23.334 -51 35.001s-21 27.167 -30 46.5s-13.5 40.666 -13.5 63.999c0 24.667 4.5 48.667 13.5 72s22.833 45.5 41.5 66.5s45 37.833 79 50.5s73.667 19 119 19
c43.333 0 85.833 -5.33301 127.5 -16s73.167 -22.667 94.5 -36l-12 -122c-78.667 42 -146.667 63 -204 63c-36 0 -67.833 -6.5 -95.5 -19.5s-41.5 -34.167 -41.5 -63.5c0 -18.667 7.33301 -35 22 -49s30.667 -24.5 48 -31.5s42 -15.5 74 -25.5
c26 -8 45.5 -14.167 58.5 -18.5s31.167 -11.333 54.5 -21s41.333 -19.5 54 -29.5s26 -22.5 40 -37.5s24.167 -32.667 30.5 -53s9.5 -42.833 9.5 -67.5c0 -18 -1.66699 -35 -5 -51s-10.833 -33.667 -22.5 -53s-26.834 -35.666 -45.501 -48.999s-45.167 -24.666 -79.5 -33.999
s-74.166 -14 -119.499 -14zM437.999 886l-147 -93l-147 93v64l147 -73l147 73v-64z" />
    <glyph glyph-name="scaron" unicode="&#x161;" horiz-adv-x="421" 
d="M201 -10c-74 0 -130.334 13.002 -169.001 39.002l11 100c16 -12.667 38.5 -24.167 67.5 -34.5s57.833 -15.5 86.5 -15.5s49.667 5.33301 63 16s20 24.334 20 41.001c0 14 -5.33301 26.167 -16 36.5s-21.167 17.666 -31.5 21.999s-25.833 9.5 -46.5 15.5
c-23.333 6.66699 -41.166 12.5 -53.499 17.5s-27 12.667 -44 23s-29.5 23.666 -37.5 39.999s-12 36.166 -12 59.499c0 42 14.667 78.5 44 109.5s75.666 46.5 138.999 46.5c60.667 0 110.667 -12 150 -36l-11 -98c-37.333 33.333 -81.333 50 -132 50
c-25.333 0 -46.166 -4.66699 -62.499 -14s-24.5 -24 -24.5 -44c0 -15.333 5.66699 -28 17 -38s23 -17 35 -21s32.667 -9.66699 62 -17c92 -24 138 -74.333 138 -151c0 -18 -2.5 -34.667 -7.5 -50s-14 -30.833 -27 -46.5s-33 -28 -60 -37s-59.833 -13.5 -98.5 -13.5z
M352.999 683.002l-147 -93l-147 93v64l147 -73l147 73v-64z" />
    <glyph glyph-name="Ydieresis" unicode="&#x178;" horiz-adv-x="589" 
d="M594 700l-240 -386v-314h-119v314l-241 386h125l175 -281l175 281h125zM422 799h-89v104h89v-104zM263 799h-89v104h89v-104z" />
    <glyph glyph-name="Zcaron" unicode="&#x17d;" horiz-adv-x="550" 
d="M542 700l-339 -588h294v-112h-488l339 588h-294v112h488zM424 886l-147 -93l-147 93v64l147 -73l147 73v-64z" />
    <glyph glyph-name="zcaron" unicode="&#x17e;" horiz-adv-x="475" 
d="M452 497l-234 -399h225v-98h-420l233 399h-223v98h419zM385 683l-147 -93l-147 93v64l147 -73l147 73v-64z" />
    <glyph glyph-name="florin" unicode="&#x192;" horiz-adv-x="356" 
d="M376 702l-9.00195 -82.001c-17.333 5.33301 -31.666 8 -42.999 8c-32.667 0 -56.167 -9.5 -70.5 -28.5s-25.5 -53.167 -33.5 -102.5h134l-8 -74h-138l-81 -507c-8.66699 -54 -25 -93.833 -49 -119.5s-47 -38.5 -69 -38.5h-25l-18 90c20 1.33301 35.333 8 46 20
s18.334 34.333 23.001 67l74 488h-83l8 74h86l7 46c8 52.667 29 94.334 63 125.001s74.667 46 122 46c20.667 0 42 -4 64 -12z" />
    <glyph glyph-name="uni0237" unicode="&#x237;" 
d="M47 -240l-40 -2.00098l-11 92c28.667 1.33301 46.5 6.33301 53.5 15s10.5 32.334 10.5 71.001v561h114v-607c0 -39.333 -11.5 -70.5 -34.5 -93.5s-53.833 -35.167 -92.5 -36.5z" />
    <glyph glyph-name="circumflex" unicode="&#x2c6;" horiz-adv-x="446" 
d="M370 591l-147 74l-147 -74v62l147 95l147 -95v-62z" />
    <glyph glyph-name="caron" unicode="&#x2c7;" horiz-adv-x="446" 
d="M370 683l-147 -93l-147 93v64l147 -73l147 73v-64z" />
    <glyph glyph-name="ring" unicode="&#x2da;" horiz-adv-x="292" 
d="M146 576c-32 0 -57.333 8.49805 -76 25.498s-28 38.167 -28 63.5c0 24.667 9.5 45.834 28.5 63.501s44.167 26.5 75.5 26.5c32 0 57.333 -8.66699 76 -26s28 -38.666 28 -63.999s-9.33301 -46.5 -28 -63.5s-44 -25.5 -76 -25.5zM146 711.998
c-13.333 0 -24.833 -4.5 -34.5 -13.5s-14.5 -20.167 -14.5 -33.5c0 -14 4.66699 -25.333 14 -34s21 -13 35 -13s25.667 4.33301 35 13s14 20 14 34c0 13.333 -4.83301 24.5 -14.5 33.5s-21.167 13.5 -34.5 13.5z" />
    <glyph glyph-name="tilde" unicode="&#x2dc;" horiz-adv-x="528" 
d="M333 599c-17.333 0 -40.334 7.50098 -69.001 22.501s-48.334 22.5 -59.001 22.5c-27.333 0 -46 -16 -56 -48l-68 17c4.66699 30.667 18.667 54.667 42 72s48.666 26 75.999 26c19.333 0 42.333 -7.33301 69 -22s45.334 -22 56.001 -22c14.667 0 27.334 4.66699 38.001 14
s18.334 20.666 23.001 33.999l63 -16c-6 -28 -19.333 -51.667 -40 -71s-45.667 -29 -75 -29z" />
    <glyph glyph-name="endash" unicode="&#x2013;" horiz-adv-x="498" 
d="M443 232h-388v92h388v-92z" />
    <glyph glyph-name="emdash" unicode="&#x2014;" horiz-adv-x="590" 
d="M535 232h-480v92h480v-92z" />
    <glyph glyph-name="quoteleft" unicode="&#x2018;" horiz-adv-x="202" 
d="M43 640l92 110l25 -14l-34 -86l33 -10v-116h-116v116z" />
    <glyph glyph-name="quoteright" unicode="&#x2019;" horiz-adv-x="185" 
d="M158 634l-92 -110l-25 14l33 86l-33 10v116h117v-116z" />
    <glyph glyph-name="quotesinglbase" unicode="&#x201a;" horiz-adv-x="227" 
d="M172 0l-92 -110l-25 14l33 86l-33 10v116h117v-116z" />
    <glyph glyph-name="quotedblleft" unicode="&#x201c;" horiz-adv-x="412" 
d="M43 640l92 110l25 -14l-34 -86l33 -10v-116h-116v116zM253 640l92 110l25 -14l-34 -86l33 -10v-116h-116v116z" />
    <glyph glyph-name="quotedblright" unicode="&#x201d;" horiz-adv-x="395" 
d="M368 634l-92 -110l-25 14l33 86l-33 10v116h117v-116zM158 634l-92 -110l-25 14l33 86l-33 10v116h117v-116z" />
    <glyph glyph-name="quotedblbase" unicode="&#x201e;" horiz-adv-x="457" 
d="M172 0l-92 -110l-25 14l33 86l-33 10v116h117v-116zM402 0l-92 -110l-25 14l33 86l-33 10v116h117v-116z" />
    <glyph glyph-name="dagger" unicode="&#x2020;" horiz-adv-x="424" 
d="M389 356l-139 28l32 -129l-30 -255h-80l-30 255l32 129l-139 -28v118l139 -28l-31 161h138l-31 -161l139 28v-118z" />
    <glyph glyph-name="daggerdbl" unicode="&#x2021;" horiz-adv-x="460" 
d="M407 74l-139 27l31 -160h-138l31 160l-139 -27v117l140 -28l-33 111l33 111l-140 -27v117l139 -28l-31 160h138l-31 -160l139 28v-117l-140 27l33 -111l-33 -111l140 28v-117z" />
    <glyph glyph-name="bullet" unicode="&#x2022;" horiz-adv-x="302" 
d="M151 169c-30 0 -55.667 10.667 -77 32s-32 47 -32 77s10.667 55.667 32 77s47 32 77 32s55.667 -10.667 77 -32s32 -47 32 -77s-10.667 -55.667 -32 -77s-47 -32 -77 -32z" />
    <glyph glyph-name="ellipsis" unicode="&#x2026;" horiz-adv-x="696" 
d="M169 0h-114v116h114v-116zM405 0h-114v116h114v-116zM641 0h-114v116h114v-116z" />
    <glyph glyph-name="perthousand" unicode="&#x2030;" horiz-adv-x="1202" 
d="M655 -10c-44.667 0 -80.833 16.501 -108.5 49.501s-41.5 77.167 -41.5 132.5c0 57.333 14.833 103.166 44.5 137.499s66.5 51.5 110.5 51.5s79.833 -16.333 107.5 -49s41.5 -76.667 41.5 -132c0 -58 -14 -104.167 -42 -138.5s-65.333 -51.5 -112 -51.5zM669.001 700.001
l-421 -712h-95l421 712h95zM184.001 334.001c-44.667 0 -80.667 16.501 -108 49.501s-41 77.167 -41 132.5c0 56.667 14.667 102.167 44 136.5s66 51.5 110 51.5c43.333 0 79 -16.333 107 -49s42 -76.334 42 -131.001c0 -58 -14.167 -104.167 -42.5 -138.5
s-65.5 -51.5 -111.5 -51.5zM658.001 296.002c-23.333 0 -42.833 -10.667 -58.5 -32s-23.5 -52 -23.5 -92c0 -38.667 7.16699 -67.667 21.5 -87s33.5 -29 57.5 -29c25.333 0 45.333 10.333 60 31s22 51.667 22 93c0 37.333 -7.5 66 -22.5 86s-33.833 30 -56.5 30z
M188.001 639.002c-22 0 -40.834 -10.833 -56.501 -32.5s-23.5 -51.834 -23.5 -90.501c0 -37.333 7.16699 -65.666 21.5 -84.999s32.833 -29 55.5 -29c24 0 43.5 10.333 58.5 31s22.5 51 22.5 91c0 36.667 -7.66699 65 -23 85s-33.666 30 -54.999 30zM1015 -9.99805
c-44.667 0 -80.667 16.501 -108 49.501s-41 77.167 -41 132.5c0 57.333 14.667 103.166 44 137.499s66 51.5 110 51.5s80 -16.333 108 -49s42 -76.667 42 -132c0 -58 -14.167 -104.167 -42.5 -138.5s-65.833 -51.5 -112.5 -51.5zM1018 296.003
c-22.667 0 -41.832 -10.667 -57.499 -32s-23.5 -52 -23.5 -92c0 -38.667 7.16699 -67.667 21.5 -87s33.166 -29 56.499 -29c25.333 0 45.5 10.333 60.5 31s22.5 51.667 22.5 93c0 37.333 -7.66699 66 -23 86s-34.333 30 -57 30z" />
    <glyph glyph-name="guilsinglleft" unicode="&#x2039;" horiz-adv-x="339" 
d="M301 78h-135l-154 206l154 206h135l-154 -206z" />
    <glyph glyph-name="guilsinglright" unicode="&#x203a;" horiz-adv-x="340" 
d="M328 284l-154 -206h-135l154 206l-154 206h135z" />
    <glyph glyph-name="uni2070" unicode="&#x2070;" horiz-adv-x="401" 
d="M197 312c-50 0 -90.332 17.833 -120.999 53.5s-46 81.834 -46 138.501c0 58 16.5 106.167 49.5 144.5s74.5 57.5 124.5 57.5c48.667 0 88.667 -18.333 120 -55s47 -83.334 47 -140.001c0 -58.667 -15.833 -106.5 -47.5 -143.5s-73.834 -55.5 -126.501 -55.5zM203.001 628
c-22 0 -41.667 -10.667 -59 -32s-26 -52 -26 -92c0 -38.667 7.5 -67 22.5 -85s34.167 -27 57.5 -27c57.333 0 86 39.667 86 119c0 38 -8 67 -24 87s-35 30 -57 30z" />
    <glyph glyph-name="uni2074" unicode="&#x2074;" horiz-adv-x="343" 
d="M317 423h-49v-103h-90v103h-175l187 275h78v-208h49v-67zM178 490v86l-60 -86h60z" />
    <glyph glyph-name="uni2075" unicode="&#x2075;" horiz-adv-x="306" 
d="M137 314c-20 0 -39.167 2.66602 -57.5 7.99902s-32.333 11 -42 17s-14.5 11 -14.5 15l21 79c16.667 -22.667 52.667 -34 108 -34c28.667 0 43 13.667 43 41c0 5.33301 -0.5 9.83301 -1.5 13.5s-3.66699 8.33398 -8 14.001s-12.333 10 -24 13s-26.5 4.5 -44.5 4.5h-73
l26 213h188l-10 -90h-112l-8 -52c50.667 -0.666992 88.167 -10 112.5 -28s36.5 -46.667 36.5 -86c0 -44 -13.5 -76.333 -40.5 -97s-60.167 -31 -99.5 -31z" />
    <glyph glyph-name="uni2076" unicode="&#x2076;" horiz-adv-x="320" 
d="M156 312c-38 0 -68.5 12.5 -91.5 37.5s-34.5 63.5 -34.5 115.5c0 62.667 21 117 63 163s79 69.333 111 70l59 -34c-18.667 0 -46.5 -17.667 -83.5 -53s-56.167 -60.333 -57.5 -75c8.66699 8 27.667 12 57 12c34.667 0 63.167 -9.66699 85.5 -29s33.5 -46 33.5 -80
c0 -33.333 -13.167 -62.833 -39.5 -88.5s-60.5 -38.5 -102.5 -38.5zM172 478c-38 0 -57.001 -15.667 -57.001 -47c0 -10.667 5.5 -19.667 16.5 -27s21.833 -11 32.5 -11c14.667 0 27.334 4.83301 38.001 14.5s16 21.5 16 35.5c0 9.33301 -4.5 17.5 -13.5 24.5
s-19.833 10.5 -32.5 10.5z" />
    <glyph glyph-name="uni2077" unicode="&#x2077;" horiz-adv-x="296" 
d="M297 698l-163 -378h-96l126 288h-137v90h270z" />
    <glyph glyph-name="uni2078" unicode="&#x2078;" horiz-adv-x="342" 
d="M164 312c-43.333 0 -76.666 9.83203 -99.999 29.499s-35 45.167 -35 76.5c0 38 16.333 73.333 49 106c-8.66699 5.33301 -15.334 16.5 -20.001 33.5s-7 33.833 -7 50.5c0 65.333 40.667 98 122 98c79.333 0 119 -29.667 119 -89c0 -16 -3.66699 -32.833 -11 -50.5
s-15 -30.5 -23 -38.5c13.333 -8.66699 25.833 -22.167 37.5 -40.5s17.5 -36.166 17.5 -53.499c0 -32 -12.667 -60.333 -38 -85s-62.333 -37 -111 -37zM171 642.999c-28 0 -42 -15.333 -42 -46c0 -10 0.5 -17.5 1.5 -22.5s4.5 -10 10.5 -15s15 -7.5 27 -7.5
c28.667 0 43 15 43 45c0 30.667 -13.333 46 -40 46zM174 495.999c-14.667 0 -28.999 -6.33301 -42.999 -19s-21 -28.667 -21 -48c0 -15.333 5.16699 -27.833 15.5 -37.5s24.166 -14.5 41.499 -14.5c39.333 0 59 17.333 59 52c0 20 -5.16699 36 -15.5 48
s-22.5 18.333 -36.5 19z" />
    <glyph glyph-name="uni2079" unicode="&#x2079;" horiz-adv-x="320" 
d="M163 706c39.333 0 70.333 -13.001 93 -39.001s34 -64 34 -114c0 -56.667 -19.167 -109.667 -57.5 -159s-79.166 -74 -122.499 -74l-51 34c22 0 51.833 15.167 89.5 45.5s56.834 58.833 57.501 85.5c-12.667 -9.33301 -33.334 -14 -62.001 -14
c-30.667 0 -58.834 9.66699 -84.501 29s-38.5 45 -38.5 77c0 34.667 13.167 64.834 39.5 90.501s60.5 38.5 102.5 38.5zM151 539.999c38.667 0 57.999 15 57.999 45c0 28.667 -16 43 -48 43c-15.333 0 -27.833 -5.16699 -37.5 -15.5s-14.5 -21.5 -14.5 -33.5
s3.83301 -21.5 11.5 -28.5s17.834 -10.5 30.501 -10.5z" />
    <glyph glyph-name="uni2080" unicode="&#x2080;" horiz-adv-x="427" 
d="M210 -8c-50 0 -90.332 17.833 -120.999 53.5s-46 81.834 -46 138.501c0 58 16.5 106.167 49.5 144.5s74.5 57.5 124.5 57.5c48.667 0 88.667 -18.333 120 -55s47 -83.334 47 -140.001c0 -58.667 -15.833 -106.5 -47.5 -143.5s-73.834 -55.5 -126.501 -55.5zM216.001 308
c-22 0 -41.667 -10.667 -59 -32s-26 -52 -26 -92c0 -38.667 7.5 -67 22.5 -85s34.167 -27 57.5 -27c57.333 0 86 39.667 86 119c0 38 -8 67 -24 87s-35 30 -57 30z" />
    <glyph glyph-name="uni2081" unicode="&#x2081;" horiz-adv-x="257" 
d="M175 0l-89.002 -0.000976562v253c-3.33301 -1.33301 -17.666 -2.66602 -42.999 -3.99902l-3 70c9.33301 0 21.833 6.66699 37.5 20s24.834 26.333 27.501 39h70v-378z" />
    <glyph glyph-name="uni2082" unicode="&#x2082;" horiz-adv-x="334" 
d="M288 0l-256.001 -0.000976562c46 62.667 81.5 114 106.5 154s40 66.833 45 80.5s7.5 25.834 7.5 36.501c0 30.667 -14.333 46 -43 46c-36 0 -66.667 -22.333 -92 -67l-11 81c8.66699 15.333 23.334 28.333 44.001 39s45.667 16 75 16c38.667 0 66.667 -10.167 84 -30.5
s26 -43.5 26 -69.5c0 -44 -29.333 -109.333 -88 -196h102v-90z" />
    <glyph glyph-name="uni2083" unicode="&#x2083;" horiz-adv-x="333" 
d="M139 -8c-22.667 0 -45.332 3.49707 -67.999 10.4971s-36 13.5 -40 19.5l22 83c0.666992 -6 10.167 -11.5 28.5 -16.5s35.5 -7.5 51.5 -7.5c46.667 0 70 10.667 70 32c0 39.333 -17.667 59 -53 59h-62l7 67h32c20.667 0 35.667 3.83301 45 11.5s14 15.834 14 24.501
c0 10.667 -4 20 -12 28s-21.333 12 -40 12c-31.333 0 -53 -5 -65 -15l-12 61c18 16.667 47.667 25 89 25c47.333 0 80.5 -10.667 99.5 -32s28.5 -45.333 28.5 -72c0 -18 -2.83301 -33.667 -8.5 -47s-11.5 -21.666 -17.5 -24.999c1.33301 -1.33301 5 -5.66602 11 -12.999
s10 -12.5 12 -15.5s4.83301 -8 8.5 -15s6.16699 -14.333 7.5 -22s2 -16.167 2 -25.5c0 -40 -14.833 -71.167 -44.5 -93.5s-64.834 -33.5 -105.501 -33.5z" />
    <glyph glyph-name="uni2084" unicode="&#x2084;" horiz-adv-x="370" 
d="M329 103h-49v-103h-90v103h-175l187 275h78v-208h49v-67zM190 170v86l-60 -86h60z" />
    <glyph glyph-name="uni2085" unicode="&#x2085;" horiz-adv-x="333" 
d="M149 -6c-20 0 -39.167 2.66602 -57.5 7.99902s-32.333 11 -42 17s-14.5 11 -14.5 15l21 79c16.667 -22.667 52.667 -34 108 -34c14 0 24.667 2.66699 32 8s11 16.333 11 33c0 5.33301 -0.5 9.83301 -1.5 13.5s-3.66699 8.33398 -8 14.001s-12.333 10 -24 13
s-26.5 4.5 -44.5 4.5h-73l26 213h188l-10 -90h-112l-8 -52c50.667 -0.666992 88.167 -10 112.5 -28s36.5 -46.667 36.5 -86c0 -44 -13.5 -76.333 -40.5 -97s-60.167 -31 -99.5 -31z" />
    <glyph glyph-name="uni2086" unicode="&#x2086;" horiz-adv-x="345" 
d="M169 -8c-38 0 -68.499 12.499 -91.499 37.499s-34.5 63.5 -34.5 115.5c0 32.667 6.83301 64.334 20.5 95.001s30 55.5 49 74.5s38 34.333 57 46s34.833 17.5 47.5 17.5l59 -34c-22.667 0 -51.334 -17 -86.001 -51s-53 -59.333 -55 -76c8 7.33301 26 11 54 11
c36.667 0 66.167 -9.5 88.5 -28.5s33.5 -45.833 33.5 -80.5c0 -33.333 -13.167 -62.833 -39.5 -88.5s-60.5 -38.5 -102.5 -38.5zM185.001 158.999c-38 0 -57 -16 -57 -48c0 -11.333 5.5 -20.666 16.5 -27.999s21.833 -11 32.5 -11c14 0 26.5 5 37.5 15s16.5 22 16.5 36
c0 9.33301 -4.5 17.666 -13.5 24.999s-19.833 11 -32.5 11z" />
    <glyph glyph-name="uni2087" unicode="&#x2087;" horiz-adv-x="335" 
d="M314 378l-163 -378h-96l126 288h-137v90h270z" />
    <glyph glyph-name="uni2088" unicode="&#x2088;" horiz-adv-x="369" 
d="M178 -8c-43.333 0 -76.666 9.83203 -99.999 29.499s-35 45.167 -35 76.5c0 38 16.333 73.333 49 106c-8.66699 5.33301 -15.334 16.5 -20.001 33.5s-7 33.833 -7 50.5c0 65.333 40.667 98 122 98c79.333 0 119 -29.667 119 -89c0 -16 -3.66699 -32.833 -11 -50.5
s-15 -30.5 -23 -38.5c13.333 -8.66699 25.833 -22.167 37.5 -40.5s17.5 -36.166 17.5 -53.499c0 -32 -12.667 -60.333 -38 -85s-62.333 -37 -111 -37zM185 322.999c-17.333 0 -29.833 -4.49902 -37.5 -13.499s-11.5 -19.5 -11.5 -31.5c0 -6 0.333008 -10.833 1 -14.5
s2.16699 -8.33398 4.5 -14.001s7 -10 14 -13s15.833 -4.5 26.5 -4.5c28.667 0 43 15 43 45c0 30.667 -13.333 46 -40 46zM188 176c-14.667 0 -28.999 -6.33301 -42.999 -19s-21 -28.667 -21 -48c0 -15.333 5.16699 -27.833 15.5 -37.5s24.166 -14.5 41.499 -14.5
c39.333 0 59 17.333 59 52c0 20 -5.16699 36 -15.5 48s-22.5 18.333 -36.5 19z" />
    <glyph glyph-name="uni2089" unicode="&#x2089;" horiz-adv-x="343" 
d="M173 386c39.333 0 70.3311 -13.001 92.998 -39.001s34 -64 34 -114c0 -56.667 -19.167 -109.667 -57.5 -159s-79.166 -74 -122.499 -74l-51 34c22 0 51.667 15 89 45s57 59 59 87c-13.333 -10 -34.666 -15 -63.999 -15c-34.667 0 -63.667 9.33301 -87 28
s-35 44.667 -35 78c0 34.667 13.167 64.834 39.5 90.501s60.5 38.5 102.5 38.5zM160.998 219.999c38.667 0 57.999 14.999 57.999 44.999c0 28 -16 42 -48 42c-15.333 0 -27.833 -5.16699 -37.5 -15.5s-14.5 -21.166 -14.5 -32.499c0 -12 3.83301 -21.5 11.5 -28.5
s17.834 -10.5 30.501 -10.5z" />
    <glyph glyph-name="Euro" unicode="&#x20ac;" horiz-adv-x="704" 
d="M469 17c-67.333 0 -127 17.167 -179 51.5s-90.333 81.833 -115 142.5h-143l28 81h94c-2 20 -3 39.333 -3 58v17h-90l27 76h73c18.667 74 55.667 132.5 111 175.5s121 64.5 197 64.5c68.667 0 128.667 -12 180 -36l-14 -108c-62.667 26 -118 39 -166 39
c-92 0 -151.667 -45 -179 -135h253l-28 -76h-238v-17c0 -22.667 1.66699 -42 5 -58h241l-28 -81h-187c34 -59.333 87.667 -89 161 -89c48 0 103.333 13 166 39l14 -108c-51.333 -24 -111.333 -36 -180 -36z" />
    <glyph glyph-name="trademark" unicode="&#x2122;" horiz-adv-x="735" 
d="M497 431h-10l-80 136l-29 -230h-73l49 363h43l96 -158l94 158h44l49 -363h-74l-28 229zM305 700l-8 -69h-96v-294h-71v294h-99v69h274z" />
    <glyph glyph-name="A.sc" horiz-adv-x="550" 
d="M545 0h-117l-53 134h-200l-51 -134h-119l217 574h107zM336 244l-61 149l-61 -149h122z" />
    <glyph glyph-name="AE.sc" horiz-adv-x="762" 
d="M727 0h-379v136h-168l-70 -136h-119l297 574h431v-110h-256v-110h197v-109h-197v-135h264v-110zM348 245v217l-115 -217h115z" />
    <glyph glyph-name="B.sc" horiz-adv-x="559" 
d="M309 0l-238.001 -0.00292969v574h167c38.667 0 70.834 -1.83301 96.501 -5.5s49.5 -10.5 71.5 -20.5s38.333 -25.167 49 -45.5s16 -46.166 16 -77.499c0 -56 -17 -95.333 -51 -118c36.667 -12.667 63.667 -29.667 81 -51s26 -50.666 26 -87.999
c0 -40.667 -11.5 -74.167 -34.5 -100.5s-50 -44.166 -81 -53.499s-65.167 -14 -102.5 -14zM284.999 479.997h-100v-134h109c18.667 0 35.5 5 50.5 15s22.5 25.333 22.5 46c0 48.667 -27.333 73 -82 73zM298.999 259.997h-114v-165h112c74.667 0 112 27.667 112 83
c0 54.667 -36.667 82 -110 82z" />
    <glyph glyph-name="C.sc" horiz-adv-x="541" 
d="M335 -12c-88 0 -159.999 27.499 -215.999 82.499s-84 127.5 -84 217.5c0 88.667 28 160.5 84 215.5s128 82.5 216 82.5c68 0 125.667 -11.333 173 -34l-12 -107c-54.667 21.333 -108.334 32 -161.001 32c-56.667 0 -100.167 -17.167 -130.5 -51.5
s-45.5 -80.166 -45.5 -137.499c0 -58 15 -104.167 45 -138.5s73.333 -51.5 130 -51.5c53.333 0 107.333 10.667 162 32l12 -108c-47.333 -22.667 -105 -34 -173 -34z" />
    <glyph glyph-name="D.sc" horiz-adv-x="636" 
d="M300 0l-229 0.000976562v574h229c88.667 0 160.667 -25.5 216 -76.5s83 -120.833 83 -209.5s-27.667 -158.834 -83 -210.501s-127.333 -77.5 -216 -77.5zM300 465.001h-115v-356h115c57.333 0 100.833 15.667 130.5 47s44.5 75.333 44.5 132
c0 56 -14.833 99.5 -44.5 130.5s-73.167 46.5 -130.5 46.5z" />
    <glyph glyph-name="E.sc" horiz-adv-x="506" 
d="M471 0h-400v574h392v-110h-275v-110h213v-109h-213v-135h283v-110z" />
    <glyph glyph-name="F.sc" horiz-adv-x="467" 
d="M447 464h-262v-110h202v-109h-202v-245h-114v574h376v-110z" />
    <glyph glyph-name="G.sc" horiz-adv-x="587" 
d="M333 -12c-86.667 0 -157.999 27.6689 -213.999 83.002s-84 127.666 -84 216.999s28.167 161.333 84.5 216s129.166 82 218.499 82c74.667 0 135.667 -11.333 183 -34l-12 -109c-56 22.667 -112 34 -168 34c-60 0 -105.333 -17 -136 -51s-46 -79.333 -46 -136
c0 -58.667 16 -105.334 48 -140.001s78 -52 138 -52c20.667 0 48 2.33301 82 7v91h-64v92h178v-256c-22 -12 -53.5 -22.333 -94.5 -31s-78.833 -13 -113.5 -13z" />
    <glyph glyph-name="H.sc" horiz-adv-x="652" 
d="M581 0h-114v245h-282v-245h-114v574h114v-220h282v220h114v-574z" />
    <glyph glyph-name="I.sc" horiz-adv-x="256" 
d="M185 0h-114v574h114v-574z" />
    <glyph glyph-name="J.sc" horiz-adv-x="256" 
d="M45 -141l-33 0.000976562l-9 88h25c16 0 27.167 4.5 33.5 13.5s9.5 23.5 9.5 43.5v570h114v-592c0 -40.667 -12.333 -71.334 -37 -92.001s-59 -31 -103 -31z" />
    <glyph glyph-name="K.sc" horiz-adv-x="555" 
d="M546 0h-128l-212 304l212 270h128l-212 -270zM185 0h-114v574h114v-574z" />
    <glyph glyph-name="L.sc" horiz-adv-x="445" 
d="M433 0h-362v574h114v-464h248v-110z" />
    <glyph glyph-name="M.sc" horiz-adv-x="737" 
d="M694 0h-119l-52 371l-155 -255l-155 255l-52 -371h-118l84 574h93l149 -255l147 255h93z" />
    <glyph glyph-name="N.sc" horiz-adv-x="625" 
d="M554 0h-94l-275 378v-378h-114v574h111l258 -355v355h114v-574z" />
    <glyph glyph-name="O.sc" horiz-adv-x="670" 
d="M335 -12c-88 0 -160 27.5 -216 82.5s-84 127.5 -84 217.5c0 88.667 28 160.5 84 215.5s128 82.5 216 82.5s160 -27.5 216 -82.5s84 -126.833 84 -215.5c0 -90 -28 -162.5 -84 -217.5s-128 -82.5 -216 -82.5zM335 477c-56.667 0 -100.167 -17.167 -130.5 -51.5
s-45.5 -80.166 -45.5 -137.499s15.167 -103.333 45.5 -138s73.833 -52 130.5 -52s100 17.167 130 51.5s45 80.5 45 138.5c0 57.333 -15 103.166 -45 137.499s-73.333 51.5 -130 51.5z" />
    <glyph glyph-name="OE.sc" horiz-adv-x="935" 
d="M900 0l-381 0.000976562v39c-54.667 -34 -115.667 -51 -183 -51c-88 0 -160.167 27.667 -216.5 83s-84.5 127.666 -84.5 216.999c0 88.667 28.167 160.5 84.5 215.5s128.5 82.5 216.5 82.5c66.667 0 127.667 -16.667 183 -50v38h373v-110h-256v-110h197v-109h-197v-135
h264v-110zM336 477.001c-56.667 0 -100.332 -17.333 -130.999 -52s-46 -80.334 -46 -137.001c0 -58 15.167 -104.167 45.5 -138.5s74.166 -51.5 131.499 -51.5c56.667 0 100.167 17.333 130.5 52s45.5 80.667 45.5 138c0 56.667 -15.167 102.334 -45.5 137.001
s-73.833 52 -130.5 52z" />
    <glyph glyph-name="P.sc" horiz-adv-x="531" 
d="M292 185h-106.996v-185h-114v574h170c38 0 69.667 -1.16699 95 -3.5s49.666 -7.33301 72.999 -15s41.666 -18.167 54.999 -31.5s23.833 -30.833 31.5 -52.5s11.5 -48.167 11.5 -79.5c0 -40 -7 -74.5 -21 -103.5s-32.333 -50.5 -55 -64.5s-45.334 -24 -68.001 -30
s-46.334 -9 -71.001 -9zM276.004 482h-91v-191h92c42 0 71.667 7.16699 89 21.5s26 40.5 26 78.5c0 32.667 -8.16699 56 -24.5 70s-46.833 21 -91.5 21z" />
    <glyph glyph-name="Q.sc" horiz-adv-x="671" 
d="M637 68l-67 -79l-60 48c-48 -32.667 -106.333 -49 -175 -49c-88 0 -160 27.5 -216 82.5s-84 127.5 -84 217.5c0 88.667 28 160.5 84 215.5s128 82.5 216 82.5s160 -27.5 216 -82.5s84 -126.833 84 -215.5c0 -70 -17.667 -129 -53 -177zM335 477
c-56.667 0 -100.167 -17.166 -130.5 -51.499s-45.5 -80.166 -45.5 -137.499c0 -58 15.167 -104.167 45.5 -138.5s73.833 -51.5 130.5 -51.5c30 0 57.667 5 83 15l-72 55l67 79l75 -56c14.667 25.333 22 57.666 22 96.999c0 57.333 -15 103.166 -45 137.499
s-73.333 51.5 -130 51.5z" />
    <glyph glyph-name="R.sc" horiz-adv-x="559" 
d="M540 0h-118l-125 211h-112v-211h-114v574h226c139.333 0 209 -54.667 209 -164c0 -42.667 -8.83301 -76.5 -26.5 -101.5s-43.167 -47.833 -76.5 -68.5zM269 480h-84v-165h77c48.667 0 81.667 7.66699 99 23s26 36 26 62c0 27.333 -8.16699 47.5 -24.5 60.5
s-47.5 19.5 -93.5 19.5z" />
    <glyph glyph-name="S.sc" horiz-adv-x="517" 
d="M250 -12c-90 0 -157.664 14.333 -202.997 43l13 128c43.333 -40.667 107.666 -61 192.999 -61c70 0 105 18.333 105 55c0 10 -2.83301 19.5 -8.5 28.5s-12 16.333 -19 22s-17.833 11.834 -32.5 18.501c-16 6.66699 -28.667 11.667 -38 15l-43 15
c-23.333 7.33301 -40.833 13.166 -52.5 17.499s-27 11.166 -46 20.499s-33.167 19 -42.5 29s-17.833 23 -25.5 39s-11.5 34 -11.5 54c0 46 18 86.5 54 121.5s91.333 52.5 166 52.5c38.667 0 76.167 -4.83301 112.5 -14.5s63.5 -20.167 81.5 -31.5l-11 -114
c-64.667 34.667 -124.334 52 -179.001 52c-72.667 0 -109 -18 -109 -54c0 -14 6.33301 -26.333 19 -37s26.167 -18.667 40.5 -24s35.166 -11.666 62.499 -18.999c20 -5.33301 36.167 -10 48.5 -14s27.833 -9.83301 46.5 -17.5s33.834 -15.834 45.501 -24.501
s23.167 -19.167 34.5 -31.5s19.833 -26.833 25.5 -43.5s8.5 -35 8.5 -55c0 -15.333 -1.5 -29.833 -4.5 -43.5s-9.5 -28.667 -19.5 -45s-23.167 -30.166 -39.5 -41.499s-39.333 -20.833 -69 -28.5s-63.834 -11.5 -102.501 -11.5z" />
    <glyph glyph-name="T.sc" horiz-adv-x="492" 
d="M475 464h-171v-464h-115v464h-172v110h458v-110z" />
    <glyph glyph-name="U.sc" horiz-adv-x="635" 
d="M318 -12c-83.333 0 -146.333 23.167 -189 69.5s-64 109.5 -64 189.5v327h114v-292c0 -60 9.66699 -105.667 29 -137s56 -47 110 -47c53.333 0 89.666 15.667 108.999 47s29 77 29 137v292h114v-327c0 -80 -21.167 -143.167 -63.5 -189.5s-105.166 -69.5 -188.499 -69.5z
" />
    <glyph glyph-name="V.sc" horiz-adv-x="578" 
d="M573 574l-213 -574h-139l-219 574h119l169 -422l166 422h117z" />
    <glyph glyph-name="W.sc" horiz-adv-x="847" 
d="M837 574l-178 -574h-99l-135 360l-134 -360h-106l-172 574h118l121 -387l134 390h77l141 -377l115 374h118z" />
    <glyph glyph-name="X.sc" horiz-adv-x="561" 
d="M557 0h-133l-145 204l-143 -204h-131l216 287l-206 287h132l139 -196l126 196h131l-198 -276z" />
    <glyph glyph-name="Y.sc" horiz-adv-x="523" 
d="M530 574l-212 -323v-251h-113v251l-211 323h121l147 -222l147 222h121z" />
    <glyph glyph-name="Z.sc" horiz-adv-x="488" 
d="M477 574l-276 -464h237v-110h-425l276 464h-237v110h425z" />
    </font>
</defs>
</svg>
