<?xml version="1.0" encoding="utf-8"?>
<!-- Generator: Adobe Illustrator 27.9.3, SVG Export Plug-In . SVG Version: 9.03 Build 53313)  -->
<svg version="1.1" id="Layer_1" xmlns="http://www.w3.org/2000/svg" xmlns:xlink="http://www.w3.org/1999/xlink" x="0px" y="0px"
	 viewBox="0 0 712.3 124" style="enable-background:new 0 0 712.3 124;" xml:space="preserve">
<style type="text/css">
	.st0{fill:#fff;}
	.st1{fill-rule:evenodd;clip-rule:evenodd;fill:#fff;}
	.st2{fill:none;}
</style>
<path class="st0" d="M113,55.8c-0.1,0.3-2.8,5.6-8.1,15.9S94.6,92,89.8,101.5h-5.1c-5.3-10.8-10.4-20.9-15.2-30.5s-7.4-14.6-7.6-15
	l6-2.7c0.2,0.5,2.5,5.3,6.9,14.5c4.4,9.2,8.7,17.9,12.8,26h0.1c4.2-8.3,8.5-17.1,13-26.3s6.8-14,7-14.2L113,55.8L113,55.8L113,55.8z
	"/>
<path class="st0" d="M249.2,98l-5,3.6c-0.6-0.5-2.6-2.5-6-6c-3.4-3.5-8.7-8.9-15.8-16.3l0-0.3c1-0.2,2.3-0.7,3.9-1.5
	c1.6-0.8,3-1.6,4.1-2.5c0.9-0.8,1.8-1.8,2.5-2.9c0.7-1.2,1.1-2.7,1.1-4.7c0-1.8-0.5-3.3-1.6-4.6c-1-1.3-2.5-2.2-4.3-2.8
	c-1.5-0.5-3-0.8-4.7-0.9c-1.6-0.1-3.1-0.2-4.5-0.2h-3.2c-0.1,4.4-0.1,8.3-0.1,11.7c0,3.4,0,5.7,0,7.1c0,3.2,0,7.5,0,12.9
	c0,5.4,0.1,8.9,0.1,10.3h-6.3c0-1.4,0.1-4.1,0.1-8.1s0.1-9,0.1-14.9v-6.4c0-3.1-0.1-8.8-0.2-17.1c0.3,0,1.5,0,3.8-0.1
	c2.3,0,4.4-0.1,6.4-0.1c2.2,0,4.4,0.1,6.5,0.3c2.1,0.2,4.1,0.7,6.1,1.5c2.5,1,4.5,2.4,6,4.3c1.5,1.9,2.2,4.1,2.2,6.6
	c0,3.3-1.1,6-3.4,8.2s-4.4,3.8-6.4,4.9v0.2c3.5,3.7,7.4,7.5,11.7,11.4C246.6,95.6,248.8,97.7,249.2,98L249.2,98L249.2,98z"/>
<path class="st0" d="M399.6,76.9c0,1.7-0.1,3.6-0.1,5.9s-0.1,4.1-0.1,5.5c0,2.3,0,5,0.1,7.8c0,2.9,0.1,4.5,0.1,4.8
	c-0.2,0-1,0.1-2.3,0.2c-1.3,0.1-2.6,0.2-3.8,0.2c-6.1,0-11.5-0.6-16.1-1.8s-8.7-3.2-12.1-6.2c-2.1-1.8-3.8-4.1-5.1-6.7
	s-1.9-5.7-1.9-9.2c0-4.2,1.2-8,3.7-11.3s5.9-6,10.2-8.1c2.9-1.4,6.3-2.5,10-3.2c3.8-0.7,7.6-1.1,11.7-1.1h3.3l0.5,5.1h-3
	c-3.9,0-7.5,0.3-10.7,0.9c-3.2,0.6-6.1,1.5-8.5,2.6c-3.3,1.6-5.9,3.7-7.8,6.4c-1.9,2.7-2.8,5.6-2.8,8.7c0,3.9,1,7.1,2.9,9.6
	c2,2.5,4.5,4.5,7.6,6c2.8,1.3,5.7,2.2,8.8,2.7s6.3,0.8,9.6,0.8c0-0.4,0-2.2,0-5.4c0-3.2-0.1-8-0.2-14.2L399.6,76.9L399.6,76.9
	L399.6,76.9z"/>
<path class="st0" d="M475.1,98l-5,3.6c-0.6-0.5-2.6-2.5-6-6c-3.4-3.5-8.7-8.9-15.8-16.3l0-0.3c1-0.2,2.3-0.7,3.9-1.5
	c1.6-0.8,3-1.6,4.1-2.5c1-0.8,1.8-1.8,2.5-2.9c0.7-1.2,1-2.7,1-4.7c0-1.8-0.5-3.3-1.5-4.6c-1-1.3-2.5-2.2-4.3-2.8
	c-1.5-0.5-3-0.8-4.7-0.9c-1.6-0.1-3.1-0.2-4.5-0.2h-3.2c0,4.4-0.1,8.3-0.1,11.7c0,3.4,0,5.7,0,7.1c0,3.2,0,7.5,0,12.9
	c0,5.4,0,8.9,0.1,10.3h-6.3c0-1.4,0.1-4.1,0.1-8.1c0.1-4,0.1-9,0.1-14.9v-6.4c0-3.1-0.1-8.8-0.2-17.1c0.3,0,1.5,0,3.8-0.1
	s4.4-0.1,6.4-0.1c2.2,0,4.4,0.1,6.5,0.3s4.1,0.7,6.1,1.5c2.5,1,4.5,2.4,6,4.3c1.5,1.9,2.2,4.1,2.2,6.6c0,3.3-1.1,6-3.4,8.2
	s-4.4,3.8-6.4,4.9v0.2c3.5,3.7,7.4,7.5,11.7,11.4S474.8,97.7,475.1,98L475.1,98L475.1,98z"/>
<path class="st0" d="M683.1,54.2c-0.1,3.7-0.1,7.8-0.2,12.5c0,4.7-0.1,8.1-0.1,10.1c0,6.6,0,11.8,0.1,15.7c0.1,3.9,0.1,6,0.1,6.2
	l-5.1,2.3c-7.7-9.5-15-18-21.7-25.7s-10.6-12-11.7-13.2l-0.1,0c0,6.2,0,13.9,0.2,22.9c0.1,9.1,0.2,14.3,0.2,15.7h-6
	c0-0.6,0.1-2.7,0.1-6.2c0.1-3.6,0.1-8.5,0.1-14.8c0-2.5,0-5.9,0-10.1c0-4.2-0.1-8.6-0.2-13.3l5.8-2.5c0.5,0.5,4.4,5,11.8,13.6
	s14.3,16.4,20.9,23.7l0.1,0c0-3.6-0.1-9.6-0.2-18.1c-0.1-8.5-0.2-14.7-0.2-18.8L683.1,54.2L683.1,54.2L683.1,54.2z"/>
<g>
	<path class="st0" d="M9.8,79.1c0,4.4,0,7.9,0,10.5c0,2.6,0.1,4.8,0.1,6.5c1.5,0,3.3,0.1,5.5,0.1c2.1,0,4.5,0,6.9,0
		c3.8,0,7,0,9.6-0.1s4-0.1,4.4-0.1v4.7c-0.2,0-1.9,0-5.1-0.1s-7.1-0.1-11.8-0.1c-3.2,0-6.2,0-8.9,0.1s-5,0.1-6.8,0.1
		c0.1-1.3,0.1-4.3,0.2-8.8c0-4.5,0.1-9.1,0.1-13.9c0-2.6,0-6.1,0-10.4s-0.1-8.8-0.2-13.5c1.8,0,4.1,0,6.8,0.1s5.5,0.1,8.4,0.1
		c4.9,0,8.9,0,12-0.1c3.1,0,4.7-0.1,5-0.1v4.8c-0.3,0-1.9,0-4.8-0.1s-6.6-0.1-11-0.1h-10c0,2.7,0,5.3-0.1,7.9S9.8,72,9.8,74.4
		C9.8,74.4,9.8,79.1,9.8,79.1z"/>
	<path class="st0" d="M12.3,74.4h6.8c4.2,0,7.9,0,11.2-0.1s5.1-0.1,5.3-0.1v4.9c-0.2,0-2.2,0-5.9-0.1s-7.2-0.1-10.3-0.1h-7.2
		L12.3,74.4L12.3,74.4L12.3,74.4z"/>
</g>
<g>
	<path class="st0" d="M148.5,79.1c0,4.4,0,7.9,0,10.5c0,2.6,0.1,4.8,0.1,6.5c1.5,0,3.3,0.1,5.5,0.1c2.1,0,4.5,0,6.9,0
		c3.8,0,7,0,9.6-0.1s4-0.1,4.4-0.1v4.7c-0.2,0-1.9,0-5.1-0.1c-3.2,0-7.1-0.1-11.8-0.1c-3.2,0-6.2,0-8.9,0.1s-5,0.1-6.9,0.1
		c0.1-1.3,0.1-4.3,0.2-8.8c0.1-4.5,0.1-9.1,0.1-13.9c0-2.6,0-6.1-0.1-10.4s-0.1-8.8-0.2-13.5c1.8,0,4.1,0,6.8,0.1
		c2.7,0,5.5,0.1,8.4,0.1c4.9,0,8.9,0,12-0.1c3.1,0,4.7-0.1,5-0.1v4.8c-0.3,0-1.9,0-4.8-0.1s-6.6-0.1-11-0.1h-10c0,2.7,0,5.3-0.1,7.9
		s-0.1,5.1-0.1,7.5L148.5,79.1L148.5,79.1L148.5,79.1z"/>
	<path class="st0" d="M151,74.4h6.8c4.2,0,7.9,0,11.2-0.1s5.1-0.1,5.3-0.1v4.9c-0.2,0-2.2,0-5.9-0.1c-3.7,0-7.2-0.1-10.3-0.1H151
		L151,74.4L151,74.4L151,74.4z"/>
</g>
<g>
	<path class="st0" d="M511,79.1c0,4.4,0,7.9,0,10.5c0,2.6,0,4.8,0.1,6.5c1.5,0,3.3,0.1,5.5,0.1s4.5,0,6.9,0c3.8,0,7,0,9.6-0.1
		s4-0.1,4.3-0.1v4.7c-0.2,0-1.9,0-5.1-0.1s-7.1-0.1-11.8-0.1c-3.2,0-6.2,0-8.9,0.1s-5,0.1-6.9,0.1c0.1-1.3,0.1-4.3,0.2-8.8
		c0-4.5,0.1-9.1,0.1-13.9c0-2.6,0-6.1,0-10.4s-0.1-8.8-0.2-13.5c1.8,0,4.1,0,6.8,0.1c2.7,0,5.5,0.1,8.4,0.1c4.9,0,8.9,0,12-0.1
		c3.1,0,4.7-0.1,5-0.1v4.8c-0.3,0-1.9,0-4.8-0.1c-3,0-6.6-0.1-11-0.1h-10c0,2.7,0,5.3-0.1,7.9S511,72,511,74.4L511,79.1L511,79.1
		L511,79.1z"/>
	<path class="st0" d="M513.5,74.4h6.8c4.2,0,7.9,0,11.2-0.1s5.1-0.1,5.3-0.1v4.9c-0.2,0-2.2,0-5.9-0.1c-3.7,0-7.2-0.1-10.3-0.1h-7.2
		V74.4L513.5,74.4L513.5,74.4z"/>
</g>
<g>
	<path class="st0" d="M578.1,79.1c0,4.4,0,7.9,0,10.5c0,2.6,0,4.8,0.1,6.5c1.5,0,3.3,0.1,5.5,0.1c2.1,0,4.5,0,6.9,0
		c3.8,0,7,0,9.6-0.1s4-0.1,4.3-0.1v4.7c-0.2,0-1.9,0-5.1-0.1s-7.1-0.1-11.8-0.1c-3.2,0-6.2,0-8.9,0.1s-5,0.1-6.9,0.1
		c0.1-1.3,0.1-4.3,0.2-8.8c0-4.5,0.1-9.1,0.1-13.9c0-2.6,0-6.1,0-10.4c0-4.3-0.1-8.8-0.2-13.5c1.8,0,4.1,0,6.8,0.1
		c2.7,0,5.5,0.1,8.4,0.1c4.9,0,8.9,0,12-0.1s4.7-0.1,5-0.1v4.8c-0.3,0-1.9,0-4.8-0.1c-3,0-6.6-0.1-11-0.1h-10c0,2.7,0,5.3-0.1,7.9
		s-0.1,5.1-0.1,7.5L578.1,79.1L578.1,79.1L578.1,79.1z"/>
	<path class="st0" d="M580.6,74.4h6.8c4.2,0,7.9,0,11.2-0.1s5.1-0.1,5.3-0.1v4.9c-0.2,0-2.2,0-5.9-0.1c-3.7,0-7.2-0.1-10.3-0.1h-7.2
		L580.6,74.4L580.6,74.4L580.6,74.4z"/>
</g>
<path class="st0" d="M698.4,54.6h-2.8c0,0.7,0,1.3,0,1.8v1.3c0,1,0,1.7,0,2.3c0,0.6,0,1,0,1h-1.3c0-0.1,0-0.4,0-1c0-0.6,0-1.4,0-2.4
	v-1.3c0-0.5,0-1.1,0-1.7h-3v-1.1h7.1L698.4,54.6L698.4,54.6L698.4,54.6z M708.6,60.9l-1.3,0.2l-1.1-5.7h-0.1
	c-0.2,0.5-0.5,1.1-0.9,1.8c-0.4,0.8-0.8,1.8-1.4,3.1h-0.9c-0.5-1.2-1-2.2-1.4-3c-0.4-0.8-0.7-1.4-0.9-1.9h-0.1
	c-0.1,0.5-0.3,1.2-0.5,2.1s-0.4,2.1-0.7,3.6l-1.2-0.2c0.4-1.7,0.8-3.4,1.2-4.9c0.4-1.5,0.5-2.3,0.6-2.5l1.1-0.2
	c0,0.1,0.3,0.6,0.7,1.5c0.4,0.9,1,2.1,1.8,3.8h0.1c0.6-1.3,1.1-2.5,1.6-3.5c0.5-1,0.8-1.6,0.8-1.7l1.1,0.1c0,0.1,0.1,0.6,0.3,1.5
	C707.5,55.9,707.9,57.9,708.6,60.9C708.6,60.9,708.6,60.9,708.6,60.9z"/>
<g>
	<path class="st1" d="M281.5,3.3c1.6,0,2.1,0.7,2.7,1.7c0.1,0.2,0.5,0.8,0.4,1.2c-0.2,0.3-0.4,0.6-0.5,0.9c-0.4,0.8-0.7,1.6-1,2.4
		c-1.1,2.8-1.5,7.6-0.8,11.2c0.9,4.5,2.2,8.8,4.2,12.2c0.6,1.1,1.3,2.2,1.9,3.3c0.9,1.6,1.5,3.2,2.4,4.8c1,1.7,1.9,3.5,2.9,5.2
		c0.2,0.3,0.9,1.5,0.7,2.1c0,0-0.1,0.1-0.1,0.2c-1,0-1.5-0.7-2.1-1.1c-1.5-1.2-2.9-2.5-4-4.1c-1.2-1.6-2.8-3-3.8-4.8
		c-2.6-4.1-4.6-8.8-6-14c-0.4-1.4-0.5-2.9-0.8-4.4c-0.2-1-0.2-1.9-0.2-3c0-0.7-0.1-1.7,0-2.4c0.2-1,0.1-1.9,0.3-2.8
		c0.4-2,0.9-3.9,1.6-5.5c0.3-0.6,1.1-2.7,1.5-3C280.9,3.5,281.2,3.4,281.5,3.3L281.5,3.3L281.5,3.3z"/>
	<path class="st1" d="M301,7.2c1.5,0,2.1,0.9,2.4,2.1c0.1,0.2,0.2,0.7,0.1,0.9c-0.3,0.4-0.5,0.9-0.8,1.3c-0.5,1-0.9,1.9-1.4,2.9
		c-1.2,2.9-2,6.1-2.7,9.6c-0.2,1.2-0.2,2.3-0.4,3.6c-0.1,0.9-0.1,2-0.1,3c0,0.5,0,1.1,0,1.7c0,0.7,0.1,1.4,0.1,2.1
		c0.5,2.8,0.7,5.3,1.4,7.8c1.6,5.2,3.5,9.9,5.5,14.6c0.9,2.2,2,4.2,3.1,6.2c0.3,0.6,1.1,1.9,1,2.8c0,0-0.1,0.1-0.1,0.1
		c-0.9,0-1.9-1.2-2.4-1.8c-1.9-1.9-3.6-4.1-5.1-6.5c-1.2-2-2.6-4-3.6-6.2c-1.5-3.4-2.5-7-3.5-11c-0.3-1.2-0.4-2.5-0.6-3.8
		c-0.1-1.1-0.2-2.2-0.4-3.3c0-0.4,0-0.8,0-1.2v-2.7c0-0.7,0-1.4,0.1-2c0.1-1,0.2-2,0.3-3c0.5-2.8,1-5.4,1.7-7.8
		c0.8-2.4,1.6-4.6,2.7-6.7c0.3-0.5,0.9-2,1.3-2.3C299.9,7.4,300.4,7.4,301,7.2L301,7.2L301,7.2z"/>
	<path class="st1" d="M323.6,11c1.7,0,2.5,0.7,2.5,2.3c0,0.4,0,1-0.2,1.3c-0.2,0.3-0.5,0.5-0.8,0.8c-0.5,0.6-1,1.1-1.4,1.7
		c-1.3,1.7-2.6,3.5-3.8,5.3c-2.9,4.6-5,9.9-6.5,15.9c-0.4,1.6-0.5,3.4-0.8,5.2c0,0.7-0.1,1.3-0.2,2c0,0.7,0,1.4,0,2.1v1.7
		c0,0.5,0,1,0,1.5c0.1,1.1,0.2,2.2,0.3,3.3c0.1,0.9,0.2,1.8,0.4,2.8c1,4.3,1.7,8.7,3,12.7c0.6,2.1,1.4,3.9,2.1,5.9
		c0.3,0.8,0.8,1.8,0.6,2.8c0,0,0,0-0.1,0c-0.4,0.2-0.9-0.5-1-0.7c-0.9-0.9-1.7-2.1-2.4-3.2c-3-4.7-5.2-10-6.6-16.4
		c-0.4-1.8-0.4-3.7-0.8-5.7c-0.2-1.2,0-2.4-0.1-3.7c0-0.9,0-1.8,0-2.6c0-0.5,0-0.9,0-1.4c0.2-1.2,0.2-2.5,0.4-3.6
		c0.4-2.1,0.6-4.1,1.2-6c0.5-1.7,0.9-3.4,1.5-4.9c1.5-3.9,3.3-7.4,5.4-10.6c1.3-2.1,2.7-3.9,4.2-5.8c0.6-0.7,1.3-1.9,2-2.4
		C322.8,11.1,323.3,11.1,323.6,11z"/>
	<path class="st1" d="M242.6,16.7c10.8-0.1,18.4,3.8,25,7.9c3,1.9,6.1,4,8.3,6.7c0.6,0.7,1.3,1.5,2,2.2c1,1.3,2,2.7,2.9,4.2
		c0.3,0.4,1.4,2,1.1,2.7c0,0-0.1,0.1-0.1,0.1c-0.7,0.2-2.2-1-2.6-1.3c-2.2-1.8-4.5-3.5-6.7-5.3c-5.8-4.3-11.3-8.5-19-10.9
		c-2.2-0.7-4.5-1-7-1.5c-0.9-0.1-1.9-0.1-2.9-0.1h-1c-0.2-0.1-0.4-0.4-0.6-0.6c-0.8-1-1.1-2.1-0.2-3.4c0.1-0.2,0.3-0.5,0.5-0.6
		C242.3,16.8,242.5,16.8,242.6,16.7L242.6,16.7L242.6,16.7z"/>
	<path class="st1" d="M334.8,31.1c1.9,0,2.5,0.7,2.7,2.3c0,0.3,0,1-0.1,1.2c-0.7,0.7-1.3,1.3-2,2c-1.2,1.4-2.4,2.8-3.5,4.3
		c-3,4.2-5.2,9.2-6.6,14.9c-0.4,1.7-0.5,3.6-0.9,5.5c0,1-0.1,2-0.2,3c0,0.7,0,1.4,0,2.1c0.1,2,0.1,3.9,0.4,5.7
		c0,0.8,0.1,1.6,0.2,2.4c0.4,2.3,0.4,4.7,0.9,6.9c0.4,1.7,0.7,3.4,1,5.1c0.1,0.6,0.3,1.8,0,2.3c0,0,0,0,0,0c-0.6,0-0.9-0.7-1.1-1.1
		c-0.7-1-1.2-2.2-1.9-3.3c-1.8-3.3-2.8-7.9-3.7-12.1c-0.1-0.6-0.1-1.3-0.2-1.9c-0.1-1,0-2-0.2-3.1c0-0.9,0-1.8,0-2.7
		c0-0.9,0.1-1.9,0.1-2.8c0.4-2.2,0.4-4.4,0.9-6.4c0.8-3.1,1.6-6,2.7-8.7c1.5-3.5,3.4-6.5,5.5-9.4c0.9-1.2,1.8-2.3,2.7-3.4
		c0.4-0.4,0.8-0.8,1.2-1.3c0.5-0.5,1-1,1.5-1.5C334.4,31.2,334.6,31.2,334.8,31.1L334.8,31.1L334.8,31.1z"/>
	<path class="st1" d="M360.1,37.2c1.2,0,2.2,0.5,2.5,1.3c0.4,1-0.3,2.7-0.8,3c-0.9,0.4-1.8,0.8-2.8,1.2c-1.9,1-3.7,2-5.4,3.2
		c-7.1,5-12.5,11.2-15.8,19.9c-2.2,5.7-2.9,13.2-2.9,21c0,2.6,0,5.1,0.4,7.4c0.1,0.9,0.1,2.6-0.3,3c-0.5-0.1-0.7-0.8-0.9-1.2
		c-0.5-1.1-0.8-2.2-1.2-3.3c-0.9-2.7-1.2-5.8-1.8-9c-0.1-1.2-0.1-2.3-0.2-3.5c0-0.7,0-1.3,0-2c0-1.8,0.1-3.5,0.4-5.1
		c0.5-2.6,1-5.1,1.7-7.4c3.2-10.2,9.6-17.8,17.5-23.4c1.9-1.3,3.8-2.4,5.8-3.6c0.9-0.5,1.9-0.9,2.8-1.3
		C359.4,37.5,359.7,37.4,360.1,37.2L360.1,37.2L360.1,37.2z"/>
	<path class="st1" d="M261.4,38.8c8.9-0.1,14.9,2,20.9,4.6c4.1,1.8,7.7,4.2,10.6,7.2c1.7,1.7,3.3,3.5,4.7,5.5
		c0.2,0.4,1.3,1.7,1.1,2.3c0,0-0.1,0.1-0.1,0.1c-0.6,0.2-1.3-0.4-1.6-0.6c-1.3-0.8-2.6-1.7-3.8-2.6c-2.2-1.6-4.5-2.9-6.9-4.4
		c-2.6-1.6-5.2-3.1-8.1-4.3c-6.5-2.8-15.6-4.2-24-2.2c-0.3,0.1-0.7-0.3-0.8-0.4c-0.6-0.4-1.4-1.2-1.2-2.4c0.1-0.6,0.4-1.4,0.8-1.7
		c0.3-0.2,0.9-0.2,1.3-0.3c1.6-0.4,3.4-0.4,5.2-0.7C260,38.9,260.7,38.8,261.4,38.8L261.4,38.8L261.4,38.8z"/>
	<path class="st1" d="M272.7,55.6c7.7-0.1,14.5,0.9,20.1,3c1.9,0.7,3.9,1.3,5.5,2.2c2.5,1.5,4.8,3.1,7,4.9c1.9,1.5,3.6,3.2,5,5.1
		c0.4,0.5,1.4,1.5,1.3,2.4c0,0,0,0-0.1,0c-0.5,0.2-1.8-0.7-2.1-0.9c-2-1.2-3.9-2.5-5.9-3.7c-5.1-3.2-11.2-5.5-17.8-7.1
		c-2.2-0.6-4.6-0.7-7-1.1c-1.2-0.2-2.6-0.1-4-0.1c-1.2,0-2.4-0.1-3.5,0.1c-1.6,0.2-3.1,0.1-4.5,0.4c-3.8,0.7-7.4,1.3-10.7,2.4
		c-0.8,0.3-1.7,0.5-2.5,0.8c-0.3,0.1-0.6,0.3-1,0.4c-0.2-0.1-0.4-0.1-0.6-0.2c-0.9-0.3-1.7-0.7-1.9-1.7c-0.2-0.9,0.5-2.3,0.9-2.5
		c0.3-0.1,0.6-0.2,0.9-0.3c0.9-0.4,1.9-0.7,3-1c3.7-1.2,7.4-1.8,11.6-2.5c1.4-0.1,2.9-0.3,4.3-0.4C271.3,55.7,272,55.7,272.7,55.6
		L272.7,55.6L272.7,55.6z"/>
	<path class="st1" d="M286.3,68c6.3-0.1,11.4,0.9,16,2.5c1.9,0.7,3.6,1.3,5.7,2.2c2.3,1,4.3,2.7,6.3,4.1c1.8,1.3,3.4,2.8,4.9,4.4
		c0.3,0.3,1.4,1.4,1,1.9c-1.2,0.1-2.4-0.7-3.2-1.1c-2.1-1.1-4.2-2.1-6.4-3.2c-4.7-2.4-8.8-3.8-13.9-5.1c-1.9-0.5-3.9-0.7-6-1
		c-1.2-0.2-3.5-0.3-4.7-0.1c-0.5,0-1,0-1.5,0.1c-1.3,0.2-2.6,0.2-3.8,0.5c-3.3,0.7-6,1.7-8.7,2.9c-1,0.5-1.9,1.1-2.8,1.6
		c-0.3,0.2-0.7,0.5-1,0.7c-0.2,0-0.4,0-0.6-0.1c-1.1-0.2-1.9-0.5-2.2-1.3c-1.1-2.6,2-3.6,3.4-4.4c3.2-1.8,6.9-3,11-3.9
		c1.4-0.3,2.9-0.3,4.4-0.6C284.9,68,285.6,68,286.3,68L286.3,68L286.3,68z"/>
	<path class="st1" d="M300.9,81.8c10-0.1,17.4,2.8,23.5,6.6c1.4,0.9,2.8,1.9,4.1,2.9c0.6,0.4,1.3,0.9,1.6,1.7c0,0.1-0.1,0.1-0.2,0.2
		c-0.7,0.2-2-0.3-2.5-0.5c-1.9-0.7-3.9-1.4-5.8-2.2c-3.6-1.4-7.7-2.3-11.9-3.2c-1-0.2-2.1-0.3-3.1-0.5c-1.1-0.2-2.3-0.1-3.4-0.3
		c-0.5,0-1.1,0-1.6,0h-2.3c-0.8,0.1-1.6,0.1-2.4,0.2c-1.8,0.3-3.6,0.4-5.2,0.9c-1.5,0.4-3.1,0.8-4.5,1.4c-3.1,1.2-5.9,2.6-8.6,4.3
		c-1.6,1-3,2.2-4.5,3.4c-0.6,0.6-1.2,1.1-1.9,1.7c-0.2,0.2-0.5,0.5-0.7,0.7c-0.3,0-0.6,0.1-0.8,0.1c-1.2,0.2-2.1-0.3-2.4-1.1
		c-0.2-0.5-0.3-1.7-0.1-2.3c0.2-0.4,1.1-1.2,1.5-1.5c1.3-1.1,2.5-2.2,3.9-3.2c5-3.7,10.6-6.4,17.7-8.2c2-0.5,4.1-0.6,6.3-0.9
		C298.8,81.9,299.9,81.9,300.9,81.8z"/>
	<path class="st1" d="M313.6,93.1c7.3-0.1,13,1.7,18.2,3.9c1.3,0.6,2.6,1.1,3.7,1.9c0.3,0.2,1.1,0.6,0.9,1.1
		c-1.1,0.3-2.5-0.1-3.5-0.3c-2.3-0.4-4.7-0.8-7-1.3c-1.5-0.2-3-0.3-4.4-0.5c-0.7,0-1.4-0.1-2-0.1c-0.8-0.1-1.8-0.1-2.6-0.1
		c-1.2-0.1-2.9-0.1-4.1,0.1c-0.8,0.1-1.6,0.1-2.4,0.2c-2.1,0.4-4.1,0.5-6,1.1c-2.5,0.8-4.9,1.6-7.1,2.5c-7,3.1-12.9,8.4-17.2,14.1
		c-0.9,1.2-1.9,2.4-2.7,3.7c-0.2,0.4-0.7,1.5-1,1.7c-0.9,0.6-2.6,0.9-3.3-0.1c-0.3-0.4-0.9-1.8-0.5-2.5c0.3-0.5,0.6-0.9,0.9-1.4
		c1.6-2.6,3.5-4.8,5.4-7.1c1.2-1.5,2.7-3.1,4.2-4.3c0.5-0.4,1-0.9,1.4-1.3c1.2-0.9,2.3-1.9,3.6-2.8c4.2-3,8.9-5.2,14.4-6.9
		c2.4-0.7,5-1,7.7-1.5C311.1,93.3,312.3,93.2,313.6,93.1L313.6,93.1L313.6,93.1z"/>
</g>
<rect class="st2" width="712.3" height="124"/>
</svg>
