<?xml version="1.0" encoding="utf-8"?>
<!-- Generator: Adobe Illustrator 27.9.3, SVG Export Plug-In . SVG Version: 9.03 Build 53313)  -->
<svg version="1.1" id="Layer_1" xmlns="http://www.w3.org/2000/svg" xmlns:xlink="http://www.w3.org/1999/xlink" x="0px" y="0px"
	 viewBox="0 0 274.6 245" style="enable-background:new 0 0 274.6 245;" xml:space="preserve">
<style type="text/css">
	.st0{fill:#009876;}
	.st1{clip-path:url(#SVGID_00000067953762525333594130000008552814513444449689_);}
	.st2{fill:none;stroke:#009876;stroke-width:3;stroke-miterlimit:10;}
	.st3{clip-path:url(#SVGID_00000121998970985092708960000015633013371247540354_);}
	.st4{clip-path:url(#SVGID_00000080901773469680367780000011513719218983798417_);}
	.st5{clip-path:url(#SVGID_00000043451654317098858580000001263820107688821128_);}
	.st6{fill:#FFFFFF;}
</style>
<path class="st0" d="M251.2,131c0,34.1-15.2,66.4-41.6,88.1l-146.7-1.5c-47.8-41-53.2-113-12.2-160.8s113-53.2,160.8-12.2
	C236.7,66.3,251.2,97.8,251.2,131L251.2,131z"/>
<path class="st0" d="M216.4,228c0,2.4,0,4.7,0,7s0,4.8,0.1,7.2c0,0.3-0.1,0.4-0.4,0.4c-0.5,0-1,0-1.5,0c-0.3,0-0.4-0.1-0.4-0.4
	c0.1-2.6,0.1-5.1,0.1-7.7c0-2.8,0-5.6-0.1-8.3c0-0.3,0.1-0.5,0.4-0.6c0.5-0.2,1-0.4,1.5-0.6c0.2-0.1,0.5-0.1,0.6,0.1c0,0,0,0,0,0
	c1.9,2.2,3.8,4.4,5.8,6.6c2,2.3,4,4.6,6.1,6.9c0.1,0.1,0.1,0.2,0.2,0.3c0.1-0.4,0.1-0.8,0-1.2c0-2.4,0-4.9,0-7.3
	c0-1.7,0-3.4-0.1-5.1c0-0.4,0.1-0.5,0.5-0.5c0.5,0,0.9,0,1.4,0c0.3,0,0.4,0.1,0.4,0.4c0,2.8,0,5.6,0,8.4c0,2.6,0,5.2,0.1,7.7
	c0,0.3-0.1,0.5-0.4,0.6c-0.4,0.1-0.8,0.3-1.2,0.5c-0.2,0.2-0.5,0.1-0.7-0.1c0,0,0,0,0-0.1c-1.4-1.7-2.8-3.4-4.2-5
	c-2.6-3.1-5.3-6.1-8-9.2C216.5,228,216.5,228,216.4,228z"/>
<path class="st0" d="M122.4,241.4l-1.8,1.3c-0.2,0.1-0.3,0-0.4-0.1c-1.5-1.5-3-3.1-4.5-4.6c-1.1-1.1-2.2-2.2-3.3-3.4
	c-0.3-0.3-0.3-0.3,0.1-0.5c1.2-0.4,2.4-1.1,3.2-2c1.1-1.3,1.1-3.2-0.2-4.4c-0.4-0.3-0.8-0.6-1.2-0.7c-1.4-0.4-2.9-0.5-4.4-0.4
	c-0.2,0-0.2,0.1-0.2,0.3c0,0.5,0,1,0,1.5c0,2.4,0,4.8,0,7.1c0,2.2,0,4.3,0.1,6.5c0,0.4-0.1,0.5-0.5,0.5c-0.5,0-1,0-1.4,0
	c-0.4,0-0.5-0.1-0.5-0.5c0.1-2.2,0.1-4.5,0.1-6.8c0-3.2,0-6.4-0.1-9.6c0-0.9,0-0.9,0.8-0.9c1.8-0.1,3.7,0,5.5,0.1
	c1.5,0.1,3,0.7,4.2,1.7c1.7,1.6,1.8,4.3,0.1,6.1c0,0,0,0,0,0c-0.6,0.7-1.4,1.3-2.2,1.7c-0.3,0.2-0.3,0.3-0.1,0.5
	c2,2.1,4.2,4.1,6.3,6.1L122.4,241.4z"/>
<path class="st0" d="M166.2,241.4c-0.6,0.4-1.1,0.8-1.6,1.2c-0.3,0.2-0.4,0.1-0.6-0.1l-3.1-3.2c-1.5-1.6-3.1-3.2-4.6-4.8
	c-0.3-0.3-0.2-0.4,0.2-0.5c1.1-0.4,2.1-1,3-1.8c1.2-1.2,1.3-3.2,0.1-4.4c-0.4-0.4-0.9-0.7-1.4-0.8c-1.4-0.3-2.9-0.5-4.3-0.4
	c-0.4,0-0.3,0.3-0.3,0.5c0,0.9,0,1.8,0,2.6c0,4,0,8,0,12c0,0.8,0,0.8-0.8,0.8c-0.4,0-0.8,0-1.2,0s-0.4-0.1-0.4-0.4
	c0-2.7,0.1-5.4,0.1-8.1c0-3,0-5.9-0.1-8.9c0-0.2,0-0.4,0.3-0.4c2-0.1,4,0,6,0.1c1.5,0.1,3,0.7,4.1,1.6c1.7,1.6,1.8,4.3,0.2,6.1
	c0,0,0,0.1-0.1,0.1c-0.6,0.7-1.3,1.2-2.1,1.7c-0.3,0.2-0.3,0.3-0.1,0.5c1.9,1.9,3.8,3.8,5.8,5.6L166.2,241.4z"/>
<path class="st0" d="M139.8,237.3c0-1.2,0-2.4,0-3.5c0-0.3,0.1-0.4,0.4-0.4c0.6,0,1.1,0,1.7,0c0.3,0,0.4,0.1,0.4,0.4
	c0,1.3-0.1,2.6-0.1,3.9c0,1.5,0,3,0.1,4.5c0,0.2,0,0.4-0.3,0.4c-3.5,0.2-7,0.1-10.2-1.3c-2.3-0.9-4.1-2.8-4.8-5.2
	c-1.1-3.3,0.2-6.9,3.2-8.8c1.9-1.3,4.1-2.1,6.4-2.3c1.5-0.2,3-0.3,4.5-0.3c0.3,0,0.4,0.1,0.4,0.4s0.1,0.8,0.1,1.2s-0.1,0.4-0.4,0.4
	c-1.3,0-2.7,0-4,0.2c-1.9,0.2-3.7,0.8-5.3,1.9c-2.4,1.6-3.3,4.6-2.3,7.3c0.7,1.6,1.9,2.8,3.5,3.5c1.9,0.9,4,1.3,6.1,1.3
	c0.9,0,0.9,0,0.9-0.9v-2.6L139.8,237.3z"/>
<path class="st0" d="M70.6,239.8c0.9-1.7,1.7-3.4,2.6-5.1c1.6-3.3,3.2-6.6,4.8-9.9c0.1-0.3,0.3-0.3,0.5-0.2c0.4,0.2,0.9,0.4,1.3,0.6
	c0.3,0.1,0.3,0.2,0.2,0.6c-1,2-2.1,4.1-3.1,6.1c-1.8,3.5-3.6,7-5.3,10.5c-0.1,0.2-0.3,0.4-0.6,0.4c-0.5,0-1.1,0.1-1.5-0.1
	s-0.5-0.9-0.8-1.3c-2.6-5.1-5.2-10.3-7.7-15.4c-0.2-0.3-0.2-0.5,0.2-0.6c0.5-0.2,1-0.4,1.5-0.7c0.3-0.1,0.4-0.1,0.5,0.2
	c1.3,2.7,2.6,5.4,3.9,8.1c1.1,2.2,2.2,4.4,3.2,6.5C70.5,239.5,70.5,239.6,70.6,239.8z"/>
<path class="st0" d="M89,233.6c0,2.2,0,4.4,0,6.5c0,0.4,0.1,0.5,0.5,0.5h8.9c0.6,0,0.6,0,0.6,0.6c0,0.3,0,0.6,0,0.9
	s-0.1,0.4-0.4,0.4c-1,0-2-0.1-3-0.1c-2.8,0-5.7,0-8.5,0.1c-0.4,0-0.5-0.1-0.5-0.5c0-2.2,0.1-4.5,0.1-6.7c0-3.3,0-6.7-0.1-10
	c0-0.4,0.1-0.5,0.5-0.5c2.9,0,5.9,0,8.8,0c0.9,0,1.7,0,2.5,0c0.3,0,0.4,0,0.4,0.4c0,0.4,0,0.8,0,1.1c0,0.3-0.1,0.4-0.4,0.4
	c-1,0-2,0-3,0h-6c-0.3,0-0.4,0.1-0.4,0.4C89,229.2,89,231.4,89,233.6z"/>
<path class="st0" d="M172.8,235c0-2.3,0-4.6,0-6.9c0-0.9,0-1.9-0.1-2.8c0-0.4,0.1-0.4,0.4-0.4c3,0,6.1,0,9.1,0c0.8,0,1.6,0,2.4,0
	c0.3,0,0.4,0.1,0.4,0.4c0,0.4,0,0.7,0,1.1c0,0.3-0.1,0.4-0.4,0.4c-1.6,0-3.1,0-4.7-0.1h-4.3c-0.3,0-0.4,0.1-0.4,0.4
	c0,3.5,0,6.9-0.1,10.4c0,1,0.1,1.9,0.1,2.9c0,0.4,0.1,0.5,0.5,0.5h8.8c0.1,0,0.2,0,0.4,0c0.3,0,0.4,0.1,0.4,0.4c0,0.3,0,0.7,0,1
	c0,0.4-0.1,0.4-0.4,0.4c-1.8,0-3.7-0.1-5.5-0.1s-4,0-5.9,0.1c-0.4,0-0.5-0.1-0.5-0.5C172.9,239.6,172.8,237.3,172.8,235z"/>
<path class="st0" d="M45.8,233.6c0,2.2,0,4.4,0,6.5c0,0.4,0.1,0.5,0.5,0.5H55c0.1,0,0.2,0,0.3,0c0.4-0.1,0.6,0.1,0.5,0.5
	c0,0.3,0,0.6,0,0.9c0.1,0.4-0.1,0.5-0.5,0.5c-2.6-0.1-5.2-0.1-7.8-0.1c-1.2,0-2.4,0-3.6,0.1c-0.3,0-0.4-0.1-0.4-0.4
	c0-3,0.1-6.1,0.1-9.2c0-2.6,0-5.1-0.1-7.7c0-0.3,0.1-0.4,0.4-0.4c3.8,0.1,7.7,0.1,11.5,0c0.2,0,0.3,0.1,0.3,0.3c0,0.4,0,0.8,0,1.2
	c0,0.4-0.2,0.4-0.5,0.4c-2.9-0.1-5.9,0-8.8-0.1c-0.5,0-0.6,0.1-0.6,0.6C45.8,229.3,45.8,231.5,45.8,233.6z"/>
<path class="st0" d="M199.6,224.8c1.9,0,3.8,0,5.7,0c0.3,0,0.4,0.1,0.4,0.4c0,0.3,0,0.7,0,1c0,0.4-0.1,0.5-0.4,0.5
	c-2.3-0.1-4.6-0.1-6.9-0.1c-0.7,0-1.4,0-2,0c-0.3,0-0.4,0.1-0.4,0.4c-0.1,4.3-0.1,8.6,0,12.9c0,0.9-0.2,0.8,0.8,0.8
	c2.9,0,5.8,0,8.7,0c0.4,0,0.5,0.1,0.5,0.5c0,0.3,0,0.6,0,0.9c0,0.4-0.1,0.5-0.5,0.5c-1.8,0-3.7-0.1-5.5-0.1s-3.9,0-5.9,0.1
	c-0.4,0-0.5-0.1-0.5-0.5c0-3,0.1-6,0.1-9c0-2.6,0-5.2-0.1-7.8c0-0.3,0.1-0.4,0.4-0.4C195.9,224.8,197.8,224.8,199.6,224.8
	L199.6,224.8z"/>
<path class="st0" d="M180.5,232.4c1.4,0,2.8,0,4.1,0c0.2,0,0.3,0.1,0.3,0.3c0,0.4,0,0.8,0,1.1c0,0.4-0.1,0.5-0.5,0.5
	c-2.5-0.1-5-0.1-7.6-0.1c-0.8,0-0.8,0-0.8-0.8c0-1,0-1,1-1L180.5,232.4L180.5,232.4z"/>
<path class="st0" d="M51.2,232.4c1.4,0,2.7,0,4.1,0c0.2,0,0.3,0.1,0.3,0.3c0,0.4,0,0.8,0,1.2s-0.1,0.4-0.4,0.4c-0.8,0-1.6,0-2.4,0
	c-1.9,0-3.8,0-5.7,0c-0.3,0-0.4-0.1-0.4-0.4c0.1-0.5-0.2-1.1,0.1-1.4s0.9-0.1,1.3-0.1L51.2,232.4L51.2,232.4z"/>
<path class="st0" d="M201.3,232.4h4.1c0.2,0,0.3,0.1,0.3,0.3c0,0.4,0,0.8,0,1.2s-0.1,0.4-0.4,0.4l-5.6-0.1c-0.8,0-1.7,0-2.5,0
	c-0.3,0-0.4,0-0.4-0.4c0-0.5-0.1-1.1,0.1-1.4s0.9-0.1,1.3-0.1L201.3,232.4L201.3,232.4z"/>
<path class="st0" d="M94.4,232.4c1.4,0,2.7,0,4,0c0.3,0,0.4,0.1,0.4,0.4s0,0.8,0,1.2s-0.1,0.4-0.4,0.4c-2.7,0-5.4,0-8.1,0
	c-0.3,0-0.3-0.1-0.3-0.3c0-0.4,0-0.8,0-1.2c0-0.3,0.1-0.3,0.3-0.3L94.4,232.4L94.4,232.4z"/>
<g>
	<defs>
		<rect id="SVGID_1_" x="7.1" width="260.6" height="219.1"/>
	</defs>
	<clipPath id="SVGID_00000021115874690881311140000010957788733018706056_">
		<use xlink:href="#SVGID_1_"  style="overflow:visible;"/>
	</clipPath>
	<g style="clip-path:url(#SVGID_00000021115874690881311140000010957788733018706056_);">
		<circle class="st2" cx="137.2" cy="131" r="127.6"/>
	</g>
</g>
<g>
	<defs>
		<rect id="SVGID_00000137811142813775176600000002249711057240374921_" x="240" y="179.8" width="34.1" height="53.8"/>
	</defs>
	<clipPath id="SVGID_00000126292611125964762750000014946629008999433132_">
		<use xlink:href="#SVGID_00000137811142813775176600000002249711057240374921_"  style="overflow:visible;"/>
	</clipPath>
	<g style="clip-path:url(#SVGID_00000126292611125964762750000014946629008999433132_);">
		<path class="st2" d="M272.4,179.3c-7.2,20-18.7,38.2-33.7,53.2"/>
	</g>
</g>
<g>
	<defs>
		<rect id="SVGID_00000094584871503884518370000009756402865154954131_" y="178.4" width="34.1" height="54"/>
	</defs>
	<clipPath id="SVGID_00000141436155848218611780000002391935869033353376_">
		<use xlink:href="#SVGID_00000094584871503884518370000009756402865154954131_"  style="overflow:visible;"/>
	</clipPath>
	<g style="clip-path:url(#SVGID_00000141436155848218611780000002391935869033353376_);">
		<path class="st2" d="M1.7,178c7.2,20,18.7,38.2,33.7,53.2"/>
	</g>
</g>
<g>
	<defs>
		<path id="SVGID_00000060725668750135867540000014121964736989590959_" d="M251.6,131c0,34.1-15.2,66.4-41.6,88.1l-146.7-1.5
			c-47.8-41-53.2-113-12.2-160.8s113-53.2,160.8-12.2C237.1,66.2,251.6,97.8,251.6,131z"/>
	</defs>
	<clipPath id="SVGID_00000009589577617995714810000015842474568781754294_">
		<use xlink:href="#SVGID_00000060725668750135867540000014121964736989590959_"  style="overflow:visible;"/>
	</clipPath>
	<g style="clip-path:url(#SVGID_00000009589577617995714810000015842474568781754294_);">
		<path class="st6" d="M198.6,188c-4.4-0.8-8.9-1.7-13.4-2.5c-18.1-3-35.7-2.1-52.3,6.8c-12.6,6.7-22,16.8-29.5,28.8
			c-1.1,1.9-4.1,2.8-5.8,1.7c-1.5-1-2.1-3.9-1-5.6c11.7-18.6,27.4-32.3,49.1-38.2c18.1-4.9,35.5-2.6,52.1,6.1c0.5,0.3,1,0.6,1.5,0.9
			c0.5,0.4,1.4,0.6,1.2,1.4C200.2,188.3,199.2,187.7,198.6,188z"/>
		<path class="st6" d="M183.9,46.2c0,1-0.3,2.1-1.1,2.8c-11.1,12.4-18.2,27.7-20.5,44.2c-1.7,11.6,0.1,22.8,2.6,34.1
			c1.6,7.1,3.7,14.1,6.4,20.9c0.3,0.9,0.6,1.7,0.8,2.6c0.1,0.5,0.2,1.1-0.3,1.4s-1-0.2-1.3-0.6c-0.7-0.7-1.4-1.5-2-2.4
			c-7.6-10.7-12.4-23.2-13.9-36.3c-2.8-24.6,4.4-46.2,19.4-65.5c1.1-1.4,2.1-2.8,3.3-4.1c1.3-1.5,3.1-1.4,4.7-0.9
			S183.9,44.7,183.9,46.2z"/>
		<path class="st6" d="M191.3,152.7c0.8-16,5.5-30.6,15.5-43.2c8.3-10.3,19-18.5,31.1-23.8c2.3-1,4.7-0.3,5.5,1.5
			c0.8,2.2-0.3,4.7-2.5,5.6c-14.8,6.6-26.3,16.8-34.1,31c-4.9,8.9-7.2,18.5-8,28.6c-0.6,7-0.7,13.9-0.4,20.9
			c0.1,1.8,0.3,3.5,0.5,5.3c0.1,1,0.1,2,0.1,2.9c0,0.7,0.1,1.7-0.8,1.8s-1.1-0.8-1.3-1.4c-1.8-4.1-3.1-8.4-3.8-12.7
			C192,163.7,191.5,158.2,191.3,152.7z"/>
		<path class="st6" d="M144.7,158c16.3-0.1,31.2,5.7,44.2,16.4c0.7,0.6,1.8,1.2,1.3,2.1c-0.4,0.6-1.6,0.3-2.4,0l-9.5-3.5
			c-11.8-4.3-23.8-7.3-36.4-7.2c-15.5,0.2-29.1,5.6-41.1,15.2c-1.7,1.4-3.4,2.9-5,4.4c-1.6,1.3-3.9,1.3-5.5,0
			c-1.4-1.7-1.4-4.2,0.2-5.8c10.7-10.2,24.1-17.2,38.6-20.2C134.2,158.3,139.5,157.9,144.7,158z"/>
		<path class="st6" d="M99.5,115.2c12.3-0.3,24.5,2.1,35.7,7.1c9.6,4.3,17.9,11,24.1,19.4c0.3,0.4,0.5,0.8,0.7,1.2
			c0.1,0.4,0.3,0.8,0,1.1s-0.7,0.2-1.1,0c-0.7-0.4-1.4-0.7-2-1.1c-9.6-6.4-19.5-12.2-30.7-15.6c-11.1-3.6-22.7-4.9-34.3-3.9
			c-9.3,0.9-18.4,2.9-27.2,5.9c-2,0.7-4.3-0.3-5-2.3s0.3-4.3,2.3-5c9.2-3.2,18.7-5.3,28.3-6.3C93.4,115.3,96.5,115.2,99.5,115.2z"/>
		<path class="st6" d="M130.6,75.8c-0.2-12.9,2.8-25.6,8.7-37.1c1.1-2.1,2.7-3,4.7-2.6c1.6,0.3,2.9,2.1,3.1,4.1c0,0.7-0.2,1.4-0.7,2
			c-6.6,12.1-8.9,25.1-7.8,38.7c0.9,10.9,4.8,20.9,8.9,30.9c2.3,5.6,4.9,11.1,7.8,16.4c0.2,0.3,0.4,0.7,0.5,1.1
			c0.3,0.9,1.3,2.1,0.3,2.8c-0.9,0.6-1.9-0.6-2.6-1.3c-9-9.2-15.7-19.9-19.2-32.4C132,90.5,130.5,82.6,130.6,75.8z"/>
		<path class="st6" d="M173.3,132.3c-0.1-21.6,7.5-40.3,22.6-55.8c1.7-1.7,4.1-1.9,5.5-0.4c1.6,1.7,1.6,4.3,0,6
			c-9.4,9.3-15.9,21.2-18.8,34.1c-1.9,8.1-1.9,16.4-1.2,24.7c0.7,8.7,1.9,17.4,3.8,25.9c0.2,0.9,0.5,2.3-0.4,2.6s-1.5-1-2-1.8
			c-4.6-7.1-6.9-15.1-8.6-23.3C173.4,140.4,173.4,136.4,173.3,132.3z"/>
		<path class="st6" d="M123.9,135.3c8.9-0.1,20.6,2.9,31.6,8.4c6.7,3.4,12.4,8.3,17.6,13.8c0.7,0.7,1.8,1.6,1.2,2.4
			s-1.8,0.2-2.7-0.2c-5.2-2.6-10.4-5.4-15.7-7.9c-10.9-5.1-22.2-8.6-34.3-8.8c-11-0.2-21.8,2.9-31.1,8.9c-1.7,0.8-3.7,0.5-5-0.8
			c-1.2-1.3-1.3-3.3-0.3-4.7c0.6-0.8,1.4-1.5,2.4-2C97.2,138.6,109.2,135.2,123.9,135.3z"/>
		<path class="st6" d="M80.2,95.5c-4.3,0-8.6,0.4-12.8,1.3c-1.8,0.4-4.1-1.3-4.4-3.1c-0.5-2,0.7-4,2.7-4.5c0.1,0,0.1,0,0.2,0
			c21.9-4.1,41.7,0.9,59.6,14c5,3.8,9.4,8.5,12.8,13.9c0.6,0.9,1.8,1.9,0.8,2.9s-2.1-0.3-2.9-0.9c-7.2-5.1-14.7-9.9-22.3-14.4
			C103.6,98.6,92,95.5,80.2,95.5z"/>
		<path class="st6" d="M111.5,29.8c2.3,0,4.3,1.8,4.3,4.1c0,0.7-0.1,1.4-0.5,2c-4.1,8.1-4.5,16.6-2.5,25.3
			c1.6,7.1,4.3,13.8,7.9,20.1c3.8,6.4,7.1,13.1,10.6,19.6c0.2,0.3,0.3,0.6,0.4,0.9c0.2,0.6,0.5,1.4-0.1,1.8s-1.3,0-1.8-0.4
			c-2.2-1.6-4.2-3.3-6-5.3c-9.1-9.4-15.4-21-18.3-33.8c-2.6-11.1-2.1-22,3.1-32.4C109.3,30.5,110.1,29.7,111.5,29.8z"/>
		<path class="st6" d="M51.3,51.7C62.6,52,73,55.5,82.7,61.1c5.8,3.3,11.7,6.7,16.5,11.4c4.7,4.6,8.7,9.8,11.9,15.5
			c0.2,0.4,0.4,0.8,0.5,1.2c0.4,1.3-0.2,1.6-1.3,1.2c-1.2-0.5-2.2-1.1-3.1-2c-6.8-5.3-13.6-10.8-20.7-15.7
			c-7.7-5.2-15.8-9.7-24.9-11.7c-4.2-1.1-8.4-1.6-12.8-1.6c-2,0.1-3.6-1.9-3.5-4.2s1.2-3.5,3.4-3.5C49.6,51.7,50.4,51.7,51.3,51.7z"
			/>
	</g>
</g>
</svg>
